<svg xmlns="http://www.w3.org/2000/svg" xmlns:xlink="http://www.w3.org/1999/xlink" width="113" height="113" viewBox="0 0 113 113">
  <defs>
    <filter id="Trazado_982547" x="0" y="0" width="113" height="113" filterUnits="userSpaceOnUse">
      <feOffset dy="3" input="SourceAlpha"/>
      <feGaussianBlur stdDeviation="3" result="blur"/>
      <feFlood flood-opacity="0.161"/>
      <feComposite operator="in" in2="blur"/>
      <feComposite in="SourceGraphic"/>
    </filter>
  </defs>
  <g id="Grupo_1226072" data-name="Grupo 1226072" transform="translate(-1131.019 -6641.041)">
    <g id="Grupo_1225734" data-name="Grupo 1225734" transform="translate(1140.019 6647.041)">
      <g id="Grupo_1224583" data-name="Grupo 1224583" transform="translate(0 0)">
        <g id="Grupo_1224450" data-name="Grupo 1224450" transform="translate(0)">
          <g id="Grupo_1224085" data-name="Grupo 1224085">
            <g id="Grupo_1223184" data-name="Grupo 1223184">
              <g id="Grupo_1211216" data-name="Grupo 1211216">
                <g id="Grupo_1210737" data-name="Grupo 1210737">
                  <g id="Grupo_1210537" data-name="Grupo 1210537">
                    <g id="Grupo_1164202" data-name="Grupo 1164202">
                      <g id="Grupo_1158168" data-name="Grupo 1158168">
                        <g id="Grupo_1152576" data-name="Grupo 1152576">
                          <g id="Grupo_1148633" data-name="Grupo 1148633">
                            <g id="Grupo_1148525" data-name="Grupo 1148525">
                              <g transform="matrix(1, 0, 0, 1, -9, -6)" filter="url(#Trazado_982547)">
                                <g id="Trazado_982547-2" data-name="Trazado 982547" transform="translate(9 6)" fill="#fef9e5">
                                  <path d="M 47.49999237060547 93.49999237060547 C 41.28937911987305 93.49999237060547 35.26532745361328 92.28396606445312 29.59519195556641 89.88569641113281 C 24.11772537231445 87.56892395019531 19.19813919067383 84.251953125 14.97309875488281 80.02690124511719 C 10.74804592132568 75.80185699462891 7.431072235107422 70.88227081298828 5.114298820495605 65.40480804443359 C 2.716032266616821 59.73465728759766 1.500005722045898 53.71060562133789 1.500005722045898 47.49999237060547 C 1.500005722045898 41.28937911987305 2.716032266616821 35.26532745361328 5.114298820495605 29.59517860412598 C 7.431072235107422 24.11771202087402 10.74804592132568 19.1981258392334 14.97309875488281 14.97308540344238 C 19.19813919067383 10.74804592132568 24.11772537231445 7.431072235107422 29.59519195556641 5.114298820495605 C 35.26532745361328 2.716032266616821 41.28937911987305 1.500005722045898 47.49999237060547 1.500005722045898 C 53.71062088012695 1.500005722045898 59.73465728759766 2.716032266616821 65.40480804443359 5.114298820495605 C 70.88227081298828 7.431072235107422 75.80185699462891 10.74804592132568 80.02690124511719 14.97308540344238 C 84.251953125 19.1981258392334 87.56892395019531 24.11771202087402 89.88569641113281 29.59517860412598 C 92.28396606445312 35.26532745361328 93.49999237060547 41.28937911987305 93.49999237060547 47.49999237060547 C 93.49999237060547 53.71062088012695 92.28396606445312 59.73465728759766 89.88569641113281 65.40480804443359 C 87.56892395019531 70.88227081298828 84.251953125 75.80185699462891 80.02690124511719 80.02690124511719 C 75.80185699462891 84.251953125 70.88227081298828 87.56892395019531 65.40480804443359 89.88569641113281 C 59.73465728759766 92.28396606445312 53.71062088012695 93.49999237060547 47.49999237060547 93.49999237060547 Z" stroke="none"/>
                                  <path d="M 47.49999237060547 2.999992370605469 C 41.49120712280273 2.999992370605469 35.66376113891602 4.1761474609375 30.17951202392578 6.49578857421875 C 24.88083648681641 8.736946105957031 20.12151336669922 11.94597625732422 16.03374481201172 16.03374481201172 C 11.94597625732422 20.12151336669922 8.736946105957031 24.88083648681641 6.49578857421875 30.17949676513672 C 4.1761474609375 35.66376113891602 2.999992370605469 41.49120712280273 2.999992370605469 47.49999237060547 C 2.999992370605469 53.5087776184082 4.1761474609375 59.33622360229492 6.49578857421875 64.82046508789062 C 8.736946105957031 70.11914825439453 11.94597625732422 74.87847137451172 16.03374481201172 78.96623992919922 C 20.12151336669922 83.05400848388672 24.88083648681641 86.26303863525391 30.17951202392578 88.50418090820312 C 35.66376113891602 90.82382202148438 41.49120712280273 91.99997711181641 47.49999237060547 91.99997711181641 C 53.5087776184082 91.99997711181641 59.33622360229492 90.82382202148438 64.82046508789062 88.50418090820312 C 70.11914825439453 86.26303863525391 74.87847137451172 83.05400848388672 78.96623992919922 78.96623992919922 C 83.05400848388672 74.87847137451172 86.26303863525391 70.11914825439453 88.50418090820312 64.82046508789062 C 90.82382202148438 59.33622360229492 91.99997711181641 53.5087776184082 91.99997711181641 47.49999237060547 C 91.99997711181641 41.49120712280273 90.82382202148438 35.66376113891602 88.50418090820312 30.17949676513672 C 86.26303863525391 24.88083648681641 83.05400848388672 20.12151336669922 78.96623992919922 16.03374481201172 C 74.87847137451172 11.94597625732422 70.11914825439453 8.736946105957031 64.82046508789062 6.49578857421875 C 59.33622360229492 4.1761474609375 53.5087776184082 2.999992370605469 47.49999237060547 2.999992370605469 M 47.49999237060547 -7.62939453125e-06 C 73.73351287841797 -7.62939453125e-06 94.99997711181641 21.26647186279297 94.99997711181641 47.49999237060547 C 94.99997711181641 73.73351287841797 73.73351287841797 94.99997711181641 47.49999237060547 94.99997711181641 C 21.26648712158203 94.99997711181641 -7.62939453125e-06 73.73351287841797 -7.62939453125e-06 47.49999237060547 C -7.62939453125e-06 21.26647186279297 21.26648712158203 -7.62939453125e-06 47.49999237060547 -7.62939453125e-06 Z" stroke="none" fill="#f6c810"/>
                                </g>
                              </g>
                            </g>
                          </g>
                        </g>
                      </g>
                    </g>
                  </g>
                </g>
              </g>
            </g>
          </g>
        </g>
      </g>
    </g>
    <g id="feasibility_17729916" transform="translate(1117.48 6636.969)">
      <g id="Grupo_1226071" data-name="Grupo 1226071" transform="translate(42.326 25.158)">
        <path id="Trazado_1054475" data-name="Trazado 1054475" d="M113.028,98.65h2.132a1.137,1.137,0,0,1,1.135,1.131v.828a1.116,1.116,0,0,0,.837,1.095,11.788,11.788,0,0,1,2.827,1.173,1.119,1.119,0,0,0,1.364-.18l.588-.588a1.134,1.134,0,0,1,1.6,0l1.511,1.507a1.139,1.139,0,0,1,0,1.6l-.588.583a1.121,1.121,0,0,0-.18,1.369A11.582,11.582,0,0,1,125.423,110a1.124,1.124,0,0,0,1.095.841h.828a1.137,1.137,0,0,1,1.135,1.131V114.1a1.137,1.137,0,0,1-1.135,1.131h-.828a1.124,1.124,0,0,0-1.095.841,11.62,11.62,0,0,1-1.168,2.822,1.121,1.121,0,0,0,.18,1.369l.588.583a1.139,1.139,0,0,1,0,1.6l-1.511,1.507a1.134,1.134,0,0,1-1.6,0l-.588-.588a1.121,1.121,0,0,0-1.364-.18,11.857,11.857,0,0,1-2.827,1.173,1.116,1.116,0,0,0-.837,1.095v.828a1.137,1.137,0,0,1-1.135,1.131h-2.132a1.133,1.133,0,0,1-1.131-1.131v-.828a1.12,1.12,0,0,0-.841-1.095,11.684,11.684,0,0,1-2.822-1.173,1.126,1.126,0,0,0-1.369.18l-.588.588a1.134,1.134,0,0,1-1.6,0l-1.507-1.507a1.139,1.139,0,0,1,0-1.6l.583-.583a1.121,1.121,0,0,0,.18-1.369,11.654,11.654,0,0,1-1.168-2.822,1.124,1.124,0,0,0-1.095-.841h-.828A1.133,1.133,0,0,1,99.71,114.1v-2.137a1.133,1.133,0,0,1,1.131-1.131h.828a1.124,1.124,0,0,0,1.095-.841,11.62,11.62,0,0,1,1.168-2.822,1.122,1.122,0,0,0-.18-1.369l-.583-.583a1.139,1.139,0,0,1,0-1.6l1.507-1.507a1.134,1.134,0,0,1,1.6,0l.588.588a1.128,1.128,0,0,0,1.369.18,11.776,11.776,0,0,1,2.822-1.173,1.12,1.12,0,0,0,.841-1.095v-.828A1.134,1.134,0,0,1,113.028,98.65Z" transform="translate(-92.304 -88.925)" fill="gray" fill-rule="evenodd"/>
        <path id="Trazado_1054476" data-name="Trazado 1054476" d="M156.02,147.26a7.352,7.352,0,1,1-7.35,7.355A7.352,7.352,0,0,1,156.02,147.26Z" transform="translate(-134.21 -130.532)" fill="#b3b3b3" fill-rule="evenodd"/>
        <path id="Trazado_1054477" data-name="Trazado 1054477" d="M169.306,162.251a7.352,7.352,0,0,1-12.374,7.664,7.352,7.352,0,0,1,12.374-7.664Z" transform="translate(-140.758 -141.112)" fill="#e6e6e6" fill-rule="evenodd"/>
        <path id="Trazado_1054478" data-name="Trazado 1054478" d="M212.969,178.13A1.567,1.567,0,1,1,211.4,179.7,1.57,1.57,0,0,1,212.969,178.13Z" transform="translate(-187.903 -156.955)" fill="#fff" fill-rule="evenodd"/>
        <path id="Trazado_1054479" data-name="Trazado 1054479" d="M245.165,138.93a.937.937,0,1,1-.935.935A.939.939,0,0,1,245.165,138.93Z" transform="translate(-216.003 -123.402)" fill="#b3b3b3" fill-rule="evenodd"/>
        <path id="Trazado_1054480" data-name="Trazado 1054480" d="M201.549,183.35H204.2a1.407,1.407,0,0,1,1.4,1.409v1.033a1.394,1.394,0,0,0,1.046,1.36,14.5,14.5,0,0,1,3.512,1.454,1.39,1.39,0,0,0,1.7-.225l.73-.728a1.406,1.406,0,0,1,1.992,0l1.874,1.874a1.414,1.414,0,0,1,0,1.992l-.73.728a1.392,1.392,0,0,0-.22,1.7,14.522,14.522,0,0,1,1.454,3.508,1.394,1.394,0,0,0,1.36,1.046h1.029a1.411,1.411,0,0,1,1.409,1.409v2.651a1.411,1.411,0,0,1-1.409,1.409h-1.029a1.394,1.394,0,0,0-1.36,1.046,14.579,14.579,0,0,1-1.454,3.508,1.391,1.391,0,0,0,.22,1.7l.73.73a1.409,1.409,0,0,1,0,1.988l-1.874,1.879a1.414,1.414,0,0,1-1.992,0l-.73-.73a1.392,1.392,0,0,0-1.7-.225,14.381,14.381,0,0,1-3.512,1.454,1.392,1.392,0,0,0-1.042,1.364v1.029a1.411,1.411,0,0,1-1.409,1.409h-2.655a1.411,1.411,0,0,1-1.409-1.409V216.69a1.392,1.392,0,0,0-1.042-1.364,14.5,14.5,0,0,1-3.512-1.454,1.39,1.39,0,0,0-1.7.225l-.73.73a1.414,1.414,0,0,1-1.992,0l-1.874-1.879a1.409,1.409,0,0,1,0-1.988l.73-.73a1.385,1.385,0,0,0,.22-1.7,14.452,14.452,0,0,1-1.454-3.512,1.394,1.394,0,0,0-1.36-1.046h-1.033a1.41,1.41,0,0,1-1.4-1.409v-2.651a1.41,1.41,0,0,1,1.4-1.409h1.033a1.394,1.394,0,0,0,1.36-1.046,14.464,14.464,0,0,1,1.454-3.508,1.4,1.4,0,0,0-.22-1.7l-.73-.728a1.414,1.414,0,0,1,0-1.992l1.874-1.874a1.406,1.406,0,0,1,1.992,0l.728.728a1.4,1.4,0,0,0,1.7.225,14.381,14.381,0,0,1,3.512-1.454,1.4,1.4,0,0,0,1.042-1.36v-1.033A1.409,1.409,0,0,1,201.549,183.35Z" transform="translate(-165.297 -161.423)" fill="gray" fill-rule="evenodd"/>
        <path id="Trazado_1054481" data-name="Trazado 1054481" d="M246.93,234.4a10.5,10.5,0,1,1-10.5,10.5A10.5,10.5,0,0,1,246.93,234.4Z" transform="translate(-209.327 -205.118)" fill="#b3b3b3" fill-rule="evenodd"/>
        <path id="Trazado_1054482" data-name="Trazado 1054482" d="M265.906,255.783a10.5,10.5,0,1,1-8.046-3.753A10.485,10.485,0,0,1,265.906,255.783Z" transform="translate(-218.682 -220.209)" fill="#e6e6e6" fill-rule="evenodd"/>
        <path id="Trazado_1054483" data-name="Trazado 1054483" d="M328.277,278.45a2.24,2.24,0,1,1-2.237,2.237A2.238,2.238,0,0,1,328.277,278.45Z" transform="translate(-286.027 -242.822)" fill="#fff" fill-rule="evenodd"/>
        <path id="Trazado_1054484" data-name="Trazado 1054484" d="M365.834,233.43a1.166,1.166,0,1,1-1.164,1.168A1.168,1.168,0,0,1,365.834,233.43Z" transform="translate(-319.092 -204.288)" fill="#b3b3b3" fill-rule="evenodd"/>
        <path id="Trazado_1054485" data-name="Trazado 1054485" d="M147.643,354.347l8.058,3.373c3.773,1.58,4.779,4.292,1.421,5.97l13.709-4.975c4.893-1.776,7.081,2.348,2.119,4.8l-16.788,8.3a3.4,3.4,0,0,1-2.311.274l-12.12-2.683-7.261.22.062-9.732,10.111-5.414A3.4,3.4,0,0,1,147.643,354.347Z" transform="translate(-122.056 -307.543)" fill="#ffb7b2" fill-rule="evenodd"/>
        <path id="Trazado_1054486" data-name="Trazado 1054486" d="M172.952,410.77c.049-.02-5.861,4.182-5.861,4.182L155.9,420.477a3.763,3.763,0,0,1-1.964.2l-12.2-2.724-7.261.22.016-2.286,6.678-.16,13.22,2.507c6.77-1.33,12.022-4.953,18.569-7.46Z" transform="translate(-122.056 -356.079)" fill="#ff9aa2" fill-rule="evenodd"/>
        <path id="Trazado_1054487" data-name="Trazado 1054487" d="M87.649,369.19h4.12a1.434,1.434,0,0,1,1.429,1.433v13.269a1.431,1.431,0,0,1-1.429,1.429h-4.12a1.428,1.428,0,0,1-1.429-1.429V370.623a1.434,1.434,0,0,1,1.429-1.433Z" transform="translate(-80.757 -320.49)" fill="#628cc9" fill-rule="evenodd"/>
        <path id="Trazado_1054488" data-name="Trazado 1054488" d="M87.623,369.19h2.553v16.131H87.623a1.434,1.434,0,0,1-1.433-1.429l0-13.269A1.434,1.434,0,0,1,87.623,369.19Z" transform="translate(-80.731 -320.49)" fill="#8dabd7" fill-rule="evenodd"/>
        <path id="Trazado_1054489" data-name="Trazado 1054489" d="M68.857,280.57a2.2,2.2,0,1,1-2.2,2.2A2.2,2.2,0,0,1,68.857,280.57Z" transform="translate(-64.015 -244.637)" fill="#f4dd00" fill-rule="evenodd"/>
        <path id="Trazado_1054490" data-name="Trazado 1054490" d="M50.5,126.29a2.2,2.2,0,1,1-2.2,2.2A2.2,2.2,0,0,1,50.5,126.29Z" transform="translate(-48.3 -112.583)" fill="#f4dd00" fill-rule="evenodd"/>
        <path id="Trazado_1054491" data-name="Trazado 1054491" d="M215.977,31.15a2.2,2.2,0,1,1-2.2,2.2,2.2,2.2,0,0,1,2.2-2.2Z" transform="translate(-189.94 -31.15)" fill="#f4dd00" fill-rule="evenodd"/>
        <path id="Trazado_1054492" data-name="Trazado 1054492" d="M432.927,190.74a2.58,2.58,0,1,1-2.577,2.577A2.577,2.577,0,0,1,432.927,190.74Z" transform="translate(-375.309 -167.748)" fill="#f4dd00" fill-rule="evenodd"/>
        <path id="Trazado_1054493" data-name="Trazado 1054493" d="M332.777,88.41a2.577,2.577,0,1,1-2.577,2.577A2.575,2.575,0,0,1,332.777,88.41Z" transform="translate(-289.587 -80.161)" fill="#f4dd00" fill-rule="evenodd"/>
      </g>
      <path id="Trazado_1054494" data-name="Trazado 1054494" d="M63.07,33.875v-2a1,1,0,0,1,.3-.719l2.21-2.21a3.2,3.2,0,1,1,1.5,1.351L65.088,32.29v1.585a2.131,2.131,0,0,1,1.609.63c1.062,1.057.388,2.373.719,2.462a12.561,12.561,0,0,1,3.067,1.271c.31.18.743-1.233,2.25-1.233a2.134,2.134,0,0,1,1.516.625l1.507,1.511a2.136,2.136,0,0,1,0,3.025,7.14,7.14,0,0,0-.625.657.126.126,0,0,0,.016.082,12.546,12.546,0,0,1,1.274,3.067.109.109,0,0,0,.122.089,5.432,5.432,0,0,1,1.4.082c.069.02.331-.065.632-.065h.318V40.144a1.014,1.014,0,0,1,.474-.857l2.78-2.059a3.589,3.589,0,1,1,1.2,1.612l-2.433,1.805v5.431h.318a2.423,2.423,0,0,1,2.417,2.417c0,1.939-.265,1.013,2.222,2.075a14.964,14.964,0,0,1,1.83.9.382.382,0,0,0,.481-.069c.752-.748,1.271-1.433,2.438-1.433a2.4,2.4,0,0,1,1.707.706L94.2,52.548a2.422,2.422,0,0,1,0,3.419c-1.176,1.176-1,.719-.3,2.144l5.178-1.985L99.053,54.2a3.587,3.587,0,1,1,2.005-.066l.04,2.585a1,1,0,0,1-.645,1.033l-5.783,2.217c.107.318.2.637.29.959a.386.386,0,0,0,.388.3c1.062,0,1.915-.118,2.74.706a2.427,2.427,0,0,1,.706,1.712V66.3a2.419,2.419,0,0,1-2.413,2.417v0H95.348v0a.387.387,0,0,0-.388.294A15.592,15.592,0,0,1,93.4,72.765a.375.375,0,0,0,.065.481,4,4,0,0,1,1.369,1.874c2.92.948,3.3,4.7-1.176,6.914l-16.788,8.3a4.337,4.337,0,0,1-2.974.356l-12-2.655-6.13.187v.334h0a2.445,2.445,0,0,1-2.442,2.438h-4.12a2.435,2.435,0,0,1-2.433-2.438V75.282h0a2.441,2.441,0,0,1,2.438-2.438h4.12a2.445,2.445,0,0,1,2.442,2.438h0v.568l8.661-4.639a4.729,4.729,0,0,1,1.008-.4l-.605-1.8a.383.383,0,0,0-.388-.3c-1.062,0-1.912.118-2.736-.71A2.394,2.394,0,0,1,61,66.294V63.643c0-.352.065-.29,0-.51-.245-.813.062-1.5-.184-1.569a12.626,12.626,0,0,1-3.067-1.274c-.31-.176-.743,1.238-2.25,1.238a2.12,2.12,0,0,1-1.516-.63l-1.511-1.507a2.144,2.144,0,0,1,0-3.025,6.219,6.219,0,0,0,.63-.657,4.5,4.5,0,0,0-.314-.625l-4.655,2.791L48.1,60.223a3.2,3.2,0,1,1-2.008.045l.033-2.936a1.017,1.017,0,0,1,.49-.895l5.391-3.223-.233-.719c-.187-.143-1.467.31-2.422-.65a2.136,2.136,0,0,1-.63-1.511V48.2a2.142,2.142,0,0,1,2.139-2.139,5.443,5.443,0,0,0,.911-.024l.233-.71-5.055-2.168a3.209,3.209,0,1,1,.771-1.858l5.055,2.168a4.46,4.46,0,0,0,.327-.645l-.037-.073,0,0c-.641-.641-1.213-1.091-1.213-2.1a2.132,2.132,0,0,1,.63-1.511h0l1.511-1.511A2.138,2.138,0,0,1,55.5,37v0c1.491,0,1.956,1.4,2.255,1.233a12.651,12.651,0,0,1,3.067-1.271.109.109,0,0,0,.089-.122h0v-.828h0a2.145,2.145,0,0,1,2.161-2.137Zm23.556,1a1.57,1.57,0,1,0,0,2.222A1.572,1.572,0,0,0,86.626,34.874Zm14.428,14.742a1.57,1.57,0,1,0,0,2.222A1.573,1.573,0,0,0,101.054,49.617ZM92.465,59.809a14.638,14.638,0,0,0-.8-1.621,2.408,2.408,0,0,1,.38-2.92l.73-.728a.412.412,0,0,0,0-.568L90.9,52.1a.4.4,0,0,0-.563,0c-.686.686-1.14,1.287-2.124,1.418a2.4,2.4,0,0,1-1.523-.307,13.616,13.616,0,0,0-3.267-1.351,2.407,2.407,0,0,1-1.792-2.335V48.494a.4.4,0,0,0-.4-.4H78.576a.4.4,0,0,0-.4.4v1.029h0a2.411,2.411,0,0,1-1.8,2.335A13.483,13.483,0,0,0,73.12,53.21a2.408,2.408,0,0,1-2.92-.38l-.728-.73a.408.408,0,0,0-.568,0L67.03,53.973h0a.416.416,0,0,0-.114.285h0c0,.5,1.351.975,1.54,2.406a2.434,2.434,0,0,1-.307,1.523,13.236,13.236,0,0,0-1.351,3.267,2.407,2.407,0,0,1-2.335,1.792H63.426a.4.4,0,0,0-.4.4V66.3a.4.4,0,0,0,.4.4,3.562,3.562,0,0,1,2.5.5,2.41,2.41,0,0,1,.866,1.3,12.692,12.692,0,0,0,.853,2.319,5.136,5.136,0,0,1,.654.22l2.658,1.111a11.506,11.506,0,1,1,8.465,4.292,3.513,3.513,0,0,1,1,2.7l5.545-2.013a6.28,6.28,0,0,1,1.458-.661,2.091,2.091,0,0,1,.51-.049l2.818-1.024a8.521,8.521,0,0,1,1.589-.412,2.657,2.657,0,0,1-.988-1.691,2.417,2.417,0,0,1,.31-1.523,13.576,13.576,0,0,0,1.351-3.267A2.4,2.4,0,0,1,95.351,66.7v0h1.033v0a.4.4,0,0,0,.4-.4V63.65a.4.4,0,0,0-.4-.4,3.57,3.57,0,0,1-2.5-.5,2.4,2.4,0,0,1-.862-1.3,13.309,13.309,0,0,0-.553-1.647ZM69.208,26.516a1.189,1.189,0,1,0,0,1.683A1.192,1.192,0,0,0,69.208,26.516ZM45.367,40.221a1.189,1.189,0,1,0,0,1.683A1.19,1.19,0,0,0,45.367,40.221Zm2.642,22.228a1.189,1.189,0,1,0,0,1.683A1.19,1.19,0,0,0,48.009,62.449ZM60.518,47.093a1.007,1.007,0,0,1,1.425-1.425l2.173,2.173,2.177-2.173a1.007,1.007,0,0,1,1.425,1.425l-2.173,2.173,1.67,1.674a2.545,2.545,0,0,1,1.972-.972,2.4,2.4,0,0,1,1.209.323,6.345,6.345,0,1,0-5.162,5.2,2.439,2.439,0,0,1-.334-1.229,2.412,2.412,0,0,1,.706-1.707v0l.184-.184-1.674-1.67-2.173,2.173a1.008,1.008,0,0,1-1.425-1.425l2.173-2.177Zm14.338,20.2a1.005,1.005,0,1,1,1.262-1.565l2.891,2.315,4.427-8.156a1.008,1.008,0,1,1,1.772.961l-5,9.213a1.014,1.014,0,0,1-1.516.3ZM55.777,82.385v3.826l6.195-.187a.833.833,0,0,1,.245.024l12.12,2.683a2.43,2.43,0,0,0,1.65-.2l16.788-8.3c1.4-.69,2.083-1.462,2.226-2.115a.808.808,0,0,0-.416-.915,3.988,3.988,0,0,0-3.141.073L77.734,82.251a1,1,0,0,1-.674,0l-10.013-3.5a1.005,1.005,0,1,1,.661-1.9l9.6,3.348c1.1-.657,1.536-1.42.6-2.455a6.646,6.646,0,0,0-2.319-1.491l-8.058-3.373a2.408,2.408,0,0,0-2.139.1L55.8,78.116Zm-2.438-7.517h-4.12a.425.425,0,0,0-.421.421h0V88.561a.432.432,0,0,0,.425.421h4.12a.426.426,0,0,0,.425-.421h0V87.279m0-.058V75.288h0a.426.426,0,0,0-.425-.421m33.3-16.638a9.489,9.489,0,1,0,0,13.42A9.485,9.485,0,0,0,86.638,58.229ZM62.891,61.292c.948-.216,1.8.2,1.952-.359a15.67,15.67,0,0,1,1.487-3.626,8.362,8.362,0,1,1,5.876-5.894,15.586,15.586,0,0,1,3.659-1.5.379.379,0,0,0,.3-.388h0V48.494h0a2.3,2.3,0,0,1,.04-.445,2.136,2.136,0,0,1-1.732-1.56,10.44,10.44,0,0,0-1.066-2.582,2.134,2.134,0,0,1,.339-2.582l.583-.588a.123.123,0,0,0,0-.176l-1.507-1.507c-.258-.258-.7,1.024-2,1.193a2.146,2.146,0,0,1-1.351-.269,10.714,10.714,0,0,0-2.577-1.07,2.13,2.13,0,0,1-1.589-2.066v-.828a.126.126,0,0,0-.122-.122H63.048a.126.126,0,0,0-.122.122h0v.828h0a2.13,2.13,0,0,1-1.589,2.066,10.69,10.69,0,0,0-2.577,1.07,2.138,2.138,0,0,1-2.585-.339l-.588-.583a.128.128,0,0,0-.089-.037v0a.113.113,0,0,0-.086.04L53.9,40.562l0,0a.138.138,0,0,0,0,.18l.583.588a2.133,2.133,0,0,1,.339,2.582,10.561,10.561,0,0,0-1.066,2.582,2.139,2.139,0,0,1-2.07,1.589h-.828a.126.126,0,0,0-.122.122v2.137c0,.363,1.225-.229,2.255.563a2.148,2.148,0,0,1,.768,1.148,9.97,9.97,0,0,0,.445,1.323l.621,1.253a2.138,2.138,0,0,1-.339,2.585l-.583.588a.123.123,0,0,0,0,.176l1.507,1.507c.258.258.7-1.024,2-1.2a2.149,2.149,0,0,1,1.351.274,10.53,10.53,0,0,0,2.577,1.066A2.143,2.143,0,0,1,62.891,61.292Z"/>
    </g>
  </g>
</svg>
