<svg xmlns="http://www.w3.org/2000/svg" xmlns:xlink="http://www.w3.org/1999/xlink" width="113" height="113" viewBox="0 0 113 113">
  <defs>
    <filter id="Trazado_982547" x="0" y="0" width="113" height="113" filterUnits="userSpaceOnUse">
      <feOffset dy="3" input="SourceAlpha"/>
      <feGaussianBlur stdDeviation="3" result="blur"/>
      <feFlood flood-opacity="0.161"/>
      <feComposite operator="in" in2="blur"/>
      <feComposite in="SourceGraphic"/>
    </filter>
  </defs>
  <g id="Grupo_1226077" data-name="Grupo 1226077" transform="translate(-1979.51 -6641.041)">
    <g id="Grupo_1225737" data-name="Grupo 1225737" transform="translate(1988.51 6647.041)">
      <g id="Grupo_1224583" data-name="Grupo 1224583" transform="translate(0 0)">
        <g id="Grupo_1224450" data-name="Grupo 1224450" transform="translate(0)">
          <g id="Grupo_1224085" data-name="Grupo 1224085">
            <g id="Grupo_1223184" data-name="Grupo 1223184">
              <g id="Grupo_1211216" data-name="Grupo 1211216">
                <g id="Grupo_1210737" data-name="Grupo 1210737">
                  <g id="Grupo_1210537" data-name="Grupo 1210537">
                    <g id="Grupo_1164202" data-name="Grupo 1164202">
                      <g id="Grupo_1158168" data-name="Grupo 1158168">
                        <g id="Grupo_1152576" data-name="Grupo 1152576">
                          <g id="Grupo_1148633" data-name="Grupo 1148633">
                            <g id="Grupo_1148525" data-name="Grupo 1148525">
                              <g transform="matrix(1, 0, 0, 1, -9, -6)" filter="url(#Trazado_982547)">
                                <g id="Trazado_982547-2" data-name="Trazado 982547" transform="translate(9 6)" fill="#fef9e5">
                                  <path d="M 47.49999237060547 93.49999237060547 C 41.28937911987305 93.49999237060547 35.26532745361328 92.28396606445312 29.59519195556641 89.88569641113281 C 24.11772537231445 87.56892395019531 19.19813919067383 84.251953125 14.97309875488281 80.02690124511719 C 10.74804592132568 75.80185699462891 7.431072235107422 70.88227081298828 5.114298820495605 65.40480804443359 C 2.716032266616821 59.73465728759766 1.500005722045898 53.71060562133789 1.500005722045898 47.49999237060547 C 1.500005722045898 41.28937911987305 2.716032266616821 35.26532745361328 5.114298820495605 29.59517860412598 C 7.431072235107422 24.11771202087402 10.74804592132568 19.1981258392334 14.97309875488281 14.97308540344238 C 19.19813919067383 10.74804592132568 24.11772537231445 7.431072235107422 29.59519195556641 5.114298820495605 C 35.26532745361328 2.716032266616821 41.28937911987305 1.500005722045898 47.49999237060547 1.500005722045898 C 53.71062088012695 1.500005722045898 59.73465728759766 2.716032266616821 65.40480804443359 5.114298820495605 C 70.88227081298828 7.431072235107422 75.80185699462891 10.74804592132568 80.02690124511719 14.97308540344238 C 84.251953125 19.1981258392334 87.56892395019531 24.11771202087402 89.88569641113281 29.59517860412598 C 92.28396606445312 35.26532745361328 93.49999237060547 41.28937911987305 93.49999237060547 47.49999237060547 C 93.49999237060547 53.71062088012695 92.28396606445312 59.73465728759766 89.88569641113281 65.40480804443359 C 87.56892395019531 70.88227081298828 84.251953125 75.80185699462891 80.02690124511719 80.02690124511719 C 75.80185699462891 84.251953125 70.88227081298828 87.56892395019531 65.40480804443359 89.88569641113281 C 59.73465728759766 92.28396606445312 53.71062088012695 93.49999237060547 47.49999237060547 93.49999237060547 Z" stroke="none"/>
                                  <path d="M 47.49999237060547 2.999992370605469 C 41.49120712280273 2.999992370605469 35.66376113891602 4.1761474609375 30.17951202392578 6.49578857421875 C 24.88083648681641 8.736946105957031 20.12151336669922 11.94597625732422 16.03374481201172 16.03374481201172 C 11.94597625732422 20.12151336669922 8.736946105957031 24.88083648681641 6.49578857421875 30.17949676513672 C 4.1761474609375 35.66376113891602 2.999992370605469 41.49120712280273 2.999992370605469 47.49999237060547 C 2.999992370605469 53.5087776184082 4.1761474609375 59.33622360229492 6.49578857421875 64.82046508789062 C 8.736946105957031 70.11914825439453 11.94597625732422 74.87847137451172 16.03374481201172 78.96623992919922 C 20.12151336669922 83.05400848388672 24.88083648681641 86.26303863525391 30.17951202392578 88.50418090820312 C 35.66376113891602 90.82382202148438 41.49120712280273 91.99997711181641 47.49999237060547 91.99997711181641 C 53.5087776184082 91.99997711181641 59.33622360229492 90.82382202148438 64.82046508789062 88.50418090820312 C 70.11914825439453 86.26303863525391 74.87847137451172 83.05400848388672 78.96623992919922 78.96623992919922 C 83.05400848388672 74.87847137451172 86.26303863525391 70.11914825439453 88.50418090820312 64.82046508789062 C 90.82382202148438 59.33622360229492 91.99997711181641 53.5087776184082 91.99997711181641 47.49999237060547 C 91.99997711181641 41.49120712280273 90.82382202148438 35.66376113891602 88.50418090820312 30.17949676513672 C 86.26303863525391 24.88083648681641 83.05400848388672 20.12151336669922 78.96623992919922 16.03374481201172 C 74.87847137451172 11.94597625732422 70.11914825439453 8.736946105957031 64.82046508789062 6.49578857421875 C 59.33622360229492 4.1761474609375 53.5087776184082 2.999992370605469 47.49999237060547 2.999992370605469 M 47.49999237060547 -7.62939453125e-06 C 73.73351287841797 -7.62939453125e-06 94.99997711181641 21.26647186279297 94.99997711181641 47.49999237060547 C 94.99997711181641 73.73351287841797 73.73351287841797 94.99997711181641 47.49999237060547 94.99997711181641 C 21.26648712158203 94.99997711181641 -7.62939453125e-06 73.73351287841797 -7.62939453125e-06 47.49999237060547 C -7.62939453125e-06 21.26647186279297 21.26648712158203 -7.62939453125e-06 47.49999237060547 -7.62939453125e-06 Z" stroke="none" fill="#f6c810"/>
                                </g>
                              </g>
                            </g>
                          </g>
                        </g>
                      </g>
                    </g>
                  </g>
                </g>
              </g>
            </g>
          </g>
        </g>
      </g>
    </g>
    <g id="security_10280494" transform="translate(2003.368 6661.407)">
      <g id="Grupo_1226076" data-name="Grupo 1226076" transform="translate(1.027 1.027)">
        <path id="Trazado_1054495" data-name="Trazado 1054495" d="M46.045,14.108a26.55,26.55,0,0,1,8.24,3.416l2.2-1.12,3.522-1.8,2.8,2.8,2.8,2.8-1.8,3.522-1.124,2.2A26.5,26.5,0,0,1,66.1,34.164l2.346.764,3.761,1.223v7.91l-3.761,1.223-2.346.761a26.55,26.55,0,0,1-3.416,8.24l1.124,2.2,1.8,3.522-2.8,2.8-2.8,2.8-3.522-1.8-2.2-1.124a26.55,26.55,0,0,1-8.24,3.416l-.761,2.346L44.06,72.208H36.148l-1.219-3.761L34.165,66.1a26.55,26.55,0,0,1-8.24-3.416l-2.2,1.124L20.2,65.6l-2.8-2.8-2.8-2.8,1.8-3.522,1.12-2.2a26.563,26.563,0,0,1-3.416-8.24l-2.346-.761L8,44.06v-7.91l3.761-1.223,2.35-.764a26.409,26.409,0,0,1,3.412-8.237l-1.12-2.2L14.6,20.2l2.8-2.8,2.8-2.8,3.522,1.8,2.2,1.12a26.5,26.5,0,0,1,8.237-3.416l.764-2.346L36.148,8H44.06l1.223,3.761Z" transform="translate(-8 -8)" fill="#bec7cf" fill-rule="evenodd"/>
        <path id="Trazado_1054496" data-name="Trazado 1054496" d="M148.061,132.01a16.051,16.051,0,1,1-16.051,16.051A16.051,16.051,0,0,1,148.061,132.01Z" transform="translate(-115.957 -115.957)" fill="#eaf6ff" fill-rule="evenodd"/>
        <path id="Trazado_1054497" data-name="Trazado 1054497" d="M188.25,179.441v10.721c0,4.511,4.642,7.3,8.77,7.3s8.773-2.8,8.773-7.3V179.441l-8.773-2.421Z" transform="translate(-164.916 -155.14)" fill="#3c3" fill-rule="evenodd"/>
        <path id="Trazado_1054498" data-name="Trazado 1054498" d="M148.061,132.01c.419,0,.832.018,1.24.047a16.052,16.052,0,0,0,0,32.008c-.409.032-.821.047-1.24.047a16.051,16.051,0,1,1,0-32.1Z" transform="translate(-115.957 -115.957)" fill="#d3dde6" fill-rule="evenodd"/>
        <g id="Grupo_1226075" data-name="Grupo 1226075">
          <path id="Trazado_1054499" data-name="Trazado 1054499" d="M157.83,16.663a26.556,26.556,0,0,1,6.769-2.555l.764-2.346L166.582,8h3.16l-1.219,3.761-.764,2.346a26.51,26.51,0,0,0-8.237,3.416Z" transform="translate(-138.434 -8)" fill="#abb3ba" fill-rule="evenodd"/>
          <path id="Trazado_1054500" data-name="Trazado 1054500" d="M22.294,108.952,20.2,110.019l-2.8-2.8-2.8-2.8,1.8-3.522,1.12-2.2a26.563,26.563,0,0,1-3.416-8.24L11.763,89.7,8,88.476v-7.91l3.761-1.223,2.35-.764a26.409,26.409,0,0,1,3.412-8.237l-1.12-2.2-1.8-3.522,2.8-2.8,2.8-2.8,2.093,1.071-1.731,1.728-2.8,2.8,1.8,3.522,1.12,2.2A26.4,26.4,0,0,0,17.27,78.58l-2.35.764L11.16,80.567v7.908L14.921,89.7l2.346.761a26.55,26.55,0,0,0,3.416,8.24l-1.12,2.2-1.8,3.522,2.8,2.8Z" transform="translate(-8 -52.415)" fill="#abb3ba" fill-rule="evenodd"/>
          <path id="Trazado_1054501" data-name="Trazado 1054501" d="M169.742,439.963h-3.16l-1.219-3.761-.764-2.346a26.317,26.317,0,0,1-6.769-2.555l1.688-.861a26.551,26.551,0,0,0,8.24,3.416l.764,2.346Z" transform="translate(-138.434 -375.754)" fill="#abb3ba" fill-rule="evenodd"/>
        </g>
      </g>
      <path id="Trazado_1054502" data-name="Trazado 1054502" d="M65.556,28.19,60,26.384a27.459,27.459,0,0,0-3.1-7.48L59.553,13.7a1.039,1.039,0,0,0-.19-1.205L53.767,6.9a1.037,1.037,0,0,0-1.2-.19L47.358,9.365a27.435,27.435,0,0,0-7.48-3.1L38.072.706a1.036,1.036,0,0,0-.986-.716H29.174a1.038,1.038,0,0,0-.986.716L26.381,6.263a27.469,27.469,0,0,0-7.48,3.1L13.7,6.712a1.037,1.037,0,0,0-1.2.19L6.9,12.5a1.036,1.036,0,0,0-.19,1.205l2.656,5.205a27.483,27.483,0,0,0-3.1,7.48L.706,28.19a1.036,1.036,0,0,0-.716.986v7.912a1.038,1.038,0,0,0,.716.986l5.557,1.806a27.469,27.469,0,0,0,3.1,7.48L6.709,52.566a1.037,1.037,0,0,0,.19,1.2l5.6,5.6a1.035,1.035,0,0,0,1.2.19l3.521-1.8L18.9,56.9a27.537,27.537,0,0,0,7.48,3.1L28.19,65.56a1.036,1.036,0,0,0,.986.716h7.912a1.038,1.038,0,0,0,.986-.716L39.881,60a27.513,27.513,0,0,0,7.48-3.1l5.205,2.654a1.037,1.037,0,0,0,1.2-.19l5.6-5.6a1.034,1.034,0,0,0,.19-1.2L56.9,47.362a27.435,27.435,0,0,0,3.1-7.48l5.557-1.806a1.036,1.036,0,0,0,.716-.986V29.178a1.041,1.041,0,0,0-.718-.988ZM64.2,36.334l-5.393,1.753a1.035,1.035,0,0,0-.69.756,25.388,25.388,0,0,1-3.283,7.916,1.04,1.04,0,0,0-.047,1.024l2.579,5.054-4.53,4.53-5.055-2.575a1.035,1.035,0,0,0-1.021.047,25.469,25.469,0,0,1-7.917,3.279,1.037,1.037,0,0,0-.756.69L36.334,64.2H29.928l-1.753-5.393a1.035,1.035,0,0,0-.756-.69A25.481,25.481,0,0,1,19.5,54.838a1.038,1.038,0,0,0-1.021-.047l-5.055,2.575L8.9,52.836l2.579-5.054a1.037,1.037,0,0,0-.047-1.024,25.482,25.482,0,0,1-3.28-7.917,1.037,1.037,0,0,0-.69-.756L2.063,36.334V29.928l5.393-1.753a1.035,1.035,0,0,0,.69-.756A25.412,25.412,0,0,1,11.428,19.5a1.04,1.04,0,0,0,.047-1.024L8.9,13.428,13.428,8.9l5.053,2.575A1.037,1.037,0,0,0,19.5,11.43a25.406,25.406,0,0,1,7.916-3.283,1.037,1.037,0,0,0,.756-.69l1.751-5.394h6.405l1.753,5.393a1.035,1.035,0,0,0,.756.69,25.388,25.388,0,0,1,7.916,3.283,1.04,1.04,0,0,0,1.024.047L52.835,8.9l4.531,4.527L54.787,18.48a1.037,1.037,0,0,0,.047,1.024,25.442,25.442,0,0,1,3.283,7.916,1.04,1.04,0,0,0,.69.756L64.2,29.928ZM33.131,16.043A17.088,17.088,0,1,0,50.219,33.131,17.107,17.107,0,0,0,33.131,16.043Zm0,32.1A15.014,15.014,0,1,1,48.145,33.131,15.031,15.031,0,0,1,33.131,48.145Zm9.046-23.814-8.77-2.422a1.023,1.023,0,0,0-.551,0l-8.77,2.422a1.038,1.038,0,0,0-.761,1V36.053a7.66,7.66,0,0,0,3.251,6.17,10.992,10.992,0,0,0,13.113,0,7.658,7.658,0,0,0,3.251-6.17V25.33a1.037,1.037,0,0,0-.761-1ZM40.864,36.051c0,3.748-4,6.265-7.733,6.265S25.4,39.8,25.4,36.051V26.119l7.733-2.136,7.733,2.136Zm-8.588-1.307L37.7,29.319a1.037,1.037,0,0,1,1.467,1.465l-6.161,6.158a1.036,1.036,0,0,1-1.465,0L27.095,32.49a1.036,1.036,0,0,1,1.465-1.465Z" transform="translate(0 0)"/>
    </g>
  </g>
</svg>
