<svg xmlns="http://www.w3.org/2000/svg" xmlns:xlink="http://www.w3.org/1999/xlink" width="103" height="103" viewBox="0 0 103 103">
  <defs>
    <filter id="Trazado_978624" x="0" y="0" width="103" height="103" filterUnits="userSpaceOnUse">
      <feOffset dy="3" input="SourceAlpha"/>
      <feGaussianBlur stdDeviation="3" result="blur"/>
      <feFlood flood-opacity="0.161"/>
      <feComposite operator="in" in2="blur"/>
      <feComposite in="SourceGraphic"/>
    </filter>
  </defs>
  <g id="Grupo_1225739" data-name="Grupo 1225739" transform="translate(-171 -2866)">
    <g id="Grupo_1176881" data-name="Grupo 1176881">
      <g id="Grupo_1175148" data-name="Grupo 1175148" transform="translate(0 1580)">
        <g id="Grupo_1173798" data-name="Grupo 1173798" transform="translate(-3 -3520)">
          <g id="Grupo_1171925" data-name="Grupo 1171925" transform="translate(-22 -2246)">
            <g id="Grupo_1164524" data-name="Grupo 1164524" transform="translate(205 7058)">
              <g id="Grupo_1144123" data-name="Grupo 1144123">
                <g transform="matrix(1, 0, 0, 1, -9, -6)" filter="url(#Trazado_978624)">
                  <g id="Trazado_978624-2" data-name="Trazado 978624" transform="translate(9 6)" fill="#edf3fc">
                    <path d="M 42.5 83.5 C 36.96437835693359 83.5 31.59512901306152 82.41617584228516 26.54141235351562 80.27863311767578 C 21.65934181213379 78.21369171142578 17.27447128295898 75.25723266601562 13.50862312316895 71.49137878417969 C 9.742764472961426 67.72553253173828 6.786305904388428 63.34066009521484 4.721364498138428 58.45858764648438 C 2.583823442459106 53.40486907958984 1.5 48.03562164306641 1.5 42.5 C 1.5 36.96437835693359 2.583823442459106 31.59512901306152 4.721364498138428 26.54141235351562 C 6.786305904388428 21.65934181213379 9.742764472961426 17.27447128295898 13.50862312316895 13.50862312316895 C 17.27447128295898 9.742764472961426 21.65934181213379 6.786305904388428 26.54141235351562 4.721364498138428 C 31.59512901306152 2.583823442459106 36.96437835693359 1.5 42.5 1.5 C 48.03562164306641 1.5 53.40486907958984 2.583823442459106 58.45858764648438 4.721364498138428 C 63.34066009521484 6.786305904388428 67.72553253173828 9.742764472961426 71.49137878417969 13.50862312316895 C 75.25723266601562 17.27447128295898 78.21369171142578 21.65934181213379 80.27863311767578 26.54141235351562 C 82.41617584228516 31.59512901306152 83.5 36.96437835693359 83.5 42.5 C 83.5 48.03562164306641 82.41617584228516 53.40486907958984 80.27863311767578 58.45858764648438 C 78.21369171142578 63.34066009521484 75.25723266601562 67.72553253173828 71.49137878417969 71.49137878417969 C 67.72553253173828 75.25723266601562 63.34066009521484 78.21369171142578 58.45858764648438 80.27863311767578 C 53.40486907958984 82.41617584228516 48.03562164306641 83.5 42.5 83.5 Z" stroke="none"/>
                    <path d="M 42.5 3 C 37.16621398925781 3 31.99356079101562 4.043960571289062 27.125732421875 6.102882385253906 C 22.42246627807617 8.092185974121094 18.19785308837891 10.94070434570312 14.56928253173828 14.56928253173828 C 10.94070434570312 18.19785308837891 8.092185974121094 22.42246627807617 6.102882385253906 27.125732421875 C 4.043960571289062 31.99356079101562 3 37.16621398925781 3 42.5 C 3 47.83378601074219 4.043960571289062 53.00643920898438 6.102882385253906 57.87425231933594 C 8.092185974121094 62.57753372192383 10.94070434570312 66.80213165283203 14.56928253173828 70.43071746826172 C 18.19786834716797 74.05929565429688 22.42246627807617 76.90781402587891 27.125732421875 78.89711761474609 C 31.99356079101562 80.95603942871094 37.16621398925781 82 42.5 82 C 47.83378601074219 82 53.00642395019531 80.95603942871094 57.87425231933594 78.89711761474609 C 62.57753372192383 76.90781402587891 66.80213165283203 74.05929565429688 70.43071746826172 70.43071746826172 C 74.05929565429688 66.80213165283203 76.90781402587891 62.57753372192383 78.89711761474609 57.87425231933594 C 80.95603942871094 53.00642395019531 82 47.83378601074219 82 42.5 C 82 37.16621398925781 80.95603942871094 31.99356079101562 78.89711761474609 27.125732421875 C 76.90781402587891 22.42246627807617 74.05929565429688 18.19786834716797 70.43071746826172 14.56928253173828 C 66.80213165283203 10.94070434570312 62.57753372192383 8.092185974121094 57.87425231933594 6.102882385253906 C 53.00643920898438 4.043960571289062 47.83378601074219 3 42.5 3 M 42.5 0 C 65.97209167480469 0 85 19.02789306640625 85 42.5 C 85 65.97209167480469 65.97209167480469 85 42.5 85 C 19.02789306640625 85 0 65.97209167480469 0 42.5 C 0 19.02789306640625 19.02789306640625 0 42.5 0 Z" stroke="none" fill="#11f5d8"/>
                  </g>
                </g>
              </g>
            </g>
          </g>
        </g>
      </g>
      <g id="search_9051890" transform="translate(195.904 2886.212)">
        <g id="Layer1" transform="translate(0.877 1.832)">
          <g id="Grupo_1226069" data-name="Grupo 1226069" transform="translate(0 13.31)">
            <path id="Trazado_1054445" data-name="Trazado 1054445" d="M49.257,22.991V47.947H6V22.991A4.991,4.991,0,0,1,10.991,18H44.266A4.991,4.991,0,0,1,49.257,22.991Z" transform="translate(-1.89 -18)" fill="gray"/>
            <path id="Trazado_1054446" data-name="Trazado 1054446" d="M10,48.62V23.664A1.665,1.665,0,0,1,11.664,22H44.939A1.665,1.665,0,0,1,46.6,23.664V48.62" transform="translate(-2.562 -18.673)" fill="#fff"/>
            <path id="Trazado_1054447" data-name="Trazado 1054447" d="M52.635,55.664a5,5,0,0,1-4.991,4.991H6.05a5,5,0,0,1-4.991-4.991,1.627,1.627,0,0,1,.491-1.173A1.627,1.627,0,0,1,2.723,54H50.971A1.669,1.669,0,0,1,52.635,55.664Z" transform="translate(-1.059 -24.053)" fill="#d3d3d3"/>
          </g>
          <path id="Trazado_1054448" data-name="Trazado 1054448" d="M25.346,54s-.239,2.5,5.584,2.5S36.753,54,36.753,54Z" transform="translate(-5.142 -10.743)" fill="gray" stroke="#7de0ff" stroke-linecap="round" stroke-linejoin="round" stroke-miterlimit="1.5" stroke-width="0.1" fill-rule="evenodd"/>
          <path id="Trazado_1054449" data-name="Trazado 1054449" d="M40.956,28H17.664A1.663,1.663,0,0,0,16,29.664v4.991a1.663,1.663,0,0,0,1.664,1.664H40.956a1.663,1.663,0,0,0,1.664-1.664V29.664A1.663,1.663,0,0,0,40.956,28Z" transform="translate(-3.571 -6.371)" fill="#ffb246"/>
          <path id="Trazado_1054450" data-name="Trazado 1054450" d="M26.487,31.488l-.244-.244a.832.832,0,0,0-1.176,1.176l.244.244-.244.244a.832.832,0,0,0,1.176,1.176l.244-.244.244.244a.832.832,0,0,0,1.176-1.176l-.244-.244.244-.244a.832.832,0,0,0-1.176-1.176Zm-5.823,0-.244-.244a.832.832,0,0,0-1.176,1.176l.244.244-.244.244a.832.832,0,0,0,1.176,1.176l.244-.244.244.244a.832.832,0,1,0,1.176-1.176l-.244-.244.244-.244a.832.832,0,0,0-1.176-1.176Z" transform="translate(-4.075 -6.876)" fill="#fff" fill-rule="evenodd"/>
          <path id="Trazado_1054451" data-name="Trazado 1054451" d="M56.947,16.974A14.974,14.974,0,1,1,41.974,2,14.974,14.974,0,0,1,56.947,16.974" transform="translate(-5.42 -2)" fill="#52ce5c"/>
          <path id="Trazado_1054452" data-name="Trazado 1054452" d="M54.292,17.646A11.646,11.646,0,1,0,42.646,29.292,11.652,11.652,0,0,0,54.292,17.646Z" transform="translate(-6.093 -2.673)" fill="#fff" fill-rule="evenodd"/>
        </g>
        <g id="ICON" transform="translate(-0.024 1)">
          <path id="Trazado_1054453" data-name="Trazado 1054453" d="M21.8,14.31A15.806,15.806,0,1,1,49.057,27.487V44.257H50.72a2.5,2.5,0,0,1,2.5,2.5,5.83,5.83,0,0,1-5.823,5.823H5.8A5.828,5.828,0,0,1-.024,46.753a2.455,2.455,0,0,1,.735-1.761,2.453,2.453,0,0,1,1.761-.735H4.135V20.133A5.823,5.823,0,0,1,9.958,14.31ZM33.06,45.921a3.212,3.212,0,0,1-1.343,1.361A10.631,10.631,0,0,1,26.6,48.417a10.628,10.628,0,0,1-5.12-1.135,3.219,3.219,0,0,1-1.344-1.361H2.472a.8.8,0,0,0-.576.239l-.016.017a.8.8,0,0,0-.24.576A4.163,4.163,0,0,0,5.8,50.912H47.393a4.167,4.167,0,0,0,4.159-4.159.834.834,0,0,0-.832-.832Zm-2.318,0H22.45a9.218,9.218,0,0,0,4.146.832A9.225,9.225,0,0,0,30.743,45.921Zm8.042-13.369a2.532,2.532,0,0,1-.542.059H14.95a2.5,2.5,0,0,1-2.5-2.5V25.124a2.5,2.5,0,0,1,2.5-2.5h7.764A15.7,15.7,0,0,1,21.8,19.3H9.958a.833.833,0,0,0-.832.832V44.257H44.065V31.144A15.7,15.7,0,0,1,38.785,32.552ZM21.626,15.974H9.958A4.159,4.159,0,0,0,5.8,20.133V44.257H7.463V20.133a2.5,2.5,0,0,1,2.5-2.5H21.626q-.021-.413-.022-.832T21.626,15.974ZM47.393,29.057a15.883,15.883,0,0,1-1.664,1.188V44.257h1.664ZM13.286,40.93h.832a.832.832,0,1,0,0-1.664h-.832a.832.832,0,1,0,0,1.664Zm14.142,0h.832a.832.832,0,1,0,0-1.664h-.832a.832.832,0,1,0,0,1.664Zm-9.982,0H24.1a.832.832,0,1,0,0-1.664H17.445a.832.832,0,1,0,0,1.664Zm20.8,0h1.664a.832.832,0,1,0,0-1.664H38.242a.832.832,0,1,0,0,1.664Zm-6.655,0a.832.832,0,1,1,0-1.664h3.327a.832.832,0,0,1,.006,1.664H31.587Zm8.319-5.823H34.915a.832.832,0,1,0,0,1.664h4.991a.832.832,0,1,0,0-1.664Zm-8.319,0h-.832a.832.832,0,1,0,0,1.664h.832a.832.832,0,1,0,0-1.664Zm-16.637,0H13.286a.832.832,0,1,0,0,1.664H14.95a.832.832,0,1,0,0-1.664Zm12.478,0H25.764a.832.832,0,1,0,0,1.664h1.664a.832.832,0,1,0,0-1.664Zm-4.991,0H18.277a.832.832,0,1,0,0,1.664h4.159a.832.832,0,1,0,0-1.664ZM23.49,24.292H14.95a.832.832,0,0,0-.832.832v4.991a.832.832,0,0,0,.832.832h15.4a15.9,15.9,0,0,1-6.859-6.655Zm28.062-7.487A14.142,14.142,0,1,1,37.41,2.664,14.148,14.148,0,0,1,51.552,16.806Zm-1.664,0A12.478,12.478,0,1,0,37.41,29.284,12.484,12.484,0,0,0,49.888,16.806ZM43.5,7.873a10.81,10.81,0,0,0-11.857-.218h2.435a.832.832,0,1,1,0,1.664H29.923a.83.83,0,0,1-.27-.045A10.894,10.894,0,0,0,28.3,10.982h.794a.832.832,0,0,1,0,1.664H27.426a10.707,10.707,0,0,0-.54,1.664h.542a.832.832,0,1,1,0,1.664h-.8q-.031.412-.032.832t.032.832h2.464a.832.832,0,1,1,0,1.664H26.886a10.736,10.736,0,0,0,.54,1.664h2.5a.832.832,0,0,1,0,1.664H28.3a10.894,10.894,0,0,0,1.355,1.709.83.83,0,0,1,.27-.045h.832a.832.832,0,0,1,.562,1.446,10.81,10.81,0,0,0,11.857.218H40.738a.832.832,0,1,1,0-1.664H44.9a.83.83,0,0,1,.27.045,10.846,10.846,0,0,0,1.355-1.709h-.794a.832.832,0,1,1,0-1.664h1.665a10.622,10.622,0,0,0,.541-1.664h-.542a.832.832,0,0,1,0-1.664h.8q.031-.412.032-.832t-.032-.832H45.729a.832.832,0,1,1,0-1.664h2.206a10.65,10.65,0,0,0-.541-1.664H44.9a.832.832,0,1,1,0-1.664h1.625a10.894,10.894,0,0,0-1.355-1.709.83.83,0,0,1-.27.045h-.832A.831.831,0,0,1,43.5,7.873ZM37.41,24.292H34.083a.832.832,0,0,0,0,1.664H37.41a.832.832,0,1,0,0-1.664Zm-4.159-1.664h1.664a.832.832,0,1,0,0-1.664H33.251a.832.832,0,1,0,0,1.664Zm4.991,0H42.4a.832.832,0,1,0,0-1.664H38.242a.832.832,0,1,0,0,1.664Zm-4.159-4.991H32.419a.832.832,0,1,0,0,1.664h1.664a.832.832,0,1,0,0-1.664Zm9.982,0H37.41a.832.832,0,1,0,0,1.664h6.655a.832.832,0,0,0,0-1.664Zm-13.31-1.664h2.5a.832.832,0,0,0,0-1.664h-2.5a.832.832,0,0,0,0,1.664Zm5.823,0h.832a.832.832,0,1,0,0-1.664h-.832a.832.832,0,0,0,0,1.664Zm4.159,0H42.4a.832.832,0,1,0,0-1.664H40.738a.832.832,0,1,0,0,1.664Zm-4.159-4.991H32.419a.832.832,0,1,0,0,1.664h4.159a.832.832,0,1,0,0-1.664Zm4.991,0H39.906a.832.832,0,0,0,0,1.664H41.57a.832.832,0,0,0,0-1.664ZM37.41,9.319h3.327a.832.832,0,1,0,0-1.664H37.41a.832.832,0,1,0,0,1.664Z" transform="translate(0.024 -1)" fill="#4d0d19" fill-rule="evenodd"/>
        </g>
      </g>
    </g>
  </g>
</svg>
