<svg xmlns="http://www.w3.org/2000/svg" xmlns:xlink="http://www.w3.org/1999/xlink" width="103" height="103" viewBox="0 0 103 103">
  <defs>
    <filter id="Trazado_978624" x="0" y="0" width="103" height="103" filterUnits="userSpaceOnUse">
      <feOffset dy="3" input="SourceAlpha"/>
      <feGaussianBlur stdDeviation="3" result="blur"/>
      <feFlood flood-opacity="0.161"/>
      <feComposite operator="in" in2="blur"/>
      <feComposite in="SourceGraphic"/>
    </filter>
  </defs>
  <g id="Grupo_1225658" data-name="Grupo 1225658" transform="translate(-171 -2866)">
    <g id="Grupo_1176881" data-name="Grupo 1176881">
      <g id="Grupo_1175148" data-name="Grupo 1175148" transform="translate(0 1580)">
        <g id="Grupo_1173798" data-name="Grupo 1173798" transform="translate(-3 -3520)">
          <g id="Grupo_1171925" data-name="Grupo 1171925" transform="translate(-22 -2246)">
            <g id="Grupo_1164524" data-name="Grupo 1164524" transform="translate(205 7058)">
              <g id="Grupo_1144123" data-name="Grupo 1144123">
                <g transform="matrix(1, 0, 0, 1, -9, -6)" filter="url(#Trazado_978624)">
                  <g id="Trazado_978624-2" data-name="Trazado 978624" transform="translate(9 6)" fill="#edf3fc">
                    <path d="M 42.5 83.5 C 36.96437835693359 83.5 31.59512901306152 82.41617584228516 26.54141235351562 80.27863311767578 C 21.65934181213379 78.21369171142578 17.27447128295898 75.25723266601562 13.50862312316895 71.49137878417969 C 9.742764472961426 67.72553253173828 6.786305904388428 63.34066009521484 4.721364498138428 58.45858764648438 C 2.583823442459106 53.40486907958984 1.5 48.03562164306641 1.5 42.5 C 1.5 36.96437835693359 2.583823442459106 31.59512901306152 4.721364498138428 26.54141235351562 C 6.786305904388428 21.65934181213379 9.742764472961426 17.27447128295898 13.50862312316895 13.50862312316895 C 17.27447128295898 9.742764472961426 21.65934181213379 6.786305904388428 26.54141235351562 4.721364498138428 C 31.59512901306152 2.583823442459106 36.96437835693359 1.5 42.5 1.5 C 48.03562164306641 1.5 53.40486907958984 2.583823442459106 58.45858764648438 4.721364498138428 C 63.34066009521484 6.786305904388428 67.72553253173828 9.742764472961426 71.49137878417969 13.50862312316895 C 75.25723266601562 17.27447128295898 78.21369171142578 21.65934181213379 80.27863311767578 26.54141235351562 C 82.41617584228516 31.59512901306152 83.5 36.96437835693359 83.5 42.5 C 83.5 48.03562164306641 82.41617584228516 53.40486907958984 80.27863311767578 58.45858764648438 C 78.21369171142578 63.34066009521484 75.25723266601562 67.72553253173828 71.49137878417969 71.49137878417969 C 67.72553253173828 75.25723266601562 63.34066009521484 78.21369171142578 58.45858764648438 80.27863311767578 C 53.40486907958984 82.41617584228516 48.03562164306641 83.5 42.5 83.5 Z" stroke="none"/>
                    <path d="M 42.5 3 C 37.16621398925781 3 31.99356079101562 4.043960571289062 27.125732421875 6.102882385253906 C 22.42246627807617 8.092185974121094 18.19785308837891 10.94070434570312 14.56928253173828 14.56928253173828 C 10.94070434570312 18.19785308837891 8.092185974121094 22.42246627807617 6.102882385253906 27.125732421875 C 4.043960571289062 31.99356079101562 3 37.16621398925781 3 42.5 C 3 47.83378601074219 4.043960571289062 53.00643920898438 6.102882385253906 57.87425231933594 C 8.092185974121094 62.57753372192383 10.94070434570312 66.80213165283203 14.56928253173828 70.43071746826172 C 18.19786834716797 74.05929565429688 22.42246627807617 76.90781402587891 27.125732421875 78.89711761474609 C 31.99356079101562 80.95603942871094 37.16621398925781 82 42.5 82 C 47.83378601074219 82 53.00642395019531 80.95603942871094 57.87425231933594 78.89711761474609 C 62.57753372192383 76.90781402587891 66.80213165283203 74.05929565429688 70.43071746826172 70.43071746826172 C 74.05929565429688 66.80213165283203 76.90781402587891 62.57753372192383 78.89711761474609 57.87425231933594 C 80.95603942871094 53.00642395019531 82 47.83378601074219 82 42.5 C 82 37.16621398925781 80.95603942871094 31.99356079101562 78.89711761474609 27.125732421875 C 76.90781402587891 22.42246627807617 74.05929565429688 18.19786834716797 70.43071746826172 14.56928253173828 C 66.80213165283203 10.94070434570312 62.57753372192383 8.092185974121094 57.87425231933594 6.102882385253906 C 53.00643920898438 4.043960571289062 47.83378601074219 3 42.5 3 M 42.5 0 C 65.97209167480469 0 85 19.02789306640625 85 42.5 C 85 65.97209167480469 65.97209167480469 85 42.5 85 C 19.02789306640625 85 0 65.97209167480469 0 42.5 C 0 19.02789306640625 19.02789306640625 0 42.5 0 Z" stroke="none" fill="#11f5d8"/>
                  </g>
                </g>
              </g>
            </g>
          </g>
        </g>
      </g>
    </g>
    <g id="programmer_4260937" transform="translate(194.802 2887.184)">
      <g id="Grupo_1226040" data-name="Grupo 1226040" transform="translate(7.148 5.488)">
        <g id="Grupo_1226028" data-name="Grupo 1226028" transform="translate(13.402)">
          <path id="Trazado_1054345" data-name="Trazado 1054345" d="M48.018,15.97h-14.3a1.776,1.776,0,0,1-1.26-.518,1.752,1.752,0,0,1-.527-1.269l-2.913.974a3.563,3.563,0,0,0-2.448,3.386v2.788H25.68a2.685,2.685,0,0,0-1.716.617A11.248,11.248,0,0,1,34.249,6.142h6.094A11.248,11.248,0,0,1,50.627,21.948a2.685,2.685,0,0,0-1.716-.617h-.894Z" transform="translate(-23 -6.142)" fill="#b27946"/>
        </g>
        <g id="Grupo_1226029" data-name="Grupo 1226029" transform="translate(38.42 15.189)">
          <path id="Trazado_1054346" data-name="Trazado 1054346" d="M53.609,23.759A2.684,2.684,0,0,1,51.893,28.5H51V23.142h.893A2.685,2.685,0,0,1,53.609,23.759Z" transform="translate(-51 -23.142)" fill="#f0d0b4"/>
        </g>
        <g id="Grupo_1226030" data-name="Grupo 1226030" transform="translate(16.083 31.103)">
          <path id="Trazado_1054347" data-name="Trazado 1054347" d="M38.509,50.95H34.041a2.677,2.677,0,0,0-2.68,2.681v.893H26V51.844c0-.3.009-.6.036-.893a3.571,3.571,0,0,0,3.538-3.574V43.463a11.642,11.642,0,0,1,4-2.511l.465,4.637,3.574-2.681,3.574,2.681.465-4.637a11.634,11.634,0,0,1,7.577,10.892v2.68A3.573,3.573,0,0,1,45.657,58.1H38.509a1.787,1.787,0,0,1-1.787-1.787V52.737a1.792,1.792,0,0,1,1.787-1.787Z" transform="translate(-26 -40.952)" fill="#fcd770"/>
        </g>
        <g id="Grupo_1226031" data-name="Grupo 1226031" transform="translate(16.976 8.041)">
          <path id="Trazado_1054348" data-name="Trazado 1054348" d="M48.444,27.651v.893a8.938,8.938,0,0,1-8.935,8.935H35.935a8.893,8.893,0,0,1-6.362-2.663,3.552,3.552,0,0,0-1.564-2.144v-.009A8.886,8.886,0,0,1,27,28.544V26.757a1.787,1.787,0,0,0,1.787,1.787h5.361a1.787,1.787,0,0,0,1.787-1.787V22.29A1.792,1.792,0,0,0,34.148,20.5H28.787A1.792,1.792,0,0,0,27,22.29V19.5a3.563,3.563,0,0,1,2.448-3.386l2.913-.974a1.752,1.752,0,0,0,.527,1.269,1.776,1.776,0,0,0,1.26.518h14.3V22.29A1.792,1.792,0,0,0,46.657,20.5H41.3a1.792,1.792,0,0,0-1.787,1.787v4.467A1.787,1.787,0,0,0,41.3,28.544h5.361a1.787,1.787,0,0,0,1.787-1.787Z" transform="translate(-27 -15.142)" fill="#f0d0b4"/>
        </g>
        <g id="Grupo_1226032" data-name="Grupo 1226032" transform="translate(29.485 13.402)">
          <path id="Trazado_1054349" data-name="Trazado 1054349" d="M49.935,22.929V27.4a1.787,1.787,0,0,1-1.787,1.787H42.787A1.787,1.787,0,0,1,41,27.4V22.929a1.792,1.792,0,0,1,1.787-1.787h5.361A1.792,1.792,0,0,1,49.935,22.929Z" transform="translate(-41 -21.142)" fill="#69d6f4"/>
        </g>
        <g id="Grupo_1226033" data-name="Grupo 1226033" transform="translate(23.66 30.379)">
          <path id="Trazado_1054350" data-name="Trazado 1054350" d="M42.557,40.866,42.093,45.5l-3.574-2.68L34.945,45.5l-.465-4.637a11.438,11.438,0,0,1,4.039-.724A11.642,11.642,0,0,1,42.557,40.866Z" transform="translate(-34.48 -40.142)" fill="#ffc729"/>
        </g>
        <g id="Grupo_1226034" data-name="Grupo 1226034" transform="translate(21.444 41.101)">
          <path id="Trazado_1054351" data-name="Trazado 1054351" d="M34.68,52.142h4.467a1.792,1.792,0,0,0-1.787,1.787v1.787H32v-.894A2.677,2.677,0,0,1,34.68,52.142Z" transform="translate(-32 -52.142)" fill="#f0d0b4"/>
        </g>
        <g id="Grupo_1226035" data-name="Grupo 1226035" transform="translate(1.787 44.675)">
          <path id="Trazado_1054352" data-name="Trazado 1054352" d="M36.8,59.716H10v-.893a2.677,2.677,0,0,1,2.68-2.68H35.018v1.787A1.787,1.787,0,0,0,36.8,59.716Z" transform="translate(-10 -56.142)" fill="#969faa"/>
        </g>
        <g id="Grupo_1226036" data-name="Grupo 1226036" transform="translate(16.976 13.402)">
          <path id="Trazado_1054353" data-name="Trazado 1054353" d="M35.935,22.929V27.4a1.787,1.787,0,0,1-1.787,1.787H28.787A1.787,1.787,0,0,1,27,27.4V22.929a1.792,1.792,0,0,1,1.787-1.787h5.361A1.792,1.792,0,0,1,35.935,22.929Z" transform="translate(-27 -21.142)" fill="#69d6f4"/>
        </g>
        <g id="Grupo_1226037" data-name="Grupo 1226037" transform="translate(0 25.018)">
          <path id="Trazado_1054354" data-name="Trazado 1054354" d="M27.657,42.737v3.914a3.571,3.571,0,0,1-3.538,3.574H20.688l-1.072-5.361H16.041l-1.072,5.361h-3.4A3.573,3.573,0,0,1,8,46.651V37.716a3.573,3.573,0,0,1,3.574-3.574H24.083a3.594,3.594,0,0,1,3.467,2.7,3.509,3.509,0,0,1,.107.876Z" transform="translate(-8 -34.142)" fill="#ccd1d9"/>
        </g>
        <g id="Grupo_1226038" data-name="Grupo 1226038" transform="translate(13.402 15.189)">
          <path id="Trazado_1054355" data-name="Trazado 1054355" d="M26.574,27.609V28.5H25.68a2.679,2.679,0,0,1-1.894-4.575c.054-.054.116-.116.179-.17a2.685,2.685,0,0,1,1.716-.617h.893Z" transform="translate(-23 -23.142)" fill="#f0d0b4"/>
        </g>
        <g id="Grupo_1226039" data-name="Grupo 1226039" transform="translate(6.254 35.74)">
          <path id="Trazado_1054356" data-name="Trazado 1054356" d="M21.433,51.5l.715,3.574H15l.715-3.574,1.072-5.361h3.574Z" transform="translate(-15 -46.142)" fill="#aab2bd"/>
        </g>
      </g>
      <g id="Grupo_1226041" data-name="Grupo 1226041" transform="translate(0 0.002)">
        <path id="Trazado_1054357" data-name="Trazado 1054357" d="M45.68,25.93a.894.894,0,0,1,.894.893h1.787a2.68,2.68,0,0,0-5.361,0h1.787A.894.894,0,0,1,45.68,25.93Z" transform="translate(-4.58 -2.573)"/>
        <path id="Trazado_1054358" data-name="Trazado 1054358" d="M31.68,25.93a.894.894,0,0,1,.893.893h1.787a2.68,2.68,0,1,0-5.361,0h1.787A.894.894,0,0,1,31.68,25.93Z" transform="translate(-3.089 -2.573)"/>
        <path id="Trazado_1054359" data-name="Trazado 1054359" d="M47.207,27.48a3.578,3.578,0,0,0,3.574-3.574,3.54,3.54,0,0,0-.829-2.261,12.1,12.1,0,0,0-11.31-16.5h-6.1a12.1,12.1,0,0,0-11.309,16.5,3.538,3.538,0,0,0-.829,2.261,3.578,3.578,0,0,0,3.574,3.574,9.827,9.827,0,0,0,.4,2.721c-.134-.013-.263-.04-.4-.04H11.467A4.473,4.473,0,0,0,7,34.628v8.935a4.473,4.473,0,0,0,4.467,4.467h2.305l-.357,1.787H12.361a3.578,3.578,0,0,0-3.574,3.574v1.787H43.633A4.473,4.473,0,0,0,48.1,50.711v-2.68a12.515,12.515,0,0,0-7.289-11.353,9.836,9.836,0,0,0,6.4-9.2ZM36.485,21.226v.893H34.7v-.893a2.684,2.684,0,0,0-2.681-2.68H26.657a2.645,2.645,0,0,0-.893.164v-.269A2.679,2.679,0,0,1,27.6,15.9l2.01-.67a2.679,2.679,0,0,0,2.412,1.531h13.4V18.71a2.65,2.65,0,0,0-.894-.164H39.167a2.683,2.683,0,0,0-2.681,2.68Zm-10.721,0a.894.894,0,0,1,.893-.891h5.361a.894.894,0,0,1,.894.893v4.467a.894.894,0,0,1-.894.893H26.657a.9.9,0,0,1-.893-.893Zm12.508,0a.894.894,0,0,1,.893-.893h5.361a.894.894,0,0,1,.893.893v4.467a.894.894,0,0,1-.893.893H39.166a.894.894,0,0,1-.893-.893Zm8.935,4.467V22.119a1.787,1.787,0,1,1,0,3.574ZM32.541,6.929h6.1a10.341,10.341,0,0,1,9.812,13.64,3.544,3.544,0,0,0-1.246-.237V15.865a5.1,5.1,0,0,0-4.272-5.044L41.1,10.516l-.293,1.763,1.835.306A3.317,3.317,0,0,1,45.3,14.971H32.018a.893.893,0,0,1,0-1.787h.894V11.4h-.894a2.677,2.677,0,0,0-2.583,2l-2.4.8a4.461,4.461,0,0,0-3.054,4.238v1.892h0a3.528,3.528,0,0,0-1.246.237A10.34,10.34,0,0,1,32.541,6.929ZM22.189,23.906a1.789,1.789,0,0,1,1.787-1.787v3.574A1.789,1.789,0,0,1,22.189,23.906ZM11.467,46.244a2.684,2.684,0,0,1-2.68-2.68V34.628a2.684,2.684,0,0,1,2.68-2.68H23.976a2.684,2.684,0,0,1,2.68,2.68v8.935a2.684,2.684,0,0,1-2.68,2.68H21.314l-1.072-5.361H15.2l-1.072,5.361Zm10.561,3.574-.357-1.787h1.412v1.787ZM16.667,42.67h2.11l1.43,7.148H15.238ZM12.361,51.6H33.8V52.5a2.65,2.65,0,0,0,.164.894h-23.4A1.789,1.789,0,0,1,12.361,51.6ZM33.8,48.924v.894H30.231a1.789,1.789,0,0,1,1.787-1.787h1.951A2.646,2.646,0,0,0,33.8,48.924Zm12.509-.893v2.68a2.684,2.684,0,0,1-2.68,2.68H36.485a.894.894,0,0,1-.893-.894V48.924a.894.894,0,0,1,.893-.893h4.883l1.522,2.283,1.487-.991-2.052-3.078H32.018a3.578,3.578,0,0,0-3.574,3.574H24.87V48.032c0-.03,0-.06,0-.091a4.477,4.477,0,0,0,3.57-4.377V40.055a10.73,10.73,0,0,1,2.343-1.607l.5,4.994,4.306-3.229,4.3,3.229.5-4.983A10.723,10.723,0,0,1,46.314,48.031ZM30.36,36.679a12.411,12.411,0,0,0-1.916,1.1V35.714A9.626,9.626,0,0,0,30.36,36.679Zm8.31,1.085-.235,2.346-2.842-2.131-2.843,2.132-.235-2.353a10.7,10.7,0,0,1,6.155.005Zm-1.29-2.242H33.8a7.976,7.976,0,0,1-5.6-2.284,4.466,4.466,0,0,0-1.606-2.212,7.911,7.911,0,0,1-.787-2.8,2.658,2.658,0,0,0,.85.151h5.361a2.684,2.684,0,0,0,2.68-2.68V23.906h1.787v1.787a2.684,2.684,0,0,0,2.68,2.68h5.361a2.645,2.645,0,0,0,.856-.153A8.05,8.05,0,0,1,37.379,35.522Z" transform="translate(-0.746 -0.549)"/>
        <path id="Trazado_1054360" data-name="Trazado 1054360" d="M38.574,34.93a1.789,1.789,0,0,1-1.787-1.787H35a3.574,3.574,0,1,0,7.148,0H40.361A1.789,1.789,0,0,1,38.574,34.93Z" transform="translate(-3.728 -3.531)"/>
        <path id="Trazado_1054361" data-name="Trazado 1054361" d="M0,0H12.636V1.788H0Z" transform="translate(7.157 12.51) rotate(-81.837)"/>
        <path id="Trazado_1054362" data-name="Trazado 1054362" d="M14.556,10.846l4.206-4.206L14.556,2.435,13.293,3.7l2.942,2.942L13.293,9.583Z" transform="translate(-1.416 -0.261)"/>
        <path id="Trazado_1054363" data-name="Trazado 1054363" d="M0,28.142H16.083v1.787H0Z" transform="translate(0 -2.999)"/>
        <path id="Trazado_1054364" data-name="Trazado 1054364" d="M0,24.142H16.083v1.787H0Z" transform="translate(0 -2.573)"/>
        <path id="Trazado_1054365" data-name="Trazado 1054365" d="M0,20.142H16.083v1.787H0Z" transform="translate(0 -2.147)"/>
        <path id="Trazado_1054366" data-name="Trazado 1054366" d="M12,16.142h1.787v1.787H12Z" transform="translate(-1.278 -1.721)"/>
        <path id="Trazado_1054367" data-name="Trazado 1054367" d="M16,16.142h1.787v1.787H16Z" transform="translate(-1.704 -1.721)"/>
        <path id="Trazado_1054368" data-name="Trazado 1054368" d="M8,16.142H9.787v1.787H8Z" transform="translate(-0.852 -1.721)"/>
        <path id="Trazado_1054369" data-name="Trazado 1054369" d="M0,16.142H1.787v1.787H0Z" transform="translate(0 -1.721)"/>
        <path id="Trazado_1054370" data-name="Trazado 1054370" d="M4,16.142H5.787v1.787H4Z" transform="translate(-0.426 -1.721)"/>
        <path id="Trazado_1054371" data-name="Trazado 1054371" d="M6.055,9.583,3.113,6.641,6.055,3.7,4.792,2.435.586,6.641l4.206,4.206Z" transform="translate(-0.062 -0.261)"/>
        <path id="Trazado_1054372" data-name="Trazado 1054372" d="M55,55.142h6.254v1.787H55Z" transform="translate(-5.858 -5.874)"/>
        <path id="Trazado_1054373" data-name="Trazado 1054373" d="M55,51.142h6.254v1.787H55Z" transform="translate(-5.858 -5.448)"/>
        <path id="Trazado_1054374" data-name="Trazado 1054374" d="M55,47.142h6.254v1.787H55Z" transform="translate(-5.858 -5.022)"/>
        <path id="Trazado_1054375" data-name="Trazado 1054375" d="M55,43.142h6.254v1.787H55Z" transform="translate(-5.858 -4.596)"/>
      </g>
    </g>
  </g>
</svg>
