<svg xmlns="http://www.w3.org/2000/svg" xmlns:xlink="http://www.w3.org/1999/xlink" width="103" height="103" viewBox="0 0 103 103">
  <defs>
    <filter id="Trazado_978624" x="0" y="0" width="103" height="103" filterUnits="userSpaceOnUse">
      <feOffset dy="3" input="SourceAlpha"/>
      <feGaussianBlur stdDeviation="3" result="blur"/>
      <feFlood flood-opacity="0.161"/>
      <feComposite operator="in" in2="blur"/>
      <feComposite in="SourceGraphic"/>
    </filter>
  </defs>
  <g id="Grupo_1225746" data-name="Grupo 1225746" transform="translate(-171 -2866)">
    <g id="Grupo_1176881" data-name="Grupo 1176881">
      <g id="Grupo_1175148" data-name="Grupo 1175148" transform="translate(0 1580)">
        <g id="Grupo_1173798" data-name="Grupo 1173798" transform="translate(-3 -3520)">
          <g id="Grupo_1171925" data-name="Grupo 1171925" transform="translate(-22 -2246)">
            <g id="Grupo_1164524" data-name="Grupo 1164524" transform="translate(205 7058)">
              <g id="Grupo_1144123" data-name="Grupo 1144123">
                <g transform="matrix(1, 0, 0, 1, -9, -6)" filter="url(#Trazado_978624)">
                  <g id="Trazado_978624-2" data-name="Trazado 978624" transform="translate(9 6)" fill="#edf3fc">
                    <path d="M 42.5 83.5 C 36.96437835693359 83.5 31.59512901306152 82.41617584228516 26.54141235351562 80.27863311767578 C 21.65934181213379 78.21369171142578 17.27447128295898 75.25723266601562 13.50862312316895 71.49137878417969 C 9.742764472961426 67.72553253173828 6.786305904388428 63.34066009521484 4.721364498138428 58.45858764648438 C 2.583823442459106 53.40486907958984 1.5 48.03562164306641 1.5 42.5 C 1.5 36.96437835693359 2.583823442459106 31.59512901306152 4.721364498138428 26.54141235351562 C 6.786305904388428 21.65934181213379 9.742764472961426 17.27447128295898 13.50862312316895 13.50862312316895 C 17.27447128295898 9.742764472961426 21.65934181213379 6.786305904388428 26.54141235351562 4.721364498138428 C 31.59512901306152 2.583823442459106 36.96437835693359 1.5 42.5 1.5 C 48.03562164306641 1.5 53.40486907958984 2.583823442459106 58.45858764648438 4.721364498138428 C 63.34066009521484 6.786305904388428 67.72553253173828 9.742764472961426 71.49137878417969 13.50862312316895 C 75.25723266601562 17.27447128295898 78.21369171142578 21.65934181213379 80.27863311767578 26.54141235351562 C 82.41617584228516 31.59512901306152 83.5 36.96437835693359 83.5 42.5 C 83.5 48.03562164306641 82.41617584228516 53.40486907958984 80.27863311767578 58.45858764648438 C 78.21369171142578 63.34066009521484 75.25723266601562 67.72553253173828 71.49137878417969 71.49137878417969 C 67.72553253173828 75.25723266601562 63.34066009521484 78.21369171142578 58.45858764648438 80.27863311767578 C 53.40486907958984 82.41617584228516 48.03562164306641 83.5 42.5 83.5 Z" stroke="none"/>
                    <path d="M 42.5 3 C 37.16621398925781 3 31.99356079101562 4.043960571289062 27.125732421875 6.102882385253906 C 22.42246627807617 8.092185974121094 18.19785308837891 10.94070434570312 14.56928253173828 14.56928253173828 C 10.94070434570312 18.19785308837891 8.092185974121094 22.42246627807617 6.102882385253906 27.125732421875 C 4.043960571289062 31.99356079101562 3 37.16621398925781 3 42.5 C 3 47.83378601074219 4.043960571289062 53.00643920898438 6.102882385253906 57.87425231933594 C 8.092185974121094 62.57753372192383 10.94070434570312 66.80213165283203 14.56928253173828 70.43071746826172 C 18.19786834716797 74.05929565429688 22.42246627807617 76.90781402587891 27.125732421875 78.89711761474609 C 31.99356079101562 80.95603942871094 37.16621398925781 82 42.5 82 C 47.83378601074219 82 53.00642395019531 80.95603942871094 57.87425231933594 78.89711761474609 C 62.57753372192383 76.90781402587891 66.80213165283203 74.05929565429688 70.43071746826172 70.43071746826172 C 74.05929565429688 66.80213165283203 76.90781402587891 62.57753372192383 78.89711761474609 57.87425231933594 C 80.95603942871094 53.00642395019531 82 47.83378601074219 82 42.5 C 82 37.16621398925781 80.95603942871094 31.99356079101562 78.89711761474609 27.125732421875 C 76.90781402587891 22.42246627807617 74.05929565429688 18.19786834716797 70.43071746826172 14.56928253173828 C 66.80213165283203 10.94070434570312 62.57753372192383 8.092185974121094 57.87425231933594 6.102882385253906 C 53.00643920898438 4.043960571289062 47.83378601074219 3 42.5 3 M 42.5 0 C 65.97209167480469 0 85 19.02789306640625 85 42.5 C 85 65.97209167480469 65.97209167480469 85 42.5 85 C 19.02789306640625 85 0 65.97209167480469 0 42.5 C 0 19.02789306640625 19.02789306640625 0 42.5 0 Z" stroke="none" fill="#11f5d8"/>
                  </g>
                </g>
              </g>
            </g>
          </g>
        </g>
      </g>
    </g>
    <g id="_77-Coding" data-name="77-Coding" transform="translate(196.266 2888.268)">
      <path id="Trazado_1054569" data-name="Trazado 1054569" d="M23.6,1v9.38H15Z" transform="translate(-3.056)" fill="#ffc247"/>
      <path id="Trazado_1054570" data-name="Trazado 1054570" d="M52.521,2.563V47.9a1.568,1.568,0,0,1-1.563,1.563H16.563A1.568,1.568,0,0,1,15,47.9V10.38h8.6V1H50.958a1.568,1.568,0,0,1,1.563,1.563Z" transform="translate(-3.056)" fill="#dfe1ea"/>
      <path id="Trazado_1054571" data-name="Trazado 1054571" d="M41.265,11.562C35.324,11.562,35.324,10,29.383,10a19.89,19.89,0,0,0-5.785.739v1.606H15v4.573a24.74,24.74,0,0,0,2.5.117c5.941,0,5.941-1.563,11.882-1.563s5.941,1.563,11.882,1.563c5.72,0,5.949-1.445,11.26-1.553V10.009C47.21,10.117,46.981,11.562,41.265,11.562Z" transform="translate(-3.056 -1.964)" fill="#adb2c7"/>
      <path id="Trazado_1054572" data-name="Trazado 1054572" d="M31.78,8.035c5.941,0,5.941,1.563,11.882,1.563,5.72,0,5.949-1.445,11.26-1.553V2.563A1.568,1.568,0,0,0,53.358,1H26V8.775a19.89,19.89,0,0,1,5.78-.739Z" transform="translate(-5.458 0)" fill="#f6fafd"/>
      <path id="Trazado_1054573" data-name="Trazado 1054573" d="M15,12.181h8.6v-1.71c-2.44-.284-3.6-.906-5.91-1.223Z" transform="translate(-3.056 -1.801)" fill="#ffa426"/>
      <path id="Trazado_1054574" data-name="Trazado 1054574" d="M24.38,35.985H20.472V33.9a5.153,5.153,0,0,0,1.563-1.04C23.6,31.294,23.6,30.513,23.6,30.513V28.949h.782a1.563,1.563,0,1,0,0-3.127H23.6V23.478h2.345s-.013-3.769-2.58-5.452a19.97,19.97,0,0,1-5.863.761A24.741,24.741,0,0,1,15,18.67V33.478a5.83,5.83,0,0,0,.782.419v2.087H15V51.618a1.568,1.568,0,0,0,1.563,1.563H28.289V39.893C28.289,35.985,24.38,35.985,24.38,35.985Z" transform="translate(-3.056 -3.717)" fill="#bec3d2"/>
      <path id="Trazado_1054575" data-name="Trazado 1054575" d="M17.5,18.563a19.97,19.97,0,0,0,5.863-.761,5.126,5.126,0,0,0-2.892-.8H16.563A4.177,4.177,0,0,0,15,17.382v1.064A24.741,24.741,0,0,0,17.5,18.563Z" transform="translate(-3.056 -3.492)" fill="#7e8596"/>
      <path id="Trazado_1054576" data-name="Trazado 1054576" d="M21.782,28a1.563,1.563,0,1,1,0,3.127H21V28Z" transform="translate(-4.366 -5.894)" fill="#ffcdbe"/>
      <path id="Trazado_1054577" data-name="Trazado 1054577" d="M7,26.38V21.69C7,17,10.908,17,10.908,17h3.908c5.472,0,5.472,6.254,5.472,6.254h-8.6C11.69,25.6,7,26.38,7,26.38Z" transform="translate(-1.31 -3.493)" fill="#b46e5a"/>
      <path id="Trazado_1054578" data-name="Trazado 1054578" d="M6.345,28.782v2.345H5.563a1.563,1.563,0,0,1,0-3.127h.782Z" transform="translate(-0.655 -5.894)" fill="#ffcdbe"/>
      <path id="Trazado_1054579" data-name="Trazado 1054579" d="M10.127,35.42a5.153,5.153,0,0,1-1.563-1.04C7,32.817,7,32.035,7,32.035V28.127s4.69-.782,4.69-3.127h6.254v7.035s0,.782-1.563,2.345a5.153,5.153,0,0,1-1.563,1.04,6.612,6.612,0,0,1-2.345.524,6.612,6.612,0,0,1-2.345-.524Z" transform="translate(-1.31 -5.239)" fill="#ffcdbe"/>
      <path id="Trazado_1054580" data-name="Trazado 1054580" d="M15.69,40.417V41.2a2.345,2.345,0,1,1-4.69,0V38.33a6.612,6.612,0,0,0,2.345.524,6.612,6.612,0,0,0,2.345-.524Z" transform="translate(-2.183 -8.149)" fill="#ffbeaa"/>
      <path id="Trazado_1054581" data-name="Trazado 1054581" d="M14,44.345A2.3,2.3,0,0,0,16.345,42l2.345,2.345S17.127,47.472,14,47.472Z" transform="translate(-2.838 -8.951)" fill="#f2f6fc"/>
      <path id="Trazado_1054582" data-name="Trazado 1054582" d="M12.69,44.345v3.127C9.563,47.472,8,44.345,8,44.345L10.345,42a2.3,2.3,0,0,0,2.345,2.345Z" transform="translate(-1.528 -8.951)" fill="#f2f6fc"/>
      <path id="Trazado_1054583" data-name="Trazado 1054583" d="M6.472,44.127s1.563,3.127,4.69,3.127,4.69-3.127,4.69-3.127l-2.345-2.345V41h3.908s3.908,0,3.908,3.908V58.2H1V44.908C1,41,4.908,41,4.908,41H8.817v.782Z" transform="translate(0 -8.732)" fill="#bec3d2"/>
      <path id="Trazado_1054584" data-name="Trazado 1054584" d="M17.944,25H11.69c0,2.345-4.69,3.127-4.69,3.127v.131a24.461,24.461,0,0,1,2.653-.131c4.42,0,5.555.865,8.291,1.308Z" transform="translate(-1.31 -5.239)" fill="#ffbeaa"/>
      <path id="Trazado_1054585" data-name="Trazado 1054585" d="M7,27.345v.782s4.69-.782,4.69-3.127H7Z" transform="translate(-1.31 -5.239)" fill="#915041"/>
      <path id="Trazado_1054586" data-name="Trazado 1054586" d="M4.908,41S1,41,1,44.908V58.2H5.69V41Z" transform="translate(0 -8.732)" fill="#7e8596"/>
      <path id="Trazado_1054587" data-name="Trazado 1054587" d="M21.782,41H21V58.2h4.69V44.908C25.69,41,21.782,41,21.782,41Z" transform="translate(-4.366 -8.732)" fill="#7e8596"/>
      <g id="Grupo_1226086" data-name="Grupo 1226086" transform="translate(1 1)">
        <g id="Grupo_1226085" data-name="Grupo 1226085">
          <path id="Trazado_1054588" data-name="Trazado 1054588" d="M27.507,49.465H50.958A1.563,1.563,0,0,0,52.521,47.9V2.563A1.563,1.563,0,0,0,50.958,1H23.6L15,10.38v3.127" transform="translate(-4.056 -1)" fill="none" stroke="#000" stroke-linejoin="round" stroke-width="2"/>
          <path id="Trazado_1054589" data-name="Trazado 1054589" d="M15,10.38h8.6V1" transform="translate(-4.056 -1)" fill="none" stroke="#000" stroke-linejoin="round" stroke-width="2"/>
          <path id="Trazado_1054590" data-name="Trazado 1054590" d="M7,26.38s4.69-.782,4.69-3.127h8.6S20.289,17,14.817,17H10.908S7,17,7,21.69v8.6s0,.782,1.563,2.345A6.078,6.078,0,0,0,12.472,34.2a6.078,6.078,0,0,0,3.908-1.563c1.563-1.563,1.563-2.345,1.563-2.345V23.254" transform="translate(-2.31 -4.493)" fill="none" stroke="#000" stroke-linejoin="round" stroke-width="2"/>
          <path id="Trazado_1054591" data-name="Trazado 1054591" d="M8.817,41H4.908S1,41,1,44.908V58.2H21.324V44.908C21.324,41,17.415,41,17.415,41H13.507" transform="translate(-1 -9.732)" fill="none" stroke="#000" stroke-linejoin="round" stroke-width="2"/>
          <path id="Trazado_1054592" data-name="Trazado 1054592" d="M11,38v3.127a2.345,2.345,0,1,0,4.69,0V38" transform="translate(-3.183 -9.077)" fill="none" stroke="#000" stroke-linejoin="round" stroke-width="2"/>
          <path id="Trazado_1054593" data-name="Trazado 1054593" d="M7,60.162V50" transform="translate(-2.31 -11.697)" fill="none" stroke="#000" stroke-linejoin="round" stroke-width="2"/>
          <path id="Trazado_1054594" data-name="Trazado 1054594" d="M21,60.162V50" transform="translate(-5.366 -11.697)" fill="none" stroke="#000" stroke-linejoin="round" stroke-width="2"/>
          <path id="Trazado_1054595" data-name="Trazado 1054595" d="M10.345,42,8,44.345s1.563,3.127,4.69,3.127V44.345" transform="translate(-2.528 -9.951)" fill="none" stroke="#000" stroke-linejoin="round" stroke-width="2"/>
          <path id="Trazado_1054596" data-name="Trazado 1054596" d="M16.345,42l2.345,2.345S17.127,47.472,14,47.472V44.345" transform="translate(-3.838 -9.951)" fill="none" stroke="#000" stroke-linejoin="round" stroke-width="2"/>
          <path id="Trazado_1054597" data-name="Trazado 1054597" d="M14,49v7.817" transform="translate(-3.838 -11.479)" fill="none" stroke="#000" stroke-linejoin="round" stroke-width="2"/>
          <path id="Trazado_1054598" data-name="Trazado 1054598" d="M21,28h.782a1.563,1.563,0,1,1,0,3.127H21" transform="translate(-5.366 -6.894)" fill="none" stroke="#000" stroke-linejoin="round" stroke-width="2"/>
          <path id="Trazado_1054599" data-name="Trazado 1054599" d="M6.345,28H5.563a1.563,1.563,0,0,0,0,3.127h.782" transform="translate(-1.655 -6.894)" fill="none" stroke="#000" stroke-linejoin="round" stroke-width="2"/>
          <path id="Trazado_1054600" data-name="Trazado 1054600" d="M57,52v5.472" transform="translate(-13.225 -12.134)" fill="none" stroke="#000" stroke-linejoin="round" stroke-width="2"/>
        </g>
        <path id="Trazado_1054601" data-name="Trazado 1054601" d="M43,52v5.472" transform="translate(-10.169 -12.134)" fill="none" stroke="#fff" stroke-linejoin="round" stroke-width="2"/>
        <path id="Trazado_1054602" data-name="Trazado 1054602" d="M49,42v5.472" transform="translate(-11.479 -9.951)" fill="none" stroke="#fff" stroke-linejoin="round" stroke-width="2"/>
        <path id="Trazado_1054603" data-name="Trazado 1054603" d="M44,42v5.472" transform="translate(-10.387 -9.951)" fill="none" stroke="#000" stroke-linejoin="round" stroke-width="2"/>
        <rect id="Rectángulo_422305" data-name="Rectángulo 422305" width="3.127" height="3.908" rx="1" transform="translate(36.739 40.648)" fill="none" stroke="#000" stroke-linejoin="round" stroke-width="2"/>
        <path id="Trazado_1054604" data-name="Trazado 1054604" d="M57,32v5.472" transform="translate(-13.225 -7.768)" fill="none" stroke="#000" stroke-linejoin="round" stroke-width="2"/>
        <path id="Trazado_1054605" data-name="Trazado 1054605" d="M43,32v5.472" transform="translate(-10.169 -7.768)" fill="none" stroke="#fff" stroke-linejoin="round" stroke-width="2"/>
        <rect id="Rectángulo_422306" data-name="Rectángulo 422306" width="3.127" height="3.908" rx="1" transform="translate(36.739 25.014)" fill="none" stroke="#000" stroke-linejoin="round" stroke-width="2"/>
        <rect id="Rectángulo_422307" data-name="Rectángulo 422307" width="3.127" height="3.908" rx="1" transform="translate(41.43 32.831)" fill="none" stroke="#000" stroke-linejoin="round" stroke-width="2"/>
        <rect id="Rectángulo_422308" data-name="Rectángulo 422308" width="3.127" height="3.908" rx="1" transform="translate(26.577 32.831)" fill="none" stroke="#000" stroke-linejoin="round" stroke-width="2"/>
        <path id="Trazado_1054606" data-name="Trazado 1054606" d="M49,22v5.472" transform="translate(-11.479 -5.585)" fill="none" stroke="#fff" stroke-linejoin="round" stroke-width="2"/>
        <path id="Trazado_1054607" data-name="Trazado 1054607" d="M44,22v5.472" transform="translate(-10.387 -5.585)" fill="none" stroke="#000" stroke-linejoin="round" stroke-width="2"/>
        <rect id="Rectángulo_422309" data-name="Rectángulo 422309" width="3.127" height="3.908" rx="1" transform="translate(41.43 17.197)" fill="none" stroke="#000" stroke-linejoin="round" stroke-width="2"/>
        <rect id="Rectángulo_422310" data-name="Rectángulo 422310" width="3.127" height="3.908" rx="1" transform="translate(26.577 17.197)" fill="none" stroke="#000" stroke-linejoin="round" stroke-width="2"/>
        <path id="Trazado_1054608" data-name="Trazado 1054608" d="M40.908,6,37,9.908l3.908,3.908" transform="translate(-8.859 -2.092)" fill="none" stroke="#000" stroke-linejoin="round" stroke-width="2"/>
        <path id="Trazado_1054609" data-name="Trazado 1054609" d="M52,13.817l3.908-3.908L52,6" transform="translate(-12.134 -2.092)" fill="none" stroke="#000" stroke-linejoin="round" stroke-width="2"/>
        <path id="Trazado_1054610" data-name="Trazado 1054610" d="M46,14.6,47.563,6" transform="translate(-10.824 -2.092)" fill="none" stroke="#000" stroke-linejoin="round" stroke-width="2"/>
      </g>
    </g>
  </g>
</svg>
