<svg xmlns="http://www.w3.org/2000/svg" width="400" height="147.197" viewBox="0 0 400 147.197">
  <g id="Grupo_1226087" data-name="Grupo 1226087" transform="translate(-1020 -782.561)">
    <g id="Grupo_1226080" data-name="Grupo 1226080" transform="translate(0 -11396.494)">
      <g id="Grupo_1225644" data-name="Grupo 1225644" transform="translate(0)">
        <rect id="equipo-de-desarrolladores-haciendo-una-tormenta-de-ideas-para-optimizar-el-codigo" width="400" height="96" rx="5" transform="translate(1020 12204)" fill="#4f3864"/>
        <rect id="equipo-de-desarrolladores-haciendo-una-tormenta-de-ideas-para-optimizar-el-codigo-2" data-name="equipo-de-desarrolladores-haciendo-una-tormenta-de-ideas-para-optimizar-el-codigo" width="326" height="110" rx="5" transform="translate(1057 12197)" fill="#11f5d8"/>
      </g>
    </g>
    <g id="_55-Programmer" data-name="55-Programmer" transform="translate(1147.376 782.561)">
      <path id="Trazado_1054611" data-name="Trazado 1054611" d="M81,9V41.2H58l-9.2,6.9V41.2H35V9Z" transform="translate(39.004 11.7)" fill="#fff"/>
      <path id="Trazado_1054612" data-name="Trazado 1054612" d="M35,1H81V19.4H35Z" transform="translate(39.004 1.3)" fill="#73c6b2"/>
      <path id="Trazado_1054613" data-name="Trazado 1054613" d="M38,12H70.2V30.4H38Z" transform="translate(42.904 15.599)" fill="#dfe1ea"/>
      <path id="Trazado_1054614" data-name="Trazado 1054614" d="M28.3,28a4.6,4.6,0,1,1,0,9.2H26V28Z" transform="translate(27.305 36.399)" fill="#ffcdbe"/>
      <path id="Trazado_1054615" data-name="Trazado 1054615" d="M12,44.6V30.8C12,17,23.5,17,23.5,17H35c16.1,0,16.1,18.4,16.1,18.4H25.8C25.8,42.3,12,44.6,12,44.6Z" transform="translate(9.105 22.099)" fill="#b46e5a"/>
      <path id="Trazado_1054616" data-name="Trazado 1054616" d="M15.9,30.3v6.9H13.6a4.6,4.6,0,1,1,0-9.2h2.3Z" transform="translate(5.205 36.399)" fill="#ffcdbe"/>
      <path id="Trazado_1054617" data-name="Trazado 1054617" d="M21.2,55.658A15.161,15.161,0,0,1,16.6,52.6C12,48,12,45.7,12,45.7V34.2S25.8,31.9,25.8,25H44.2V45.7s0,2.3-4.6,6.9A15.161,15.161,0,0,1,35,55.658,19.455,19.455,0,0,1,28.1,57.2a19.456,19.456,0,0,1-6.9-1.541Z" transform="translate(9.105 32.499)" fill="#ffcdbe"/>
      <path id="Trazado_1054618" data-name="Trazado 1054618" d="M29.8,44.471v2.3a6.9,6.9,0,0,1-13.8,0V38.33a19.456,19.456,0,0,0,6.9,1.541,19.455,19.455,0,0,0,6.9-1.541Z" transform="translate(14.305 49.827)" fill="#ffbeaa"/>
      <path id="Trazado_1054619" data-name="Trazado 1054619" d="M19,48.9A6.757,6.757,0,0,0,25.9,42l6.9,6.9S28.2,58.1,19,58.1Z" transform="translate(18.205 54.598)" fill="#f2f6fc"/>
      <path id="Trazado_1054620" data-name="Trazado 1054620" d="M26.8,48.9v9.2c-9.2,0-13.8-9.2-13.8-9.2L19.9,42a6.757,6.757,0,0,0,6.9,6.9Z" transform="translate(10.405 54.598)" fill="#f2f6fc"/>
      <path id="Trazado_1054621" data-name="Trazado 1054621" d="M22.1,50.2s4.6,9.2,13.8,9.2,13.8-9.2,13.8-9.2l-6.9-6.9V41H54.3s11.5,0,11.5,11.5V91.6H6V52.5C6,41,17.5,41,17.5,41H29v2.3Z" transform="translate(1.305 53.298)" fill="#bec3d2"/>
      <path id="Trazado_1054622" data-name="Trazado 1054622" d="M44.2,25H25.8c0,6.9-13.8,9.2-13.8,9.2v.386a71.971,71.971,0,0,1,7.806-.386c13.006,0,16.343,2.544,24.393,3.848Z" transform="translate(9.105 32.499)" fill="#ffbeaa"/>
      <path id="Trazado_1054623" data-name="Trazado 1054623" d="M12,31.9v2.3S25.8,31.9,25.8,25H12Z" transform="translate(9.105 32.499)" fill="#915041"/>
      <path id="Trazado_1054624" data-name="Trazado 1054624" d="M17.5,41S6,41,6,52.5V91.6H19.8V41Z" transform="translate(1.305 53.298)" fill="#7e8596"/>
      <path id="Trazado_1054625" data-name="Trazado 1054625" d="M28.3,41H26V91.6H39.8V52.5C39.8,41,28.3,41,28.3,41Z" transform="translate(27.305 53.298)" fill="#7e8596"/>
      <path id="Trazado_1054626" data-name="Trazado 1054626" d="M55.7,55,58,73.4H35L37.3,55Z" transform="translate(39.004 71.498)" fill="#afb4c8"/>
      <circle id="Elipse_13346" data-name="Elipse 13346" cx="4.5" cy="4.5" r="4.5" transform="translate(80.624 93.972)" fill="#afb4c8"/>
      <path id="Trazado_1054627" data-name="Trazado 1054627" d="M104.8,29V88.8H22V29ZM68,61.2a4.6,4.6,0,1,0-4.6,4.6A4.6,4.6,0,0,0,68,61.2Z" transform="translate(22.105 37.699)" fill="#dce1eb"/>
      <path id="Trazado_1054628" data-name="Trazado 1054628" d="M22,39.8a58.25,58.25,0,0,1,14.706-1.6c17.48,0,17.48,4.6,34.959,4.6,16.831,0,17.5-4.253,33.131-4.57V29H22Z" transform="translate(22.105 37.699)" fill="#f6fafd"/>
      <path id="Trazado_1054629" data-name="Trazado 1054629" d="M36.485,55l-.858,6.863c.722.018,1.437.037,2.226.037a59.6,59.6,0,0,0,17.6-2.318L54.885,55Z" transform="translate(39.819 71.498)" fill="#7e8596"/>
      <path id="Trazado_1054630" data-name="Trazado 1054630" d="M38,4h4.6V8.6H38Z" transform="translate(42.904 5.2)" fill="#fff"/>
      <path id="Trazado_1054631" data-name="Trazado 1054631" d="M42,4h4.6V8.6H42Z" transform="translate(48.104 5.2)" fill="#fff"/>
      <path id="Trazado_1054632" data-name="Trazado 1054632" d="M126.9,43.6H55.6V39h4.6a2.3,2.3,0,0,0,2.3-2.3c0-7.16-3.846-20.7-18.4-20.7H32.6c-4.772,0-13.8,3.365-13.8,16.1v9.2a6.9,6.9,0,0,0,0,13.8v2.3c0,.764.379,3.632,5.274,8.526A16.178,16.178,0,0,0,28,68.756V71.2h-9.2A13.305,13.305,0,0,0,5.005,85v39.1a2.3,2.3,0,0,0,2.3,2.3H62.5v-4.6H55.6V108H73.7l-1.725,13.8H67.1v4.6h36.8v-4.6H99.035L97.31,108H126.9a2.3,2.3,0,0,0,2.3-2.3V45.9A2.3,2.3,0,0,0,126.9,43.6Zm-110.4,4.6a2.3,2.3,0,0,1,2.3-2.3v4.6A2.3,2.3,0,0,1,16.505,48.2Zm6.9-16.1c0-11.06,8.28-11.5,9.2-11.5H44.1c10.557,0,13.038,9.338,13.62,13.8H34.9a2.3,2.3,0,0,0-2.3,2.3c0,2.99-5.159,5.226-9.2,6.329Zm0,25.288V47.776c3.8-.885,11.661-3.349,13.439-8.777H51v4.6H44.1a2.3,2.3,0,0,0-2.3,2.3V65.734a16.343,16.343,0,0,1-4.6.865,15.64,15.64,0,0,1-9.874-3.926,14.871,14.871,0,0,1-3.926-5.285ZM37.2,71.2a19.646,19.646,0,0,0,4.6-.69V75.8a4.331,4.331,0,0,1-4.6,4.6,4.331,4.331,0,0,1-4.6-4.6V70.53a19.584,19.584,0,0,0,4.6.669Zm-8.1,9.055a8.356,8.356,0,0,0,5.8,4.515v4.6a14.892,14.892,0,0,1-8.593-6.311ZM51,121.8h-27.6V94.2h-4.6v27.6h-9.2V85a8.855,8.855,0,0,1,9.2-9.2h8.248l-5.274,5.274a2.3,2.3,0,0,0-.432,2.654c.2.4,4.6,8.97,13.57,10.288V114.9h4.6V84.769a8.51,8.51,0,0,0,2.3-.881V105.7a2.3,2.3,0,0,0,2.3,2.3h6.9Zm25.605,0L78.335,108H92.673L94.4,121.8ZM124.6,103.4H46.4V48.2h78.2Z" transform="translate(0 20.799)"/>
      <path id="Trazado_1054633" data-name="Trazado 1054633" d="M43.9,53.8A6.9,6.9,0,1,0,37,46.9,6.9,6.9,0,0,0,43.9,53.8Zm0-9.2a2.3,2.3,0,1,1-2.3,2.3A2.3,2.3,0,0,1,43.9,44.6Z" transform="translate(41.604 51.998)"/>
      <path id="Trazado_1054634" data-name="Trazado 1054634" d="M46.573,12.293l-6.9,6.9a2.3,2.3,0,0,0,0,3.252l6.9,6.9,3.252-3.252-5.274-5.274,5.274-5.274Z" transform="translate(44.204 15.98)"/>
      <path id="Trazado_1054635" data-name="Trazado 1054635" d="M49.545,12.293l-3.252,3.252,5.274,5.274-5.274,5.274,3.252,3.252,6.9-6.9a2.3,2.3,0,0,0,0-3.252Z" transform="translate(53.685 15.98)"/>
      <path id="Trazado_1054636" data-name="Trazado 1054636" d="M36.3,55.2H47.8v4.6a2.3,2.3,0,0,0,3.68,1.84l8.586-6.44H82.3a2.3,2.3,0,0,0,2.3-2.3V2.3A2.3,2.3,0,0,0,82.3,0h-46A2.3,2.3,0,0,0,34,2.3V52.9A2.3,2.3,0,0,0,36.3,55.2Zm23-4.6a2.3,2.3,0,0,0-1.38.46L52.4,55.2V52.9a2.3,2.3,0,0,0-2.3-2.3H38.6V23H80V50.6ZM80,4.6V18.4H38.6V4.6Z" transform="translate(37.704 0)"/>
      <path id="Trazado_1054637" data-name="Trazado 1054637" d="M33.375,31.36a2.3,2.3,0,0,0,.478-1.907c-.373-1.9-.69-6.378.713-8.087A1.865,1.865,0,0,1,36.2,20.7a2.3,2.3,0,0,0,2.3-2.3V13.8a2.3,2.3,0,0,0-2.3-2.3,1.865,1.865,0,0,1-1.633-.667c-1.4-1.709-1.086-6.185-.713-8.087A2.3,2.3,0,0,0,31.6,0H27V4.6h1.989a13.492,13.492,0,0,0,2.017,9.147,6.249,6.249,0,0,0,2.893,2v.708a6.249,6.249,0,0,0-2.893,2A13.492,13.492,0,0,0,28.989,27.6H27v4.6h4.6a2.3,2.3,0,0,0,1.776-.839Z" transform="translate(28.604 0)"/>
      <path id="Trazado_1054638" data-name="Trazado 1054638" d="M19,6h4.6v4.6H19Z" transform="translate(18.205 7.8)"/>
      <path id="Trazado_1054639" data-name="Trazado 1054639" d="M15,6h4.6v4.6H15Z" transform="translate(13.005 7.8)"/>
      <path id="Trazado_1054640" data-name="Trazado 1054640" d="M23,6h4.6v4.6H23Z" transform="translate(23.405 7.8)"/>
      <path id="Trazado_1054641" data-name="Trazado 1054641" d="M10.3,20.7a1.865,1.865,0,0,1,1.633.667c1.4,1.709,1.086,6.185.713,8.087A2.3,2.3,0,0,0,14.9,32.2h4.6V27.6H17.51a13.492,13.492,0,0,0-2.017-9.147,6.249,6.249,0,0,0-2.893-2v-.708a6.249,6.249,0,0,0,2.893-2A13.492,13.492,0,0,0,17.51,4.6H19.5V0H14.9a2.3,2.3,0,0,0-2.254,2.746c.373,1.9.69,6.378-.713,8.087A1.865,1.865,0,0,1,10.3,11.5,2.3,2.3,0,0,0,8,13.8v4.6A2.3,2.3,0,0,0,10.3,20.7Z" transform="translate(3.905)"/>
    </g>
  </g>
</svg>
