<svg id="programmer_360487_1_" data-name="programmer_360487 (1)" xmlns="http://www.w3.org/2000/svg" width="124.979" height="124.969" viewBox="0 0 124.979 124.969">
  <g id="Grupo_1225645" data-name="Grupo 1225645" transform="translate(100.495 56.208)">
    <path id="Trazado_1053084" data-name="Trazado 1053084" d="M433.633,233.508v3.056H411.7v-3.056a3.222,3.222,0,0,1,3.222-3.222h15.49a3.222,3.222,0,0,1,3.221,3.222Z" transform="translate(-411.7 -230.286)" fill="#ecebed"/>
    <path id="Trazado_1053085" data-name="Trazado 1053085" d="M415.037,347.646h18.595v3.924a3.222,3.222,0,0,1-3.222,3.222h-15.49a3.221,3.221,0,0,1-3.222-3.222v-3.924Z" transform="translate(-411.699 -318.999)" fill="#ecebed"/>
  </g>
  <g id="Grupo_1225646" data-name="Grupo 1225646" transform="translate(2.563 54.012)">
    <rect id="Rectángulo_422196" data-name="Rectángulo 422196" width="21.933" height="22.369" transform="translate(97.933 8.474)" fill="#27b5f7"/>
    <path id="Trazado_1053086" data-name="Trazado 1053086" d="M70.9,224.741v39.122H10.5V224.741a3.374,3.374,0,0,1,3.292-3.449H67.6a3.374,3.374,0,0,1,3.292,3.449Z" transform="translate(-10.499 -221.292)" fill="#27b5f7"/>
  </g>
  <path id="Trazado_1053087" data-name="Trazado 1053087" d="M137.469,319.126v4.968a4.112,4.112,0,0,1-2.53,3.8l-16.413,6.839a10.072,10.072,0,0,0-5.726,9.129v19.794h69.9V343.857a10.072,10.072,0,0,0-5.726-9.129l-16.413-6.839a4.112,4.112,0,0,1-2.53-3.8v-4.968Z" transform="translate(-85.265 -241.232)" fill="#febba0"/>
  <path id="Trazado_1053088" data-name="Trazado 1053088" d="M176.969,351.616l-16.413-6.839a4.11,4.11,0,0,1-2.5-3.31V344.6a10.345,10.345,0,0,1-10.314,10.314h0A10.345,10.345,0,0,1,137.428,344.6V341.53a4.11,4.11,0,0,1-2.492,3.247l-16.413,6.839a10.072,10.072,0,0,0-5.726,9.129v19.794h69.9V360.744A10.072,10.072,0,0,0,176.969,351.616Z" transform="translate(-85.263 -258.12)" fill="#89cd37"/>
  <path id="Trazado_1053089" data-name="Trazado 1053089" d="M190.158,105.219V97.788a22.908,22.908,0,0,0-45.816,0h-.09v7.431a5.713,5.713,0,0,0,0,11.425v4.265a11.2,11.2,0,0,0,4.685,8.553l13.81,7.895a7.924,7.924,0,0,0,8.918,0l13.768-7.895a11.244,11.244,0,0,0,4.726-8.553v-4.265a5.713,5.713,0,1,0,0-11.425Z" transform="translate(-104.722 -56.607)" fill="#febba0"/>
  <path id="Trazado_1053090" data-name="Trazado 1053090" d="M192.974,40.166c-4.322-5.507-8.892-6.682-12.285-5.031-2.69-2.3-6.721-4.6-13.454-4.6-15.207,0-23.527,11.666-23.527,22.036,0,11.066,4.451,18.117,4.451,18.117s1.658-11.64,13.053-11.64c7.617,0,12.207-3.024,15.411-6.735,1.361,3.547,7.953,5.036,10.543,7.325,5.125,4.53,6.9,8.075,6.9,8.075S202.138,51.841,192.974,40.166Z" transform="translate(-108.629 -23.089)" fill="#703e41"/>
  <path id="Trazado_1053091" data-name="Trazado 1053091" d="M105.565,254.839h-.033a2.55,2.55,0,1,1,0-5.1h.033a2.55,2.55,0,1,1,0,5.1Z" transform="translate(-77.843 -188.782)"/>
  <path id="Trazado_1053092" data-name="Trazado 1053092" d="M49.2,254.839H41.918a2.55,2.55,0,1,1,0-5.1H49.2a2.55,2.55,0,1,1,0,5.1Z" transform="translate(-29.758 -188.782)"/>
  <path id="Trazado_1053093" data-name="Trazado 1053093" d="M62.52,315.785h-20.6a2.55,2.55,0,0,1,0-5.1h20.6a2.55,2.55,0,0,1,0,5.1Z" transform="translate(-29.758 -234.851)"/>
  <path id="Trazado_1053094" data-name="Trazado 1053094" d="M105.565,285.311h-.033a2.55,2.55,0,0,1,0-5.1h.033a2.55,2.55,0,1,1,0,5.1Z" transform="translate(-77.843 -211.816)"/>
  <path id="Trazado_1053095" data-name="Trazado 1053095" d="M49.2,285.312H41.918a2.55,2.55,0,1,1,0-5.1H49.2a2.55,2.55,0,1,1,0,5.1Z" transform="translate(-29.758 -211.816)"/>
  <path id="Trazado_1053096" data-name="Trazado 1053096" d="M136.188,285.312h-.238a2.55,2.55,0,1,1,0-5.1h.238a2.55,2.55,0,1,1,0,5.1Z" transform="translate(-100.836 -211.816)"/>
  <path id="Trazado_1053097" data-name="Trazado 1053097" d="M2.584,496.186H2.55a2.55,2.55,0,0,1,0-5.1h.033a2.55,2.55,0,0,1,0,5.1Z" transform="translate(0 -371.216)"/>
  <path id="Trazado_1053098" data-name="Trazado 1053098" d="M493.5,496.186h-.033a2.55,2.55,0,1,1,0-5.1h.033a2.55,2.55,0,1,1,0,5.1Z" transform="translate(-371.084 -371.216)"/>
  <path id="Trazado_1053099" data-name="Trazado 1053099" d="M285.249,217.826a2.851,2.851,0,1,1,2.851-2.851A2.854,2.854,0,0,1,285.249,217.826Z" transform="translate(-213.465 -160.35)"/>
  <path id="Trazado_1053100" data-name="Trazado 1053100" d="M209.044,217.826a2.851,2.851,0,1,1,2.851-2.851A2.854,2.854,0,0,1,209.044,217.826Z" transform="translate(-155.862 -160.35)"/>
  <path id="Trazado_1053101" data-name="Trazado 1053101" d="M240.4,268.943a5.048,5.048,0,0,1-5.043-5.043,2.55,2.55,0,0,1,2.55-2.55h4.984a2.55,2.55,0,0,1,2.55,2.55A5.048,5.048,0,0,1,240.4,268.943Z" transform="translate(-177.909 -197.559)"/>
  <path id="Trazado_1053102" data-name="Trazado 1053102" d="M197.285,427.848a2.542,2.542,0,0,1-1.8-.747l-5.728-5.728a2.551,2.551,0,0,1,0-3.607l5.728-5.728a2.551,2.551,0,0,1,3.607,3.607l-3.925,3.924,3.925,3.924a2.55,2.55,0,0,1-1.8,4.354Z" transform="translate(-142.871 -310.9)"/>
  <path id="Trazado_1053103" data-name="Trazado 1053103" d="M280.832,427.847a2.55,2.55,0,0,1-1.8-4.354l3.925-3.924-3.925-3.924a2.551,2.551,0,1,1,3.607-3.607l5.728,5.728a2.551,2.551,0,0,1,0,3.607l-5.728,5.728A2.542,2.542,0,0,1,280.832,427.847Z" transform="translate(-210.354 -310.899)"/>
  <path id="Trazado_1053104" data-name="Trazado 1053104" d="M243.922,427.667a2.579,2.579,0,0,1-.465-.042,2.55,2.55,0,0,1-2.047-2.97l2.119-11.514a2.55,2.55,0,1,1,5.016.923l-2.119,11.514A2.552,2.552,0,0,1,243.922,427.667Z" transform="translate(-182.451 -310.719)"/>
  <path id="Trazado_1053105" data-name="Trazado 1053105" d="M57.88,84.834a7.7,7.7,0,0,1-7.694-7.693V72.126a7.694,7.694,0,0,1,15.387,0v5.016A7.7,7.7,0,0,1,57.88,84.834Zm0-15.3a2.6,2.6,0,0,0-2.593,2.593v5.016a2.593,2.593,0,1,0,5.186,0V72.126A2.6,2.6,0,0,0,57.88,69.532Z" transform="translate(-37.936 -48.709)"/>
  <path id="Trazado_1053106" data-name="Trazado 1053106" d="M7.783,84.835a2.55,2.55,0,0,1-2.55-2.55V73.14l-.828.828A2.551,2.551,0,0,1,.8,70.361l5.182-5.182a2.55,2.55,0,0,1,4.354,1.8v15.3A2.55,2.55,0,0,1,7.783,84.835Z" transform="translate(-0.038 -48.709)"/>
  <path id="Trazado_1053107" data-name="Trazado 1053107" d="M407.029,20.422a7.7,7.7,0,0,1-7.693-7.694V7.713a7.694,7.694,0,0,1,15.387,0v5.016A7.7,7.7,0,0,1,407.029,20.422Zm0-15.3a2.6,2.6,0,0,0-2.593,2.593v5.016a2.593,2.593,0,0,0,5.186,0V7.713A2.6,2.6,0,0,0,407.029,5.12Z" transform="translate(-301.859 -0.019)"/>
  <path id="Trazado_1053108" data-name="Trazado 1053108" d="M477.607,20.422a2.55,2.55,0,0,1-2.55-2.55V8.726l-.828.829a2.551,2.551,0,1,1-3.607-3.607L475.8.766a2.55,2.55,0,0,1,4.354,1.8v15.3A2.55,2.55,0,0,1,477.607,20.422Z" transform="translate(-355.178 -0.019)"/>
  <path id="Trazado_1053109" data-name="Trazado 1053109" d="M422.513,219.838h-15.49a5.779,5.779,0,0,0-5.772,5.772v29.349a5.779,5.779,0,0,0,5.772,5.772h15.49a5.779,5.779,0,0,0,5.772-5.772V225.61A5.779,5.779,0,0,0,422.513,219.838Zm-16.161,11.379h16.832v17.268H406.352Zm0-5.607a.672.672,0,0,1,.671-.672h15.49a.672.672,0,0,1,.671.672v.506H406.352v-.506Zm16.832,29.349a.672.672,0,0,1-.671.672h-15.49a.672.672,0,0,1-.671-.672v-1.373h16.832v1.373Z" transform="translate(-303.306 -166.18)"/>
  <path id="Trazado_1053110" data-name="Trazado 1053110" d="M114.17,135.059H100.021V117.815a12.567,12.567,0,0,0-7.3-11.483L76.312,99.494a1.556,1.556,0,0,1-.941-1.2c0-.012,0-.024,0-.037a1.535,1.535,0,0,1-.015-.2V94.081l6.666-3.822c.046-.027.092-.055.137-.084a13.773,13.773,0,0,0,5.863-10.487c.005-.064.007-.13.007-.194V77.376a8.264,8.264,0,0,0,0-15.721V60.39c1.455-3.166,7.5-18.065-1.634-29.7-4.219-5.377-9.28-7.662-13.837-6.354A22.542,22.542,0,0,0,58.645,20.09c-16.323,0-26.078,12.5-26.078,24.586A41.191,41.191,0,0,0,36.25,61.951a8.307,8.307,0,0,0-4.426,4.7H5.893a5.929,5.929,0,0,0-5.842,6v39.122a2.55,2.55,0,0,0,2.55,2.55H16.979V119.5H15.1a2.55,2.55,0,1,0,0,5.1h9.924v10.456H10.873a2.55,2.55,0,0,0,0,5.1h103.3a2.55,2.55,0,1,0,0-5.1ZM88.637,69.516a3.166,3.166,0,0,1-3.162,3.162,2.55,2.55,0,0,0-2.55,2.55V79.39a8.778,8.778,0,0,1-3.52,6.487L65.712,93.728c-.047.027-.092.055-.137.084a5.4,5.4,0,0,1-6.107,0c-.046-.03-.092-.059-.14-.086L45.6,85.876a8.644,8.644,0,0,1-3.477-6.485V75.229a2.55,2.55,0,0,0-2.55-2.55,3.16,3.16,0,0,1-.517-6.278l2.824,1.428a10.579,10.579,0,0,0,20.643,4.638,10.579,10.579,0,0,0,20.65-4.607L86,66.4A3.165,3.165,0,0,1,88.637,69.516ZM70.251,97.006v4.66a7.729,7.729,0,1,1-15.458,0V97.009l1.938,1.108a10.488,10.488,0,0,0,11.584,0Zm2.582-37.47a10.6,10.6,0,0,0-10.314,8.231,10.571,10.571,0,0,0-18.366-4.5l-1.879-.95c.59-2.334,2.869-8.608,10.349-8.608,6.108,0,11.1-1.772,15.167-5.4a24.34,24.34,0,0,0,5.57,3.353,18.622,18.622,0,0,1,3.528,2A31.88,31.88,0,0,1,82.924,60.5v1.744l-2.02,1.04A10.558,10.558,0,0,0,72.832,59.536Zm5.48,10.58a5.48,5.48,0,1,1-5.48-5.48A5.486,5.486,0,0,1,78.312,70.117Zm-20.629,0a5.48,5.48,0,1,1-5.48-5.48A5.486,5.486,0,0,1,57.684,70.117Zm.962-44.926c6.4,0,9.8,2.274,11.8,3.984a2.551,2.551,0,0,0,2.773.354c2.618-1.274,6.044.337,9.163,4.312h0c5.357,6.825,3.961,15.533,2.418,20.612a43.292,43.292,0,0,0-4.531-4.62,21,21,0,0,0-4.672-2.763c-2.088-1.017-4.687-2.283-5.179-3.565a2.55,2.55,0,0,0-4.312-.753c-3.446,3.992-7.73,5.851-13.48,5.851a14.609,14.609,0,0,0-12.955,7.008c-.09.142-.176.283-.26.424a37.415,37.415,0,0,1-1.739-11.359C37.668,35.1,45.514,25.191,58.645,25.191ZM25.022,117.815V119.5H22.08v-5.177h3.437A12.745,12.745,0,0,0,25.022,117.815Zm3.292-8.591H5.152V72.652a.843.843,0,0,1,.742-.9H31.62a8.3,8.3,0,0,0,5.4,5.623v2.117c0,.065,0,.13.007.194a13.757,13.757,0,0,0,5.822,10.487q.068.045.14.086l6.7,3.833v3.959a1.557,1.557,0,0,1-.961,1.441l-16.414,6.839A11.183,11.183,0,0,0,28.314,109.225ZM94.92,135.059h-64.8V117.815a7.56,7.56,0,0,1,4.157-6.774L49.972,104.5a12.861,12.861,0,0,0,25.092,0l15.7,6.541a7.56,7.56,0,0,1,4.157,6.774v17.244Z" transform="translate(-0.039 -15.191)"/>
</svg>
