<svg xmlns="http://www.w3.org/2000/svg" xmlns:xlink="http://www.w3.org/1999/xlink" width="113" height="113" viewBox="0 0 113 113">
  <defs>
    <filter id="Trazado_982547" x="0" y="0" width="113" height="113" filterUnits="userSpaceOnUse">
      <feOffset dy="3" input="SourceAlpha"/>
      <feGaussianBlur stdDeviation="3" result="blur"/>
      <feFlood flood-opacity="0.161"/>
      <feComposite operator="in" in2="blur"/>
      <feComposite in="SourceGraphic"/>
    </filter>
  </defs>
  <g id="Grupo_1226070" data-name="Grupo 1226070" transform="translate(-812.51 -6641.041)">
    <g id="Grupo_1225735" data-name="Grupo 1225735" transform="translate(821.51 6647.041)">
      <g id="Grupo_1224582" data-name="Grupo 1224582" transform="translate(0 0)">
        <g id="Grupo_1224449" data-name="Grupo 1224449" transform="translate(0)">
          <g id="Grupo_1224084" data-name="Grupo 1224084">
            <g id="Grupo_1223183" data-name="Grupo 1223183">
              <g id="Grupo_1211217" data-name="Grupo 1211217">
                <g id="Grupo_1210736" data-name="Grupo 1210736">
                  <g id="Grupo_1210537" data-name="Grupo 1210537">
                    <g id="Grupo_1164202" data-name="Grupo 1164202">
                      <g id="Grupo_1158168" data-name="Grupo 1158168">
                        <g id="Grupo_1152576" data-name="Grupo 1152576">
                          <g id="Grupo_1148633" data-name="Grupo 1148633">
                            <g id="Grupo_1148525" data-name="Grupo 1148525">
                              <g transform="matrix(1, 0, 0, 1, -9, -6)" filter="url(#Trazado_982547)">
                                <g id="Trazado_982547-2" data-name="Trazado 982547" transform="translate(9 6)" fill="#fef9e5">
                                  <path d="M 47.49999237060547 93.49999237060547 C 41.28937911987305 93.49999237060547 35.26532745361328 92.28396606445312 29.59519195556641 89.88569641113281 C 24.11772537231445 87.56892395019531 19.19813919067383 84.251953125 14.97309875488281 80.02690124511719 C 10.74804592132568 75.80185699462891 7.431072235107422 70.88227081298828 5.114298820495605 65.40480804443359 C 2.716032266616821 59.73465728759766 1.500005722045898 53.71060562133789 1.500005722045898 47.49999237060547 C 1.500005722045898 41.28937911987305 2.716032266616821 35.26532745361328 5.114298820495605 29.59517860412598 C 7.431072235107422 24.11771202087402 10.74804592132568 19.1981258392334 14.97309875488281 14.97308540344238 C 19.19813919067383 10.74804592132568 24.11772537231445 7.431072235107422 29.59519195556641 5.114298820495605 C 35.26532745361328 2.716032266616821 41.28937911987305 1.500005722045898 47.49999237060547 1.500005722045898 C 53.71062088012695 1.500005722045898 59.73465728759766 2.716032266616821 65.40480804443359 5.114298820495605 C 70.88227081298828 7.431072235107422 75.80185699462891 10.74804592132568 80.02690124511719 14.97308540344238 C 84.251953125 19.1981258392334 87.56892395019531 24.11771202087402 89.88569641113281 29.59517860412598 C 92.28396606445312 35.26532745361328 93.49999237060547 41.28937911987305 93.49999237060547 47.49999237060547 C 93.49999237060547 53.71062088012695 92.28396606445312 59.73465728759766 89.88569641113281 65.40480804443359 C 87.56892395019531 70.88227081298828 84.251953125 75.80185699462891 80.02690124511719 80.02690124511719 C 75.80185699462891 84.251953125 70.88227081298828 87.56892395019531 65.40480804443359 89.88569641113281 C 59.73465728759766 92.28396606445312 53.71062088012695 93.49999237060547 47.49999237060547 93.49999237060547 Z" stroke="none"/>
                                  <path d="M 47.49999237060547 2.999992370605469 C 41.49120712280273 2.999992370605469 35.66376113891602 4.1761474609375 30.17951202392578 6.49578857421875 C 24.88083648681641 8.736946105957031 20.12151336669922 11.94597625732422 16.03374481201172 16.03374481201172 C 11.94597625732422 20.12151336669922 8.736946105957031 24.88083648681641 6.49578857421875 30.17949676513672 C 4.1761474609375 35.66376113891602 2.999992370605469 41.49120712280273 2.999992370605469 47.49999237060547 C 2.999992370605469 53.5087776184082 4.1761474609375 59.33622360229492 6.49578857421875 64.82046508789062 C 8.736946105957031 70.11914825439453 11.94597625732422 74.87847137451172 16.03374481201172 78.96623992919922 C 20.12151336669922 83.05400848388672 24.88083648681641 86.26303863525391 30.17951202392578 88.50418090820312 C 35.66376113891602 90.82382202148438 41.49120712280273 91.99997711181641 47.49999237060547 91.99997711181641 C 53.5087776184082 91.99997711181641 59.33622360229492 90.82382202148438 64.82046508789062 88.50418090820312 C 70.11914825439453 86.26303863525391 74.87847137451172 83.05400848388672 78.96623992919922 78.96623992919922 C 83.05400848388672 74.87847137451172 86.26303863525391 70.11914825439453 88.50418090820312 64.82046508789062 C 90.82382202148438 59.33622360229492 91.99997711181641 53.5087776184082 91.99997711181641 47.49999237060547 C 91.99997711181641 41.49120712280273 90.82382202148438 35.66376113891602 88.50418090820312 30.17949676513672 C 86.26303863525391 24.88083648681641 83.05400848388672 20.12151336669922 78.96623992919922 16.03374481201172 C 74.87847137451172 11.94597625732422 70.11914825439453 8.736946105957031 64.82046508789062 6.49578857421875 C 59.33622360229492 4.1761474609375 53.5087776184082 2.999992370605469 47.49999237060547 2.999992370605469 M 47.49999237060547 -7.62939453125e-06 C 73.73351287841797 -7.62939453125e-06 94.99997711181641 21.26647186279297 94.99997711181641 47.49999237060547 C 94.99997711181641 73.73351287841797 73.73351287841797 94.99997711181641 47.49999237060547 94.99997711181641 C 21.26648712158203 94.99997711181641 -7.62939453125e-06 73.73351287841797 -7.62939453125e-06 47.49999237060547 C -7.62939453125e-06 21.26647186279297 21.26648712158203 -7.62939453125e-06 47.49999237060547 -7.62939453125e-06 Z" stroke="none" fill="#f6c810"/>
                                </g>
                              </g>
                            </g>
                          </g>
                        </g>
                      </g>
                    </g>
                  </g>
                </g>
              </g>
            </g>
          </g>
        </g>
      </g>
    </g>
    <g id="error_2145800" transform="translate(781.532 6648.58)">
      <path id="Trazado_1054454" data-name="Trazado 1054454" d="M117.94,288v20.972a4,4,0,0,1-3.995,3.995H75.995A4,4,0,0,1,72,308.972V288Z" transform="translate(-7.001 -238.045)" fill="#548aff"/>
      <path id="Trazado_1054455" data-name="Trazado 1054455" d="M117.94,40.634v8.333H72V27.995A4,4,0,0,1,75.994,24h25.311a4,4,0,0,1,2.824,1.17L116.77,37.811a4,4,0,0,1,1.17,2.824Z" transform="translate(-7.001 -7.002)" fill="#548aff"/>
      <circle id="Elipse_13342" data-name="Elipse 13342" cx="10.092" cy="10.092" r="10.092" transform="translate(77.876 35.869)" fill="#e33d3d"/>
      <path id="Trazado_1054456" data-name="Trazado 1054456" d="M334.621,41.5H323.995A4,4,0,0,1,320,37.507V26.88a3.973,3.973,0,0,1,1.17.81l12.641,12.641A3.972,3.972,0,0,1,334.621,41.5Z" transform="translate(-224.042 -9.522)" fill="#7dafff"/>
      <path id="Trazado_1054457" data-name="Trazado 1054457" d="M216,72h7.989v2H216Z" transform="translate(-133.025 -49.009)"/>
      <path id="Trazado_1054458" data-name="Trazado 1054458" d="M168,72h3v2h-3Z" transform="translate(-91.017 -49.009)"/>
      <path id="Trazado_1054459" data-name="Trazado 1054459" d="M192,120h10.986v2H192Z" transform="translate(-112.021 -91.017)"/>
      <path id="Trazado_1054460" data-name="Trazado 1054460" d="M120,120h5.992v2H120Z" transform="translate(-49.009 -91.017)"/>
      <path id="Trazado_1054461" data-name="Trazado 1054461" d="M312,376h9.987v2H312Z" transform="translate(-217.041 -315.059)"/>
      <path id="Trazado_1054462" data-name="Trazado 1054462" d="M208,376h9.987v2H208Z" transform="translate(-126.024 -315.059)"/>
      <path id="Trazado_1054463" data-name="Trazado 1054463" d="M120,376h7.99v2H120Z" transform="translate(-49.009 -315.059)"/>
      <path id="Trazado_1054464" data-name="Trazado 1054464" d="M368,424h3v2h-3Z" transform="translate(-266.05 -357.067)"/>
      <path id="Trazado_1054465" data-name="Trazado 1054465" d="M280,424h7.989v2H280Z" transform="translate(-189.036 -357.067)"/>
      <path id="Trazado_1054466" data-name="Trazado 1054466" d="M120,424h16.978v2H120Z" transform="translate(-49.009 -357.067)"/>
      <path id="Trazado_1054467" data-name="Trazado 1054467" d="M120,216h3.995v2H120Z" transform="translate(-49.009 -175.033)"/>
      <path id="Trazado_1054468" data-name="Trazado 1054468" d="M360,216h3v2h-3Z" transform="translate(-259.049 -175.033)"/>
      <path id="Trazado_1054469" data-name="Trazado 1054469" d="M120,280h3.995v2H120Z" transform="translate(-49.009 -231.044)"/>
      <path id="Trazado_1054470" data-name="Trazado 1054470" d="M68.993,306.965h37.95a5,5,0,0,0,4.993-4.993V281a1,1,0,0,0-1-1h-3.995v2h3v19.974a3,3,0,0,1-3,3H68.993a3,3,0,0,1-3-3V282h2v-2H65a1,1,0,0,0-1,1v20.972A5,5,0,0,0,68.993,306.965Z" transform="translate(0 -231.044)"/>
      <path id="Trazado_1054471" data-name="Trazado 1054471" d="M360,280h3v2h-3Z" transform="translate(-259.049 -231.044)"/>
      <path id="Trazado_1054472" data-name="Trazado 1054472" d="M178.986,189.971A10.986,10.986,0,1,0,168,178.986,10.986,10.986,0,0,0,178.986,189.971Zm0-19.974A8.988,8.988,0,1,1,170,178.986,8.988,8.988,0,0,1,178.986,170Z" transform="translate(-91.017 -133.025)"/>
      <path id="Trazado_1054473" data-name="Trazado 1054473" d="M219.755,227.745l3.289-3.289,3.289,3.289,1.412-1.412-3.289-3.289,3.289-3.289-1.412-1.412-3.289,3.289-3.289-3.289-1.412,1.412,3.289,3.289-3.289,3.289Z" transform="translate(-135.076 -177.084)"/>
      <path id="Trazado_1054474" data-name="Trazado 1054474" d="M65,42.964h3v-2H66V20.993a3,3,0,0,1,3-3H94.3a3.02,3.02,0,0,1,.656.073v9.914a5,5,0,0,0,4.993,4.993h5.992v-2H99.953a3,3,0,0,1-3-3V19.409l12.105,12.105a2.977,2.977,0,0,1,.878,2.119v7.333h-3v2h3.995a1,1,0,0,0,1-1V33.633a4.961,4.961,0,0,0-1.463-3.531l-12.64-12.64A4.96,4.96,0,0,0,94.3,16H68.993A5,5,0,0,0,64,20.993V41.966a1,1,0,0,0,1,1Z" transform="translate(0)"/>
    </g>
  </g>
</svg>
