<svg xmlns="http://www.w3.org/2000/svg" xmlns:xlink="http://www.w3.org/1999/xlink" width="113" height="113" viewBox="0 0 113 113">
  <defs>
    <filter id="Trazado_982547" x="0" y="0" width="113" height="113" filterUnits="userSpaceOnUse">
      <feOffset dy="3" input="SourceAlpha"/>
      <feGaussianBlur stdDeviation="3" result="blur"/>
      <feFlood flood-opacity="0.161"/>
      <feComposite operator="in" in2="blur"/>
      <feComposite in="SourceGraphic"/>
    </filter>
  </defs>
  <g id="Grupo_1226074" data-name="Grupo 1226074" transform="translate(-1633.51 -6641.041)">
    <g id="Grupo_1225736" data-name="Grupo 1225736" transform="translate(1642.51 6647.041)">
      <g id="Grupo_1224583" data-name="Grupo 1224583" transform="translate(0 0)">
        <g id="Grupo_1224450" data-name="Grupo 1224450" transform="translate(0)">
          <g id="Grupo_1224085" data-name="Grupo 1224085">
            <g id="Grupo_1223184" data-name="Grupo 1223184">
              <g id="Grupo_1211216" data-name="Grupo 1211216">
                <g id="Grupo_1210737" data-name="Grupo 1210737">
                  <g id="Grupo_1210537" data-name="Grupo 1210537">
                    <g id="Grupo_1164202" data-name="Grupo 1164202">
                      <g id="Grupo_1158168" data-name="Grupo 1158168">
                        <g id="Grupo_1152576" data-name="Grupo 1152576">
                          <g id="Grupo_1148633" data-name="Grupo 1148633">
                            <g id="Grupo_1148525" data-name="Grupo 1148525">
                              <g transform="matrix(1, 0, 0, 1, -9, -6)" filter="url(#Trazado_982547)">
                                <g id="Trazado_982547-2" data-name="Trazado 982547" transform="translate(9 6)" fill="#fef9e5">
                                  <path d="M 47.49999237060547 93.49999237060547 C 41.28937911987305 93.49999237060547 35.26532745361328 92.28396606445312 29.59519195556641 89.88569641113281 C 24.11772537231445 87.56892395019531 19.19813919067383 84.251953125 14.97309875488281 80.02690124511719 C 10.74804592132568 75.80185699462891 7.431072235107422 70.88227081298828 5.114298820495605 65.40480804443359 C 2.716032266616821 59.73465728759766 1.500005722045898 53.71060562133789 1.500005722045898 47.49999237060547 C 1.500005722045898 41.28937911987305 2.716032266616821 35.26532745361328 5.114298820495605 29.59517860412598 C 7.431072235107422 24.11771202087402 10.74804592132568 19.1981258392334 14.97309875488281 14.97308540344238 C 19.19813919067383 10.74804592132568 24.11772537231445 7.431072235107422 29.59519195556641 5.114298820495605 C 35.26532745361328 2.716032266616821 41.28937911987305 1.500005722045898 47.49999237060547 1.500005722045898 C 53.71062088012695 1.500005722045898 59.73465728759766 2.716032266616821 65.40480804443359 5.114298820495605 C 70.88227081298828 7.431072235107422 75.80185699462891 10.74804592132568 80.02690124511719 14.97308540344238 C 84.251953125 19.1981258392334 87.56892395019531 24.11771202087402 89.88569641113281 29.59517860412598 C 92.28396606445312 35.26532745361328 93.49999237060547 41.28937911987305 93.49999237060547 47.49999237060547 C 93.49999237060547 53.71062088012695 92.28396606445312 59.73465728759766 89.88569641113281 65.40480804443359 C 87.56892395019531 70.88227081298828 84.251953125 75.80185699462891 80.02690124511719 80.02690124511719 C 75.80185699462891 84.251953125 70.88227081298828 87.56892395019531 65.40480804443359 89.88569641113281 C 59.73465728759766 92.28396606445312 53.71062088012695 93.49999237060547 47.49999237060547 93.49999237060547 Z" stroke="none"/>
                                  <path d="M 47.49999237060547 2.999992370605469 C 41.49120712280273 2.999992370605469 35.66376113891602 4.1761474609375 30.17951202392578 6.49578857421875 C 24.88083648681641 8.736946105957031 20.12151336669922 11.94597625732422 16.03374481201172 16.03374481201172 C 11.94597625732422 20.12151336669922 8.736946105957031 24.88083648681641 6.49578857421875 30.17949676513672 C 4.1761474609375 35.66376113891602 2.999992370605469 41.49120712280273 2.999992370605469 47.49999237060547 C 2.999992370605469 53.5087776184082 4.1761474609375 59.33622360229492 6.49578857421875 64.82046508789062 C 8.736946105957031 70.11914825439453 11.94597625732422 74.87847137451172 16.03374481201172 78.96623992919922 C 20.12151336669922 83.05400848388672 24.88083648681641 86.26303863525391 30.17951202392578 88.50418090820312 C 35.66376113891602 90.82382202148438 41.49120712280273 91.99997711181641 47.49999237060547 91.99997711181641 C 53.5087776184082 91.99997711181641 59.33622360229492 90.82382202148438 64.82046508789062 88.50418090820312 C 70.11914825439453 86.26303863525391 74.87847137451172 83.05400848388672 78.96623992919922 78.96623992919922 C 83.05400848388672 74.87847137451172 86.26303863525391 70.11914825439453 88.50418090820312 64.82046508789062 C 90.82382202148438 59.33622360229492 91.99997711181641 53.5087776184082 91.99997711181641 47.49999237060547 C 91.99997711181641 41.49120712280273 90.82382202148438 35.66376113891602 88.50418090820312 30.17949676513672 C 86.26303863525391 24.88083648681641 83.05400848388672 20.12151336669922 78.96623992919922 16.03374481201172 C 74.87847137451172 11.94597625732422 70.11914825439453 8.736946105957031 64.82046508789062 6.49578857421875 C 59.33622360229492 4.1761474609375 53.5087776184082 2.999992370605469 47.49999237060547 2.999992370605469 M 47.49999237060547 -7.62939453125e-06 C 73.73351287841797 -7.62939453125e-06 94.99997711181641 21.26647186279297 94.99997711181641 47.49999237060547 C 94.99997711181641 73.73351287841797 73.73351287841797 94.99997711181641 47.49999237060547 94.99997711181641 C 21.26648712158203 94.99997711181641 -7.62939453125e-06 73.73351287841797 -7.62939453125e-06 47.49999237060547 C -7.62939453125e-06 21.26647186279297 21.26648712158203 -7.62939453125e-06 47.49999237060547 -7.62939453125e-06 Z" stroke="none" fill="#f6c810"/>
                                </g>
                              </g>
                            </g>
                          </g>
                        </g>
                      </g>
                    </g>
                  </g>
                </g>
              </g>
            </g>
          </g>
        </g>
      </g>
    </g>
    <g id="Page-1" transform="translate(1660.501 6661.541)">
      <g id="_035---Give-Encryption" data-name="035---Give-Encryption">
        <g id="Icons" transform="translate(1 1)">
          <path id="Shape" d="M44,16v2H20V16a2.006,2.006,0,0,1,2-2H42A2.006,2.006,0,0,1,44,16Z" fill="#fec108"/>
          <path id="Shape-2" data-name="Shape" d="M48,20V41.75L35.88,45.79a3.933,3.933,0,0,1-1.27.21H32.26a3.618,3.618,0,0,0,.55-4.42l-.09-.15A4.989,4.989,0,0,0,28.43,39H23.2a9.159,9.159,0,0,1-5.7-2,9.148,9.148,0,0,0-1.5-.97V20a2.006,2.006,0,0,1,2-2H46a2.006,2.006,0,0,1,2,2Z" fill="#ffdc00"/>
          <path id="Shape-3" data-name="Shape" d="M46,18H43a2.006,2.006,0,0,1,2,2V41.75L32.88,45.79a3.915,3.915,0,0,1-.562.141c-.021.022-.036.047-.058.069h2.35a3.933,3.933,0,0,0,1.27-.21L48,41.75V20A2.006,2.006,0,0,0,46,18Z" fill="#fec108"/>
          <path id="Shape-4" data-name="Shape" d="M9,35V56a2,2,0,0,1-2,2H2a2.006,2.006,0,0,1-2-2V35a2.006,2.006,0,0,1,2-2H7A2.006,2.006,0,0,1,9,35Z" fill="#60a917"/>
          <path id="Shape-5" data-name="Shape" d="M7,33H4a2.006,2.006,0,0,1,2,2V56a2,2,0,0,1-2,2H7a2,2,0,0,0,2-2V35A2.006,2.006,0,0,0,7,33Z" fill="#549414"/>
          <path id="Shape-6" data-name="Shape" d="M56.68,44.57,37.94,55.98A7,7,0,0,1,34.3,57H9l-.24-.05A2.028,2.028,0,0,0,9,56V35h2.8a9.226,9.226,0,0,1,5.7,2,9.159,9.159,0,0,0,5.7,2h5.23a4.989,4.989,0,0,1,4.29,2.43l.09.15A3.618,3.618,0,0,1,32.26,46h2.35a3.933,3.933,0,0,0,1.27-.21L48,41.75l6.39-2.13a2.755,2.755,0,0,1,3.06.96v.01a2.73,2.73,0,0,1-.77,3.98Z" fill="#ffe0b2"/>
          <g id="Grupo_1226073" data-name="Grupo 1226073">
            <path id="Shape-7" data-name="Shape" d="M29.72,41.43l.09.15A3.618,3.618,0,0,1,29.26,46h2.35a3.914,3.914,0,0,0,.708-.069,3.614,3.614,0,0,0,.492-4.351l-.09-.15A4.989,4.989,0,0,0,28.43,39h-3a4.989,4.989,0,0,1,4.29,2.43Z" fill="#dfc49c"/>
            <path id="Shape-8" data-name="Shape" d="M57.45,40.59v-.01a2.755,2.755,0,0,0-3.06-.96l-.749.25a2.735,2.735,0,0,1,.809.71v.01a2.73,2.73,0,0,1-.77,3.98L34.94,55.98A7,7,0,0,1,31.3,57h3a7,7,0,0,0,3.64-1.02L56.68,44.57a2.73,2.73,0,0,0,.77-3.98Z" fill="#dfc49c"/>
            <path id="Shape-9" data-name="Shape" d="M13,36.03a9.148,9.148,0,0,1,1.5.97,9.159,9.159,0,0,0,5.7,2h3a9.159,9.159,0,0,1-5.7-2,9.226,9.226,0,0,0-5.7-2H9v.012a9.119,9.119,0,0,1,4,1.018Z" fill="#dfc49c"/>
          </g>
          <path id="Shape-10" data-name="Shape" d="M40,8v6H36V8a4,4,0,0,0-8,0v6H24V8A8,8,0,0,1,40,8Z" fill="#7f8e94"/>
          <path id="Shape-11" data-name="Shape" d="M32,0a7.951,7.951,0,0,0-1.5.146A8,8,0,0,1,37,8v6h3V8A8,8,0,0,0,32,0Z" fill="#545c60"/>
        </g>
        <g id="Layer_11">
          <path id="Shape-12" data-name="Shape" d="M3,60H8a2.985,2.985,0,0,0,2.22-1H35.3a7.985,7.985,0,0,0,4.159-1.167L58.2,46.424a3.745,3.745,0,0,0,1.728-2.486,3.682,3.682,0,0,0-.626-2.873.98.98,0,0,0-.058-.085,3.732,3.732,0,0,0-4.175-1.3L50,41.367V21a3,3,0,0,0-3-3H46V17a3,3,0,0,0-3-3H42V9A9,9,0,0,0,24,9v5H23a3,3,0,0,0-3,3v1H19a3,3,0,0,0-3,3V35.527A10.123,10.123,0,0,0,12.8,35H10.816A3,3,0,0,0,8,33H3a3,3,0,0,0-3,3V57A3,3,0,0,0,3,60ZM26,9A7,7,0,0,1,40,9v5H38V9A5,5,0,0,0,28,9v5H26ZM36,9v5H30V9a3,3,0,0,1,6,0ZM22,17a1,1,0,0,1,1-1H43a1,1,0,0,1,1,1v1H22Zm-4,4a1,1,0,0,1,1-1H47a1,1,0,0,1,1,1V42.034L36.562,45.846a2.993,2.993,0,0,1-.948.154h-.575a4.6,4.6,0,0,0-.373-3.939l-.089-.147A6.028,6.028,0,0,0,29.432,39H24.2a8.153,8.153,0,0,1-5.077-1.781A10.17,10.17,0,0,0,18,36.449ZM11,37h1.8a8.153,8.153,0,0,1,5.077,1.781A10.166,10.166,0,0,0,24.2,41h5.23a4.019,4.019,0,0,1,3.43,1.943l.089.147A2.613,2.613,0,0,1,32.8,46H26.725a9.96,9.96,0,0,0-5.546,1.68l-.733.488a1,1,0,1,0,1.109,1.664l.733-.488A7.969,7.969,0,0,1,26.725,48h8.889a5,5,0,0,0,1.581-.256l18.511-6.171a1.725,1.725,0,0,1,1.888.527c.017.029.037.057.057.085a1.739,1.739,0,0,1-.486,2.53L38.419,56.125A5.991,5.991,0,0,1,35.3,57H11ZM2,36a1,1,0,0,1,1-1H8a1,1,0,0,1,1,1V57a1,1,0,0,1-1,1H3a1,1,0,0,1-1-1Z"/>
          <path id="Shape-13" data-name="Shape" d="M25.324,32.737a1,1,0,0,0,1.352-1.474L23.118,28l3.558-3.263a1,1,0,0,0-1.352-1.474L21.579,26.7a1.755,1.755,0,0,0,0,2.606Z"/>
          <path id="Shape-14" data-name="Shape" d="M39.263,32.676a1,1,0,0,0,1.413.061L44.421,29.3a1.755,1.755,0,0,0,0-2.606L40.677,23.26a1,1,0,1,0-1.352,1.474L42.882,28l-3.558,3.263a1,1,0,0,0-.061,1.413Z"/>
          <path id="Shape-15" data-name="Shape" d="M30,33a1,1,0,0,0,.8-.4l6-8a1,1,0,0,0-1.6-1.2l-6,8A1,1,0,0,0,30,33Z"/>
          <circle id="Oval" cx="1" cy="1" r="1" transform="translate(22 35)"/>
          <path id="Shape-16" data-name="Shape" d="M26,36a1,1,0,0,0,1,1h9a1,1,0,0,0,0-2H27A1,1,0,0,0,26,36Z"/>
          <path id="Shape-17" data-name="Shape" d="M40,37h3a1,1,0,0,0,0-2H40a1,1,0,0,0,0,2Z"/>
          <path id="Shape-18" data-name="Shape" d="M41,39H37a1,1,0,0,0,0,2h4a1,1,0,0,0,0-2Z"/>
        </g>
      </g>
    </g>
  </g>
</svg>
