<svg xmlns="http://www.w3.org/2000/svg" width="400" height="148.505" viewBox="0 0 400 148.505">
  <g id="Grupo_1226084" data-name="Grupo 1226084" transform="translate(-1020 -781.253)">
    <g id="Grupo_1226080" data-name="Grupo 1226080" transform="translate(0 -11396.494)">
      <g id="Grupo_1225644" data-name="Grupo 1225644" transform="translate(0)">
        <rect id="equipo-de-desarrolladores-haciendo-una-tormenta-de-ideas-para-optimizar-el-codigo" width="400" height="96" rx="5" transform="translate(1020 12204)" fill="#4f3864"/>
        <rect id="equipo-de-desarrolladores-haciendo-una-tormenta-de-ideas-para-optimizar-el-codigo-2" data-name="equipo-de-desarrolladores-haciendo-una-tormenta-de-ideas-para-optimizar-el-codigo" width="326" height="110" rx="5" transform="translate(1057 12197)" fill="#11f5d8"/>
      </g>
    </g>
    <g id="programmer_4125145" transform="translate(1151 781.253)">
      <path id="Trazado_1054553" data-name="Trazado 1054553" d="M94.009,120.1c-.031-.015,0,4.05,0-81.436A30.66,30.66,0,0,0,63.349,8H47.942a30.66,30.66,0,0,0-30.66,30.66V120.1A16.742,16.742,0,0,0,8,135.086V149.08a2.475,2.475,0,0,0,2.475,2.475h90.34a2.475,2.475,0,0,0,2.475-2.475V135.086A16.742,16.742,0,0,0,94.009,120.1Z" transform="translate(-5.525 -5.525)" fill="#ffebd2"/>
      <path id="Trazado_1054554" data-name="Trazado 1054554" d="M103.291,370.89v13.993a2.475,2.475,0,0,1-2.475,2.475H10.475A2.475,2.475,0,0,1,8,384.883V370.89a16.746,16.746,0,0,1,11.259-15.822c.031-.031,9.79-3.366,13.341-4.6a16.669,16.669,0,0,0,2.367-1.027,22.6,22.6,0,0,0,41.359,0,16.669,16.669,0,0,0,2.367,1.027c.031.011,13.3,4.6,13.334,4.6A16.748,16.748,0,0,1,103.291,370.89Z" transform="translate(-5.525 -241.328)" fill="#ed524e"/>
      <path id="Trazado_1054555" data-name="Trazado 1054555" d="M37.56,353.864a3.092,3.092,0,0,1-1.461,4.785c-.1.033-7.526,2.574-7.559,2.607a16.356,16.356,0,0,0-11.259,15.513v7.5a3.094,3.094,0,0,1-3.094,3.094H10.475A2.475,2.475,0,0,1,8,384.883V370.89a16.746,16.746,0,0,1,11.259-15.822.013.013,0,0,1,.009,0c10.466-3.744,13.348-4.377,15.7-5.625A22.437,22.437,0,0,0,37.56,353.864Z" transform="translate(-5.525 -241.328)" fill="#da3631"/>
      <path id="Trazado_1054556" data-name="Trazado 1054556" d="M112.741,119.261c-.381-.136-12.62-4.35-13.331-4.6A16.755,16.755,0,0,1,88.12,98.919,30.459,30.459,0,0,0,106.7,70.883V55.409a2.456,2.456,0,0,0-1.613-2.327A24.4,24.4,0,0,1,92.433,42.651a2.473,2.473,0,0,0-4.072-.27A47.077,47.077,0,0,1,48.655,60.5a2.484,2.484,0,0,0-2.623,2.465v7.862A30.508,30.508,0,0,0,64.607,98.935a16.755,16.755,0,0,1-11.289,15.729c-13.1,4.555-13.675,4.6-15.318,5.432V38.66A30.66,30.66,0,0,1,68.66,8H84.067a30.66,30.66,0,0,1,30.66,30.66v81.433a20.266,20.266,0,0,0-1.983-.832Z" transform="translate(-26.243 -5.525)" fill="#585966"/>
      <path id="Trazado_1054557" data-name="Trazado 1054557" d="M85.511,8.033c4.028.187,3.967,6.15-.064,6.212-2.262.035-4.73-.006-7.5-.057-16.93-.313-30.66,13.727-30.66,30.66V60.824a2.469,2.469,0,0,0-1.25,2.137v7.862a30.5,30.5,0,0,0,18.542,28.1l.033.05a16.757,16.757,0,0,1-11.289,15.692C39.82,119.348,39.574,119.3,38,120.1V38.66A30.66,30.66,0,0,1,68.66,8s16.372.011,16.851.033Z" transform="translate(-26.243 -5.525)" fill="#6e6f80"/>
      <path id="Trazado_1054558" data-name="Trazado 1054558" d="M95.5,211.2a3.713,3.713,0,0,1-.989,7.279A30.4,30.4,0,0,1,63.961,188v-7.862a2.484,2.484,0,0,1,2.623-2.465q1.447.077,2.877.068a3.727,3.727,0,0,1,3.775,3.718A30.425,30.425,0,0,0,95.5,211.2Z" transform="translate(-44.172 -122.7)" fill="#fff3e4"/>
      <path id="Trazado_1054559" data-name="Trazado 1054559" d="M145.557,307.345a30.323,30.323,0,0,1-20.858.017,2.464,2.464,0,0,1-1.574-2.729,16.878,16.878,0,0,0,.246-2.747,30.277,30.277,0,0,0,23.513-.015,16.721,16.721,0,0,0,.243,2.748A2.461,2.461,0,0,1,145.557,307.345Z" transform="translate(-85.007 -208.476)" fill="#ffdfba"/>
      <g id="Grupo_1226082" data-name="Grupo 1226082" transform="translate(31.584 52.272)">
        <path id="Trazado_1054560" data-name="Trazado 1054560" d="M324.783,332.95v39.6H266v-39.6a4.949,4.949,0,0,1,4.95-4.95h48.883A4.949,4.949,0,0,1,324.783,332.95Z" transform="translate(-215.288 -278.794)" fill="#cbe3fa"/>
        <ellipse id="Elipse_13344" data-name="Elipse 13344" cx="7.111" cy="7.758" rx="7.111" ry="7.758" transform="translate(21.98 0)" fill="#cbe3fa"/>
        <ellipse id="Elipse_13345" data-name="Elipse 13345" cx="7.111" cy="7.758" rx="7.111" ry="7.758" transform="translate(0 0)" fill="#cbe3fa"/>
      </g>
      <path id="Trazado_1054561" data-name="Trazado 1054561" d="M106.322,181.671a1.166,1.166,0,0,1-1.842,1.348,7.424,7.424,0,0,1,4.241-12.93,1.165,1.165,0,0,1,.764,2.161A7.438,7.438,0,0,0,106.322,181.671Z" transform="translate(-70.442 -117.461)" fill="#eef7ff"/>
      <path id="Trazado_1054562" data-name="Trazado 1054562" d="M177.322,181.671a1.166,1.166,0,0,1-1.842,1.348,7.424,7.424,0,0,1,4.241-12.93,1.165,1.165,0,0,1,.764,2.161A7.438,7.438,0,0,0,177.322,181.671Z" transform="translate(-119.476 -117.461)" fill="#eef7ff"/>
      <path id="Trazado_1054563" data-name="Trazado 1054563" d="M319.859,334.188H280.232a4.95,4.95,0,0,0-4.95,4.95v33.414H266v-39.6a4.95,4.95,0,0,1,4.95-4.95h48.883C324.141,328,323.857,334.188,319.859,334.188Z" transform="translate(-183.704 -226.522)" fill="#eef7ff"/>
      <g id="Grupo_1226083" data-name="Grupo 1226083" transform="translate(0 0)">
        <path id="Trazado_1054564" data-name="Trazado 1054564" d="M75.508,109.944a2.475,2.475,0,0,0-1.533-3.147,14.3,14.3,0,0,1-9.529-11.885,32.839,32.839,0,0,0,18.47-29.554c0-17.672-.007-16.824.009-16.937a2.5,2.5,0,0,0-2.041-2.8A22.075,22.075,0,0,1,66.75,32.686a2.477,2.477,0,0,0-4.371-.442C53.115,46.4,36.9,54.466,20.163,52.311a2.564,2.564,0,0,0-1.418.2,2.636,2.636,0,0,0-1.437,2.645c0,.359,0,6.26,0,10.142a32.867,32.867,0,0,0,9.522,23.214,2.475,2.475,0,0,0,3.522-3.478A27.946,27.946,0,0,1,22.26,65.3V57.441A49.661,49.661,0,0,0,40,55.175a4.951,4.951,0,1,1-5.161,7.555,2.475,2.475,0,0,0-4.14,2.715A9.9,9.9,0,0,0,48.569,62.5h4.954A2.475,2.475,0,0,0,56,60.021a4.95,4.95,0,1,1,4.95,4.95,2.475,2.475,0,0,0,0,4.95,9.9,9.9,0,1,0-9.587-12.375H48.57a9.878,9.878,0,0,0-2.714-4.657,49.666,49.666,0,0,0,18.21-14.5,27.126,27.126,0,0,0,13.9,11.483V65.357a27.893,27.893,0,0,1-38.617,25.78,2.477,2.477,0,0,0-3.457,2.239A14.292,14.292,0,0,1,26.267,106.8l-12.035,4.149V33.136A28.217,28.217,0,0,1,42.417,4.95H57.824A28.217,28.217,0,0,1,86.009,33.136V90.051a2.475,2.475,0,0,0,4.95,0V33.136A33.173,33.173,0,0,0,57.824,0H42.417A33.173,33.173,0,0,0,9.282,33.136v79.975A19.236,19.236,0,0,0,0,129.563V146.03a2.475,2.475,0,1,0,4.95,0V129.562a14.282,14.282,0,0,1,9.623-13.5s13.583-4.689,13.721-4.74a25.09,25.09,0,0,0,34.463,9.309,2.475,2.475,0,0,0-2.5-4.273,20.139,20.139,0,0,1-27.584-7.339,19.281,19.281,0,0,0,7.836-12.2,32.484,32.484,0,0,0,19.215-.032,19.255,19.255,0,0,0,12.636,14.688,2.475,2.475,0,0,0,3.146-1.533Z" transform="translate(0 0)"/>
        <path id="Trazado_1054565" data-name="Trazado 1054565" d="M313.159,364.551H251.9V327.425a2.478,2.478,0,0,1,2.475-2.475h48.883a2.478,2.478,0,0,1,2.475,2.475V353.2a2.475,2.475,0,1,0,4.95,0V327.425A7.434,7.434,0,0,0,303.258,320H254.375a7.434,7.434,0,0,0-7.425,7.425v37.126h-2.475a2.475,2.475,0,1,0,0,4.95h68.684a2.475,2.475,0,0,0,0-4.95Z" transform="translate(-167.129 -220.997)"/>
        <path id="Trazado_1054566" data-name="Trazado 1054566" d="M313.121,375.673a2.475,2.475,0,0,0-3.5.106l-4.95,5.26a2.475,2.475,0,0,0,0,3.393l4.95,5.26a2.475,2.475,0,0,0,3.6-3.393l-3.354-3.563,3.354-3.563A2.475,2.475,0,0,0,313.121,375.673Z" transform="translate(-209.947 -258.981)"/>
        <path id="Trazado_1054567" data-name="Trazado 1054567" d="M385.779,389.8a2.475,2.475,0,0,0,3.5-.106l4.95-5.26a2.475,2.475,0,0,0,0-3.393l-4.95-5.26a2.475,2.475,0,1,0-3.6,3.393l3.354,3.563-3.354,3.563A2.475,2.475,0,0,0,385.779,389.8Z" transform="translate(-265.887 -258.981)"/>
        <path id="Trazado_1054568" data-name="Trazado 1054568" d="M351.54,376.907l-2.475,10.519a2.475,2.475,0,0,0,4.819,1.134l2.475-10.519a2.475,2.475,0,0,0-4.819-1.134Z" transform="translate(-241.024 -258.979)"/>
      </g>
    </g>
  </g>
</svg>
