<svg xmlns="http://www.w3.org/2000/svg" xmlns:xlink="http://www.w3.org/1999/xlink" width="113" height="113" viewBox="0 0 113 113">
  <defs>
    <filter id="Trazado_982547" x="0" y="0" width="113" height="113" filterUnits="userSpaceOnUse">
      <feOffset dy="3" input="SourceAlpha"/>
      <feGaussianBlur stdDeviation="3" result="blur"/>
      <feFlood flood-opacity="0.161"/>
      <feComposite operator="in" in2="blur"/>
      <feComposite in="SourceGraphic"/>
    </filter>
  </defs>
  <g id="Grupo_1226079" data-name="Grupo 1226079" transform="translate(-1633.51 -6984.041)">
    <g id="Grupo_1225738" data-name="Grupo 1225738" transform="translate(1642.51 6990.041)">
      <g id="Grupo_1224583" data-name="Grupo 1224583" transform="translate(0 0)">
        <g id="Grupo_1224450" data-name="Grupo 1224450" transform="translate(0)">
          <g id="Grupo_1224085" data-name="Grupo 1224085">
            <g id="Grupo_1223184" data-name="Grupo 1223184">
              <g id="Grupo_1211216" data-name="Grupo 1211216">
                <g id="Grupo_1210737" data-name="Grupo 1210737">
                  <g id="Grupo_1210537" data-name="Grupo 1210537">
                    <g id="Grupo_1164202" data-name="Grupo 1164202">
                      <g id="Grupo_1158168" data-name="Grupo 1158168">
                        <g id="Grupo_1152576" data-name="Grupo 1152576">
                          <g id="Grupo_1148633" data-name="Grupo 1148633">
                            <g id="Grupo_1148525" data-name="Grupo 1148525">
                              <g transform="matrix(1, 0, 0, 1, -9, -6)" filter="url(#Trazado_982547)">
                                <g id="Trazado_982547-2" data-name="Trazado 982547" transform="translate(9 6)" fill="#fef9e5">
                                  <path d="M 47.49999237060547 93.49999237060547 C 41.28937911987305 93.49999237060547 35.26532745361328 92.28396606445312 29.59519195556641 89.88569641113281 C 24.11772537231445 87.56892395019531 19.19813919067383 84.251953125 14.97309875488281 80.02690124511719 C 10.74804592132568 75.80185699462891 7.431072235107422 70.88227081298828 5.114298820495605 65.40480804443359 C 2.716032266616821 59.73465728759766 1.500005722045898 53.71060562133789 1.500005722045898 47.49999237060547 C 1.500005722045898 41.28937911987305 2.716032266616821 35.26532745361328 5.114298820495605 29.59517860412598 C 7.431072235107422 24.11771202087402 10.74804592132568 19.1981258392334 14.97309875488281 14.97308540344238 C 19.19813919067383 10.74804592132568 24.11772537231445 7.431072235107422 29.59519195556641 5.114298820495605 C 35.26532745361328 2.716032266616821 41.28937911987305 1.500005722045898 47.49999237060547 1.500005722045898 C 53.71062088012695 1.500005722045898 59.73465728759766 2.716032266616821 65.40480804443359 5.114298820495605 C 70.88227081298828 7.431072235107422 75.80185699462891 10.74804592132568 80.02690124511719 14.97308540344238 C 84.251953125 19.1981258392334 87.56892395019531 24.11771202087402 89.88569641113281 29.59517860412598 C 92.28396606445312 35.26532745361328 93.49999237060547 41.28937911987305 93.49999237060547 47.49999237060547 C 93.49999237060547 53.71062088012695 92.28396606445312 59.73465728759766 89.88569641113281 65.40480804443359 C 87.56892395019531 70.88227081298828 84.251953125 75.80185699462891 80.02690124511719 80.02690124511719 C 75.80185699462891 84.251953125 70.88227081298828 87.56892395019531 65.40480804443359 89.88569641113281 C 59.73465728759766 92.28396606445312 53.71062088012695 93.49999237060547 47.49999237060547 93.49999237060547 Z" stroke="none"/>
                                  <path d="M 47.49999237060547 2.999992370605469 C 41.49120712280273 2.999992370605469 35.66376113891602 4.1761474609375 30.17951202392578 6.49578857421875 C 24.88083648681641 8.736946105957031 20.12151336669922 11.94597625732422 16.03374481201172 16.03374481201172 C 11.94597625732422 20.12151336669922 8.736946105957031 24.88083648681641 6.49578857421875 30.17949676513672 C 4.1761474609375 35.66376113891602 2.999992370605469 41.49120712280273 2.999992370605469 47.49999237060547 C 2.999992370605469 53.5087776184082 4.1761474609375 59.33622360229492 6.49578857421875 64.82046508789062 C 8.736946105957031 70.11914825439453 11.94597625732422 74.87847137451172 16.03374481201172 78.96623992919922 C 20.12151336669922 83.05400848388672 24.88083648681641 86.26303863525391 30.17951202392578 88.50418090820312 C 35.66376113891602 90.82382202148438 41.49120712280273 91.99997711181641 47.49999237060547 91.99997711181641 C 53.5087776184082 91.99997711181641 59.33622360229492 90.82382202148438 64.82046508789062 88.50418090820312 C 70.11914825439453 86.26303863525391 74.87847137451172 83.05400848388672 78.96623992919922 78.96623992919922 C 83.05400848388672 74.87847137451172 86.26303863525391 70.11914825439453 88.50418090820312 64.82046508789062 C 90.82382202148438 59.33622360229492 91.99997711181641 53.5087776184082 91.99997711181641 47.49999237060547 C 91.99997711181641 41.49120712280273 90.82382202148438 35.66376113891602 88.50418090820312 30.17949676513672 C 86.26303863525391 24.88083648681641 83.05400848388672 20.12151336669922 78.96623992919922 16.03374481201172 C 74.87847137451172 11.94597625732422 70.11914825439453 8.736946105957031 64.82046508789062 6.49578857421875 C 59.33622360229492 4.1761474609375 53.5087776184082 2.999992370605469 47.49999237060547 2.999992370605469 M 47.49999237060547 -7.62939453125e-06 C 73.73351287841797 -7.62939453125e-06 94.99997711181641 21.26647186279297 94.99997711181641 47.49999237060547 C 94.99997711181641 73.73351287841797 73.73351287841797 94.99997711181641 47.49999237060547 94.99997711181641 C 21.26648712158203 94.99997711181641 -7.62939453125e-06 73.73351287841797 -7.62939453125e-06 47.49999237060547 C -7.62939453125e-06 21.26647186279297 21.26648712158203 -7.62939453125e-06 47.49999237060547 -7.62939453125e-06 Z" stroke="none" fill="#f6c810"/>
                                </g>
                              </g>
                            </g>
                          </g>
                        </g>
                      </g>
                    </g>
                  </g>
                </g>
              </g>
            </g>
          </g>
        </g>
      </g>
    </g>
    <g id="Time_Management" data-name="Time Management" transform="translate(1655.135 7004.175)">
      <path id="Trazado_1054503" data-name="Trazado 1054503" d="M43.086,17.165V30.35a22.441,22.441,0,0,0-6.665,2.957l-5.164-3.439-4.75,4.75,3.439,5.164a22.155,22.155,0,0,0-3.193,7.7l-6.071,1.21v6.721l5.623,1.12H5V5H30.764A12.318,12.318,0,0,1,43.086,17.165Z" transform="translate(0.12 0.12)" fill="#e6e6e6"/>
      <g id="Grupo_1226078" data-name="Grupo 1226078" transform="translate(10.721 5.12)">
        <path id="Trazado_1054504" data-name="Trazado 1054504" d="M40.362,17.165l-.4-.291A8.349,8.349,0,0,0,31.4,16.2l.347-1.031a8.336,8.336,0,0,0-2.9-9.286L27.67,5h.37A12.318,12.318,0,0,1,40.362,17.165Z" transform="translate(-7.876 -5)" fill="#b3b3b3"/>
        <path id="Trazado_1054505" data-name="Trazado 1054505" d="M10,12h4.481v4.481H10Z" transform="translate(-10 -4.159)" fill="#b3b3b3"/>
        <path id="Trazado_1054506" data-name="Trazado 1054506" d="M22.721,14.24h-5.6a1.12,1.12,0,1,1,0-2.24h5.6a1.12,1.12,0,1,1,0,2.24Z" transform="translate(-9.279 -4.159)" fill="#b3b3b3"/>
        <path id="Trazado_1054507" data-name="Trazado 1054507" d="M26.082,17.24H17.12a1.12,1.12,0,1,1,0-2.24h8.961a1.12,1.12,0,0,1,0,2.24Z" transform="translate(-9.279 -3.798)" fill="#b3b3b3"/>
        <path id="Trazado_1054508" data-name="Trazado 1054508" d="M10,22h4.481v4.481H10Z" transform="translate(-10 -2.957)" fill="#b3b3b3"/>
        <path id="Trazado_1054509" data-name="Trazado 1054509" d="M22.721,24.24h-5.6a1.12,1.12,0,1,1,0-2.24h5.6a1.12,1.12,0,0,1,0,2.24Z" transform="translate(-9.279 -2.957)" fill="#b3b3b3"/>
        <path id="Trazado_1054510" data-name="Trazado 1054510" d="M26.082,27.24H17.12a1.12,1.12,0,1,1,0-2.24h8.961a1.12,1.12,0,1,1,0,2.24Z" transform="translate(-9.279 -2.596)" fill="#b3b3b3"/>
        <path id="Trazado_1054511" data-name="Trazado 1054511" d="M10,32h4.481v4.481H10Z" transform="translate(-10 -1.755)" fill="#b3b3b3"/>
        <path id="Trazado_1054512" data-name="Trazado 1054512" d="M22.721,34.24h-5.6a1.12,1.12,0,1,1,0-2.24h5.6a1.12,1.12,0,1,1,0,2.24Z" transform="translate(-9.279 -1.755)" fill="#b3b3b3"/>
        <path id="Trazado_1054513" data-name="Trazado 1054513" d="M26.082,37.24H17.12a1.12,1.12,0,1,1,0-2.24h8.961a1.12,1.12,0,1,1,0,2.24Z" transform="translate(-9.279 -1.394)" fill="#b3b3b3"/>
        <path id="Trazado_1054514" data-name="Trazado 1054514" d="M10,42h4.481v4.481H10Z" transform="translate(-10 -0.553)" fill="#b3b3b3"/>
        <path id="Trazado_1054515" data-name="Trazado 1054515" d="M22.721,44.24h-5.6a1.12,1.12,0,1,1,0-2.24h5.6a1.12,1.12,0,1,1,0,2.24Z" transform="translate(-9.279 -0.553)" fill="#b3b3b3"/>
        <path id="Trazado_1054516" data-name="Trazado 1054516" d="M26.082,47.24H17.12a1.12,1.12,0,1,1,0-2.24h8.961a1.12,1.12,0,1,1,0,2.24Z" transform="translate(-9.279 -0.193)" fill="#b3b3b3"/>
      </g>
      <circle id="Elipse_13343" data-name="Elipse 13343" cx="13.5" cy="13.5" r="13.5" transform="translate(35.365 38.365)" fill="#1964bd"/>
      <path id="Trazado_1054517" data-name="Trazado 1054517" d="M55.163,48.082A9.255,9.255,0,0,1,55.1,49.2,10.075,10.075,0,0,1,46.2,58.1a9.368,9.368,0,0,1-2.24,0A10.075,10.075,0,0,1,35.067,49.2a9.368,9.368,0,0,1,0-2.24,10.075,10.075,0,0,1,8.894-8.894,9.369,9.369,0,0,1,2.24,0A10.075,10.075,0,0,1,55.1,46.961,9.255,9.255,0,0,1,55.163,48.082Z" transform="translate(3.726 4.086)" fill="#b3b3b3"/>
      <path id="Trazado_1054518" data-name="Trazado 1054518" d="M54.923,48.074a9.255,9.255,0,0,1-.067,1.12,10.075,10.075,0,0,1-8.894,8.894,10.075,10.075,0,0,1-8.894-8.894,9.368,9.368,0,0,1,0-2.24,10.075,10.075,0,0,1,8.894-8.894,10.075,10.075,0,0,1,8.894,8.894,9.254,9.254,0,0,1,.067,1.12Z" transform="translate(3.966 4.094)" fill="#e6e6e6"/>
      <path id="Trazado_1054519" data-name="Trazado 1054519" d="M45.24,38.067V40.24a1.12,1.12,0,1,1-2.24,0V38.067a9.369,9.369,0,0,1,2.24,0Z" transform="translate(4.687 4.086)" fill="#1a1a1a"/>
      <path id="Trazado_1054520" data-name="Trazado 1054520" d="M38.361,47.12a1.123,1.123,0,0,1-1.12,1.12H35.067a9.369,9.369,0,0,1,0-2.24H37.24A1.123,1.123,0,0,1,38.361,47.12Z" transform="translate(3.726 5.048)" fill="#1a1a1a"/>
      <path id="Trazado_1054521" data-name="Trazado 1054521" d="M45.24,54.12v2.173a9.368,9.368,0,0,1-2.24,0V54.12a1.12,1.12,0,0,1,2.24,0Z" transform="translate(4.687 5.889)" fill="#1a1a1a"/>
      <path id="Trazado_1054522" data-name="Trazado 1054522" d="M53.361,47.12a9.255,9.255,0,0,1-.067,1.12H51.12a1.12,1.12,0,0,1,0-2.24h2.173A9.255,9.255,0,0,1,53.361,47.12Z" transform="translate(5.529 5.048)" fill="#1a1a1a"/>
      <path id="Trazado_1054523" data-name="Trazado 1054523" d="M42.12,50.961a1.12,1.12,0,0,1-.792-1.912l1.912-1.912V43.12a1.12,1.12,0,0,1,2.24,0V47.6a1.12,1.12,0,0,1-.328.792l-2.241,2.241a1.116,1.116,0,0,1-.792.328Z" transform="translate(4.447 4.567)" fill="#c32a28"/>
      <path id="Trazado_1054524" data-name="Trazado 1054524" d="M63.807,28.239v12.8h-2.6a16.8,16.8,0,1,0-24.286,22.4H27.48l.784-1.176a22.155,22.155,0,0,1-3.193-7.7L19,53.365V46.644l6.071-1.21a22.156,22.156,0,0,1,3.193-7.7l-3.439-5.164,4.75-4.75,5.164,3.439a22.155,22.155,0,0,1,7.7-3.193L43.644,22h6.721l1.21,6.071a22.155,22.155,0,0,1,7.7,3.193Z" transform="translate(1.803 2.163)" fill="#36464e"/>
      <path id="Trazado_1054525" data-name="Trazado 1054525" d="M62.846,40.082h-2.6a16.8,16.8,0,1,0-24.286,22.4H32.556a19.043,19.043,0,1,1,30.29-22.4Z" transform="translate(2.764 3.125)" fill="#27313a"/>
      <path id="Trazado_1054526" data-name="Trazado 1054526" d="M14.6,11H10.12A1.12,1.12,0,0,0,9,12.12V16.6a1.12,1.12,0,0,0,1.12,1.12H14.6a1.12,1.12,0,0,0,1.12-1.12V12.12A1.12,1.12,0,0,0,14.6,11Zm-1.12,4.481H11.24V13.24h2.24Z" transform="translate(0.601 0.841)"/>
      <path id="Trazado_1054527" data-name="Trazado 1054527" d="M17.12,14.24h5.6a1.12,1.12,0,1,0,0-2.24h-5.6a1.12,1.12,0,1,0,0,2.24Z" transform="translate(1.442 0.961)"/>
      <path id="Trazado_1054528" data-name="Trazado 1054528" d="M17.12,17.24h8.961a1.12,1.12,0,0,0,0-2.24H17.12a1.12,1.12,0,1,0,0,2.24Z" transform="translate(1.442 1.322)"/>
      <path id="Trazado_1054529" data-name="Trazado 1054529" d="M14.6,21H10.12A1.12,1.12,0,0,0,9,22.12V26.6a1.12,1.12,0,0,0,1.12,1.12H14.6a1.12,1.12,0,0,0,1.12-1.12V22.12A1.12,1.12,0,0,0,14.6,21Zm-1.12,4.481H11.24V23.24h2.24Z" transform="translate(0.601 2.043)"/>
      <path id="Trazado_1054530" data-name="Trazado 1054530" d="M17.12,24.24h5.6a1.12,1.12,0,0,0,0-2.24h-5.6a1.12,1.12,0,1,0,0,2.24Z" transform="translate(1.442 2.163)"/>
      <path id="Trazado_1054531" data-name="Trazado 1054531" d="M17.12,27.24h8.961a1.12,1.12,0,1,0,0-2.24H17.12a1.12,1.12,0,1,0,0,2.24Z" transform="translate(1.442 2.524)"/>
      <path id="Trazado_1054532" data-name="Trazado 1054532" d="M14.6,31H10.12A1.12,1.12,0,0,0,9,32.12V36.6a1.12,1.12,0,0,0,1.12,1.12H14.6a1.12,1.12,0,0,0,1.12-1.12V32.12A1.12,1.12,0,0,0,14.6,31Zm-1.12,4.481H11.24V33.24h2.24Z" transform="translate(0.601 3.245)"/>
      <path id="Trazado_1054533" data-name="Trazado 1054533" d="M17.12,34.24h5.6a1.12,1.12,0,1,0,0-2.24h-5.6a1.12,1.12,0,1,0,0,2.24Z" transform="translate(1.442 3.365)"/>
      <path id="Trazado_1054534" data-name="Trazado 1054534" d="M14.6,41H10.12A1.12,1.12,0,0,0,9,42.12V46.6a1.12,1.12,0,0,0,1.12,1.12H14.6a1.12,1.12,0,0,0,1.12-1.12V42.12A1.12,1.12,0,0,0,14.6,41Zm-1.12,4.481H11.24V43.24h2.24Z" transform="translate(0.601 4.447)"/>
      <path id="Trazado_1054535" data-name="Trazado 1054535" d="M45.562,34A14.562,14.562,0,1,0,60.125,48.562,14.562,14.562,0,0,0,45.562,34Zm0,26.884A12.322,12.322,0,1,1,57.884,48.562,12.322,12.322,0,0,1,45.562,60.884Z" transform="translate(3.245 3.606)"/>
      <path id="Trazado_1054536" data-name="Trazado 1054536" d="M45.2,37A11.2,11.2,0,1,0,56.4,48.2,11.2,11.2,0,0,0,45.2,37Zm1.12,20.086V56.043a1.12,1.12,0,0,0-2.24,0v1.042a8.969,8.969,0,0,1-7.763-7.763h1.042a1.12,1.12,0,1,0,0-2.24H36.319a8.969,8.969,0,0,1,7.763-7.763v1.042a1.12,1.12,0,1,0,2.24,0V39.319a8.969,8.969,0,0,1,7.763,7.763H53.043a1.12,1.12,0,0,0,0,2.24h1.042a8.969,8.969,0,0,1-7.763,7.763Z" transform="translate(3.606 3.966)"/>
      <path id="Trazado_1054537" data-name="Trazado 1054537" d="M44.361,42a1.12,1.12,0,0,0-1.12,1.12v4.017l-1.912,1.912a1.12,1.12,0,1,0,1.584,1.584l2.24-2.24a1.12,1.12,0,0,0,.328-.792V43.12A1.12,1.12,0,0,0,44.361,42Z" transform="translate(4.447 4.567)"/>
      <path id="Trazado_1054538" data-name="Trazado 1054538" d="M66.139,29.415a1.119,1.119,0,0,0-1.15.056l-3.931,2.621A23.19,23.19,0,0,0,54.334,29.3l-1.068-5.354a1.12,1.12,0,0,0-1.1-.9H45.447a1.12,1.12,0,0,0-1.1.9l-.022.11V17.442A13.457,13.457,0,0,0,30.884,4H5.12A1.12,1.12,0,0,0,4,5.12V56.649a1.12,1.12,0,0,0,1.12,1.12H25.96a23.18,23.18,0,0,0,2.771,6.649l-.38.571a1.12,1.12,0,0,0,.932,1.742h9.443a1.12,1.12,0,0,0,.674-2.015A15.68,15.68,0,1,1,62.063,43.8a1.121,1.121,0,0,0,.949.523h2.6a1.12,1.12,0,0,0,1.12-1.12V30.4a1.121,1.121,0,0,0-.592-.988ZM41.854,15.169a9.57,9.57,0,0,0-5.9-.626,9.421,9.421,0,0,0-1.972-7.859,11.234,11.234,0,0,1,7.876,8.485ZM6.24,55.529V6.24h23.9l.877.66a7.2,7.2,0,0,1,2.513,8.034l-.347,1.031a1.12,1.12,0,0,0,1.567,1.358,7.214,7.214,0,0,1,7.336.544v11.77a23.255,23.255,0,0,0-5.53,2.456L32,29.056a1.12,1.12,0,0,0-1.413.141l-4.75,4.75a1.12,1.12,0,0,0-.141,1.413l2.331,3.5a1.094,1.094,0,0,0-.5-.133H18.562a1.12,1.12,0,1,0,0,2.24h8.961a1.1,1.1,0,0,0,.856-.424,23.1,23.1,0,0,0-2.442,6.1l-1.05.209a1.1,1.1,0,0,0-.726-.284h-5.6a1.12,1.12,0,1,0,0,2.24h1.12v1.12h-1.12a1.12,1.12,0,1,0,0,2.24h1.12v3.361ZM28.627,39.761l.1.157c-.057.093-.1.189-.158.283a1.1,1.1,0,0,0,.071-.354c0-.03-.015-.056-.017-.085ZM64.49,42.086h-.873a17.921,17.921,0,1,0-27.829,22.4h-4.6A1.117,1.117,0,0,0,31,63.82a20.971,20.971,0,0,1-3.032-7.306,1.12,1.12,0,0,0-.878-.874l-5.17-1.03V49.726l5.17-1.03a1.12,1.12,0,0,0,.878-.874A20.971,20.971,0,0,1,31,40.516a1.12,1.12,0,0,0,0-1.235l-2.93-4.4,3.451-3.451,4.4,2.93a1.122,1.122,0,0,0,1.235,0,20.969,20.969,0,0,1,7.307-3.032,1.119,1.119,0,0,0,.873-.878l1.03-5.17h4.884l1.031,5.17a1.119,1.119,0,0,0,.873.878,20.969,20.969,0,0,1,7.307,3.032,1.121,1.121,0,0,0,1.235,0L64.49,32.5Z" transform="translate(0 0)"/>
    </g>
  </g>
</svg>
