<svg xmlns="http://www.w3.org/2000/svg" width="400" height="152.009" viewBox="0 0 400 152.009">
  <g id="Grupo_1226009" data-name="Grupo 1226009" transform="translate(-1020 -12169.716)">
    <g id="Grupo_1225644" data-name="Grupo 1225644" transform="translate(0)">
      <rect id="equipo-de-desarrolladores-haciendo-una-tormenta-de-ideas-para-optimizar-el-codigo" width="400" height="96" rx="5" transform="translate(1020 12204)" fill="#4f3864"/>
      <rect id="equipo-de-desarrolladores-haciendo-una-tormenta-de-ideas-para-optimizar-el-codigo-2" data-name="equipo-de-desarrolladores-haciendo-una-tormenta-de-ideas-para-optimizar-el-codigo" width="326" height="110" rx="5" transform="translate(1057 12197)" fill="#11f5d8"/>
    </g>
    <g id="programmer_8083318_1_" data-name="programmer_8083318 (1)" transform="translate(1142 12163.725)">
      <path id="Trazado_1054304" data-name="Trazado 1054304" d="M160.365,278.417l-17.135-4.9a6.575,6.575,0,0,1-4.766-6.321v-9.25H120.476v9.25a6.575,6.575,0,0,1-4.766,6.321l-17.135,4.9A19.417,19.417,0,0,0,84.5,297.084v17.938h89.94V297.084A19.417,19.417,0,0,0,160.365,278.417Z" transform="translate(-53.915 -175.36)" fill="#ffb09e"/>
      <g id="Grupo_1226010" data-name="Grupo 1226010" transform="translate(38.08 44.21)">
        <path id="Trazado_1054305" data-name="Trazado 1054305" d="M124.583,140.647c0,5.908-3.605,10.7-8.052,10.7s-7.031-5.5-7.031-11.407,2.583-9.986,7.031-9.986S124.583,134.739,124.583,140.647Z" transform="translate(-109.5 -129.95)" fill="#ffb09e"/>
        <path id="Trazado_1054306" data-name="Trazado 1054306" d="M309.19,140.647c0,5.908,3.605,10.7,8.052,10.7s7.031-5.5,7.031-11.407-2.583-9.986-7.031-9.986S309.19,134.739,309.19,140.647Z" transform="translate(-249.323 -129.95)" fill="#ffb09e"/>
      </g>
      <path id="Trazado_1054307" data-name="Trazado 1054307" d="M147.629,83.742V66.02a26.044,26.044,0,0,1,26.044-26.044h0A26.044,26.044,0,0,1,199.717,66.02V83.644a26.093,26.093,0,0,1-26.093,26.093h0A26,26,0,0,1,147.629,83.742Z" transform="translate(-98.118 -22.74)" fill="#ffcebf"/>
      <path id="Trazado_1054308" data-name="Trazado 1054308" d="M223.892,39.976h0a26.211,26.211,0,0,0-4.5.388A26.051,26.051,0,0,1,240.942,66.02V83.644a26.1,26.1,0,0,1-21.592,25.7,26.162,26.162,0,0,0,4.493.388h0a26.093,26.093,0,0,0,26.093-26.093V66.02A26.044,26.044,0,0,0,223.892,39.976Z" transform="translate(-148.337 -22.74)" fill="#ffb09e"/>
      <path id="Trazado_1054309" data-name="Trazado 1054309" d="M191.956,48.9c-.809,1.742-1.325,6.5-1.325,6.5s-6.008-4.473-5.828-6.176c.285-2.719,1.859-19.421-5.01-17.844s-9.7,2.716-15.437,2.716-8.568-1.142-15.434-2.716-5.294,15.125-5.01,17.844c.18,1.7-5.369,6.161-5.369,6.161a45.414,45.414,0,0,0-1.787-6.482c-.543-1.167-5.217-15.308,1.42-25.595a4.056,4.056,0,0,0,.654-2.1,10.606,10.606,0,0,1,3.531-7.773c5.81-5.363,34.108-2.368,45.219-5.87a1.207,1.207,0,0,1,1.544.86c.561,2.357,1.563,7.524.837,12.027a2.383,2.383,0,0,0,.425,1.793C197.82,32.385,192.786,47.115,191.956,48.9Z" transform="translate(-89.033)" fill="#ae6c6c"/>
      <g id="Grupo_1226011" data-name="Grupo 1226011" transform="translate(91.209 7.5)">
        <path id="Trazado_1054310" data-name="Trazado 1054310" d="M296.863,22.238a2.384,2.384,0,0,1-.425-1.793c.726-4.5-.276-9.67-.837-12.027a1.207,1.207,0,0,0-1.544-.86,38.733,38.733,0,0,1-7.34,1.335,32.887,32.887,0,0,1,.727,11.553,2.383,2.383,0,0,0,.425,1.793c4.116,5.619,4.408,12.643,3.709,18.1a61.281,61.281,0,0,1-.3,8.886c-.18,1.7,5.828,6.176,5.828,6.176s.516-4.755,1.325-6.5C299.261,47.115,304.3,32.385,296.863,22.238Z" transform="translate(-286.717 -7.5)" fill="#9b5e5e"/>
      </g>
      <path id="Trazado_1054311" data-name="Trazado 1054311" d="M170.436,330.657v20.52a3.6,3.6,0,0,1-3.6,3.6H78.1a3.6,3.6,0,0,1-3.6-3.6v-20.52a20.263,20.263,0,0,1,14.191-19.331l19.231-6.04a1.283,1.283,0,0,1,1.636.931c.881,3.807,4.109,14.3,12.91,14.3s12.029-10.494,12.91-14.3a1.283,1.283,0,0,1,1.636-.931l19.231,6.04A20.263,20.263,0,0,1,170.436,330.657Z" transform="translate(-46.913 -208.468)" fill="#fe7ab6"/>
      <g id="Grupo_1226012" data-name="Grupo 1226012" transform="translate(88.14 96.758)">
        <path id="Trazado_1054312" data-name="Trazado 1054312" d="M297.67,311.326l-19.231-6.04a1.283,1.283,0,0,0-1.636.931c-.085.368-.193.8-.325,1.278l12.2,3.831a20.262,20.262,0,0,1,14.191,19.331v20.52a3.6,3.6,0,0,1-3.6,3.6h8.994a3.6,3.6,0,0,0,3.6-3.6v-20.52A20.263,20.263,0,0,0,297.67,311.326Z" transform="translate(-276.478 -305.226)" fill="#fe5ca7"/>
      </g>
      <path id="Trazado_1054313" data-name="Trazado 1054313" d="M137.582,480.693H13.527A6.027,6.027,0,0,1,7.5,474.665v-1.754A2.413,2.413,0,0,1,9.913,470.5H141.2a2.413,2.413,0,0,1,2.413,2.413v1.754A6.027,6.027,0,0,1,137.582,480.693Z" transform="translate(0 -324.192)" fill="#3692bc"/>
      <path id="Trazado_1054314" data-name="Trazado 1054314" d="M424,470.5H415.01a2.413,2.413,0,0,1,2.413,2.413v1.754a6.027,6.027,0,0,1-6.027,6.027h8.994a6.027,6.027,0,0,0,6.027-6.027v-1.754A2.413,2.413,0,0,0,424,470.5Z" transform="translate(-282.808 -324.193)" fill="#0681af"/>
      <path id="Trazado_1054315" data-name="Trazado 1054315" d="M116.188,448.094H105.4V438.5h10.793a4.8,4.8,0,0,1,4.8,4.8h0A4.8,4.8,0,0,1,116.188,448.094Z" transform="translate(-68.546 -301.786)" fill="#ffb09e"/>
      <path id="Trazado_1054316" data-name="Trazado 1054316" d="M51.742,433.9H32.006a3.923,3.923,0,0,1-3.923-3.923v-4.329a7.421,7.421,0,0,1,7.422-7.422H48.243a7.422,7.422,0,0,1,7.422,7.422v4.329A3.922,3.922,0,0,1,51.742,433.9Z" transform="translate(-14.412 -287.588)" fill="#ffcebf"/>
      <path id="Trazado_1054317" data-name="Trazado 1054317" d="M74.321,418.222H65.327a7.421,7.421,0,0,1,7.422,7.422v4.329a3.923,3.923,0,0,1-3.923,3.923H77.82a3.923,3.923,0,0,0,3.923-3.923v-4.329A7.421,7.421,0,0,0,74.321,418.222Z" transform="translate(-40.49 -287.588)" fill="#ffb09e"/>
      <path id="Trazado_1054318" data-name="Trazado 1054318" d="M316.4,448.094h10.793V438.5H316.4a4.8,4.8,0,0,0-4.8,4.8h0A4.8,4.8,0,0,0,316.4,448.094Z" transform="translate(-212.934 -301.786)" fill="#ffb09e"/>
      <path id="Trazado_1054319" data-name="Trazado 1054319" d="M352.841,433.9h19.736a3.923,3.923,0,0,0,3.923-3.923v-4.329a7.421,7.421,0,0,0-7.422-7.422H356.341a7.421,7.421,0,0,0-7.422,7.422v4.329A3.922,3.922,0,0,0,352.841,433.9Z" transform="translate(-239.061 -287.588)" fill="#ffcebf"/>
      <path id="Trazado_1054320" data-name="Trazado 1054320" d="M395.156,418.222h-8.994a7.421,7.421,0,0,1,7.422,7.422v4.329a3.923,3.923,0,0,1-3.923,3.923h8.994a3.923,3.923,0,0,0,3.923-3.923v-4.329A7.422,7.422,0,0,0,395.156,418.222Z" transform="translate(-265.139 -287.588)" fill="#ffb09e"/>
      <path id="Trazado_1054321" data-name="Trazado 1054321" d="M392.763,78.188v59.144a6.429,6.429,0,0,1-6.454,6.4H362.935a6.429,6.429,0,0,1-6.454-6.4v-6.639a1.321,1.321,0,0,0-.591-1.1l-10.675-7.112a.656.656,0,0,1,0-1.094l10.675-7.112a1.322,1.322,0,0,0,.591-1.1V78.188a6.429,6.429,0,0,1,6.454-6.4h23.374A6.43,6.43,0,0,1,392.763,78.188Z" transform="translate(-236.262 -45.012)" fill="#eaf6ff"/>
      <path id="Trazado_1054322" data-name="Trazado 1054322" d="M461.965,71.784h-8.994a6.429,6.429,0,0,1,6.454,6.4v59.144a6.429,6.429,0,0,1-6.454,6.4h8.994a6.429,6.429,0,0,0,6.454-6.4V78.188A6.43,6.43,0,0,0,461.965,71.784Z" transform="translate(-311.918 -45.012)" fill="#d8ecfe"/>
      <path id="Trazado_1054323" data-name="Trazado 1054323" d="M35.9,268.7H9.082A1.582,1.582,0,0,1,7.5,267.114v-47.8a1.582,1.582,0,0,1,1.582-1.582H35.9a1.582,1.582,0,0,1,1.582,1.582v47.8A1.582,1.582,0,0,1,35.9,268.7Z" transform="translate(0 -147.203)" fill="#fdb441"/>
      <path id="Trazado_1054324" data-name="Trazado 1054324" d="M81.216,217.73H72.222a1.582,1.582,0,0,1,1.582,1.582v47.8a1.582,1.582,0,0,1-1.582,1.582h8.994a1.582,1.582,0,0,0,1.582-1.582v-47.8A1.582,1.582,0,0,0,81.216,217.73Z" transform="translate(-45.318 -147.203)" fill="#fe9738"/>
      <g id="Grupo_1226027" data-name="Grupo 1226027" transform="translate(7.5 7.499)">
        <path id="Trazado_1054325" data-name="Trazado 1054325" d="M264.5,269v5.935a6.576,6.576,0,0,0,3.556,5.841" transform="translate(-187.451 -190.602)" fill="none" stroke="#000" stroke-linecap="round" stroke-linejoin="round" stroke-miterlimit="10" stroke-width="3"/>
        <path id="Trazado_1054326" data-name="Trazado 1054326" d="M192.552,280.79a6.576,6.576,0,0,0,3.582-5.854V269" transform="translate(-137.073 -190.602)" fill="none" stroke="#000" stroke-linecap="round" stroke-linejoin="round" stroke-miterlimit="10" stroke-width="3"/>
        <g id="Grupo_1226013" data-name="Grupo 1226013" transform="translate(30.58 36.711)">
          <path id="Trazado_1054327" data-name="Trazado 1054327" d="M120.628,149.857a6.59,6.59,0,0,1-4.1,1.486c-4.447,0-7.031-5.5-7.031-11.407s2.583-9.986,7.031-9.986a6.157,6.157,0,0,1,1.063.092" transform="translate(-109.5 -129.95)" fill="none" stroke="#000" stroke-linecap="round" stroke-linejoin="round" stroke-miterlimit="10" stroke-width="3"/>
          <path id="Trazado_1054328" data-name="Trazado 1054328" d="M322.008,149.768a6.623,6.623,0,0,0,4.209,1.576c4.447,0,7.031-5.5,7.031-11.407s-2.583-9.986-7.031-9.986a6.16,6.16,0,0,0-1.259.13" transform="translate(-258.298 -129.951)" fill="none" stroke="#000" stroke-linecap="round" stroke-linejoin="round" stroke-miterlimit="10" stroke-width="3"/>
        </g>
        <path id="Trazado_1054329" data-name="Trazado 1054329" d="M199.717,167.225v5.507a26.044,26.044,0,1,1-52.087.1V167.21" transform="translate(-105.619 -119.329)" fill="none" stroke="#000" stroke-linecap="round" stroke-linejoin="round" stroke-miterlimit="10" stroke-width="3"/>
        <g id="Grupo_1226019" data-name="Grupo 1226019" transform="translate(55.01 37.888)">
          <g id="Grupo_1226014" data-name="Grupo 1226014" transform="translate(11.425 20.397)">
            <path id="Trazado_1054330" data-name="Trazado 1054330" d="M229.1,201.913a5.383,5.383,0,0,0,3.24,0" transform="translate(-229.096 -201.913)" fill="none" stroke="#000" stroke-linecap="round" stroke-linejoin="round" stroke-miterlimit="10" stroke-width="3"/>
          </g>
          <g id="Grupo_1226016" data-name="Grupo 1226016" transform="translate(7.955 27.131)">
            <g id="Grupo_1226015" data-name="Grupo 1226015">
              <path id="Trazado_1054331" data-name="Trazado 1054331" d="M227.7,224.375a10.568,10.568,0,0,1-10.179,0" transform="translate(-217.523 -224.375)" fill="none" stroke="#000" stroke-linecap="round" stroke-linejoin="round" stroke-miterlimit="10" stroke-width="3"/>
            </g>
          </g>
          <g id="Grupo_1226017" data-name="Grupo 1226017" transform="translate(1.704 8.522)">
            <line id="Línea_2673" data-name="Línea 2673" y2="1.62" fill="none" stroke="#000" stroke-linecap="round" stroke-linejoin="round" stroke-miterlimit="10" stroke-width="3"/>
            <line id="Línea_2674" data-name="Línea 2674" y2="1.62" transform="translate(22.681)" fill="none" stroke="#000" stroke-linecap="round" stroke-linejoin="round" stroke-miterlimit="10" stroke-width="3"/>
          </g>
          <g id="Grupo_1226018" data-name="Grupo 1226018" transform="translate(0 0)">
            <path id="Trazado_1054332" data-name="Trazado 1054332" d="M198.783,134.492a10.534,10.534,0,0,0-7.795.255" transform="translate(-190.988 -133.878)" fill="none" stroke="#000" stroke-linecap="round" stroke-linejoin="round" stroke-miterlimit="10" stroke-width="3"/>
            <path id="Trazado_1054333" data-name="Trazado 1054333" d="M252.012,134.492a10.534,10.534,0,0,1,7.795.255" transform="translate(-233.717 -133.878)" fill="none" stroke="#000" stroke-linecap="round" stroke-linejoin="round" stroke-miterlimit="10" stroke-width="3"/>
          </g>
        </g>
        <path id="Trazado_1054334" data-name="Trazado 1054334" d="M191.956,48.9c-.809,1.742-1.325,6.5-1.325,6.5s-6.008-4.473-5.828-6.176c.285-2.719,1.859-19.421-5.01-17.844s-9.7,2.716-15.437,2.716-8.568-1.142-15.434-2.716-5.294,15.125-5.01,17.844c.18,1.7-5.369,6.161-5.369,6.161a45.414,45.414,0,0,0-1.787-6.482c-.543-1.167-5.217-15.308,1.42-25.595a4.056,4.056,0,0,0,.654-2.1,10.606,10.606,0,0,1,3.531-7.773c5.81-5.363,34.108-2.368,45.219-5.87a1.207,1.207,0,0,1,1.544.86c.561,2.357,1.563,7.524.837,12.027a2.383,2.383,0,0,0,.425,1.793C197.82,32.385,192.786,47.115,191.956,48.9Z" transform="translate(-96.533 -7.499)" fill="none" stroke="#000" stroke-linecap="round" stroke-linejoin="round" stroke-miterlimit="10" stroke-width="3"/>
        <path id="Trazado_1054335" data-name="Trazado 1054335" d="M109.7,312.871a20.285,20.285,0,0,1,3.638-1.545l19.231-6.04a1.283,1.283,0,0,1,1.636.931c.881,3.807,4.109,14.3,12.91,14.3s12.029-10.494,12.91-14.3a1.283,1.283,0,0,1,1.636-.931l19.231,6.04a20.262,20.262,0,0,1,14.191,19.331v7.978" transform="translate(-79.06 -215.967)" fill="none" stroke="#000" stroke-linecap="round" stroke-linejoin="round" stroke-miterlimit="10" stroke-width="3"/>
        <line id="Línea_2675" data-name="Línea 2675" y1="7.779" transform="translate(20.087 114.69)" fill="none" stroke="#000" stroke-linecap="round" stroke-linejoin="round" stroke-miterlimit="10" stroke-width="3"/>
        <path id="Trazado_1054336" data-name="Trazado 1054336" d="M38.14,480.693H13.527A6.027,6.027,0,0,1,7.5,474.665v-1.754A2.413,2.413,0,0,1,9.913,470.5H141.2a2.413,2.413,0,0,1,2.413,2.413v1.754a6.027,6.027,0,0,1-6.027,6.027H48.423" transform="translate(-7.5 -331.691)" fill="none" stroke="#000" stroke-linecap="round" stroke-linejoin="round" stroke-miterlimit="10" stroke-width="3"/>
        <path id="Trazado_1054337" data-name="Trazado 1054337" d="M110.123,438.5h6.064a4.8,4.8,0,0,1,4.8,4.8h0a4.8,4.8,0,0,1-4.8,4.8H105.4" transform="translate(-76.046 -309.286)" fill="none" stroke="#000" stroke-linecap="round" stroke-linejoin="round" stroke-miterlimit="10" stroke-width="3"/>
        <path id="Trazado_1054338" data-name="Trazado 1054338" d="M51.742,433.9H32.006a3.923,3.923,0,0,1-3.923-3.923v-4.329a7.421,7.421,0,0,1,7.422-7.422H48.243a7.422,7.422,0,0,1,7.422,7.422v4.329A3.922,3.922,0,0,1,51.742,433.9Z" transform="translate(-21.912 -295.088)" fill="none" stroke="#000" stroke-linecap="round" stroke-linejoin="round" stroke-miterlimit="10" stroke-width="3"/>
        <g id="Grupo_1226020" data-name="Grupo 1226020" transform="translate(15.851 133.811)">
          <line id="Línea_2676" data-name="Línea 2676" y2="4.597" fill="none" stroke="#000" stroke-linecap="round" stroke-linejoin="round" stroke-miterlimit="10" stroke-width="3"/>
          <line id="Línea_2677" data-name="Línea 2677" y2="4.597" transform="translate(8.694)" fill="none" stroke="#000" stroke-linecap="round" stroke-linejoin="round" stroke-miterlimit="10" stroke-width="3"/>
        </g>
        <path id="Trazado_1054339" data-name="Trazado 1054339" d="M322.691,438.5H316.4a4.8,4.8,0,0,0-4.8,4.8h0a4.8,4.8,0,0,0,4.8,4.8h10.793" transform="translate(-220.434 -309.286)" fill="none" stroke="#000" stroke-linecap="round" stroke-linejoin="round" stroke-miterlimit="10" stroke-width="3"/>
        <path id="Trazado_1054340" data-name="Trazado 1054340" d="M352.841,433.9h19.736a3.923,3.923,0,0,0,3.923-3.923v-4.329a7.421,7.421,0,0,0-7.422-7.422H356.341a7.421,7.421,0,0,0-7.422,7.422v4.329A3.922,3.922,0,0,0,352.841,433.9Z" transform="translate(-246.561 -295.088)" fill="none" stroke="#000" stroke-linecap="round" stroke-linejoin="round" stroke-miterlimit="10" stroke-width="3"/>
        <g id="Grupo_1226021" data-name="Grupo 1226021" transform="translate(111.565 133.811)">
          <line id="Línea_2678" data-name="Línea 2678" y2="4.597" transform="translate(8.694)" fill="none" stroke="#000" stroke-linecap="round" stroke-linejoin="round" stroke-miterlimit="10" stroke-width="3"/>
          <line id="Línea_2679" data-name="Línea 2679" y2="4.597" transform="translate(0)" fill="none" stroke="#000" stroke-linecap="round" stroke-linejoin="round" stroke-miterlimit="10" stroke-width="3"/>
        </g>
        <path id="Trazado_1054341" data-name="Trazado 1054341" d="M392.763,97.532v39.8a6.429,6.429,0,0,1-6.454,6.4H362.935a6.429,6.429,0,0,1-6.454-6.4v-6.639a1.321,1.321,0,0,0-.591-1.1l-10.675-7.112a.656.656,0,0,1,0-1.094l10.675-7.112a1.322,1.322,0,0,0,.591-1.1V78.188a6.429,6.429,0,0,1,6.454-6.4h23.374a6.43,6.43,0,0,1,6.454,6.4v8.651" transform="translate(-243.762 -52.511)" fill="none" stroke="#000" stroke-linecap="round" stroke-linejoin="round" stroke-miterlimit="10" stroke-width="3"/>
        <g id="Grupo_1226022" data-name="Grupo 1226022" transform="translate(123.476 32.545)">
          <line id="Línea_2680" data-name="Línea 2680" x2="4.738" transform="translate(0 0)" fill="none" stroke="#000" stroke-linecap="round" stroke-linejoin="round" stroke-miterlimit="10" stroke-width="3"/>
          <line id="Línea_2681" data-name="Línea 2681" x2="14.332" transform="translate(0 7.195)" fill="none" stroke="#000" stroke-linecap="round" stroke-linejoin="round" stroke-miterlimit="10" stroke-width="3"/>
          <line id="Línea_2682" data-name="Línea 2682" x2="14.332" transform="translate(0 14.39)" fill="none" stroke="#000" stroke-linecap="round" stroke-linejoin="round" stroke-miterlimit="10" stroke-width="3"/>
        </g>
        <g id="Grupo_1226023" data-name="Grupo 1226023" transform="translate(123.476 60.665)">
          <line id="Línea_2683" data-name="Línea 2683" x2="4.738" transform="translate(0)" fill="none" stroke="#000" stroke-linecap="round" stroke-linejoin="round" stroke-miterlimit="10" stroke-width="3"/>
          <line id="Línea_2684" data-name="Línea 2684" x2="14.332" transform="translate(0 7.195)" fill="none" stroke="#000" stroke-linecap="round" stroke-linejoin="round" stroke-miterlimit="10" stroke-width="3"/>
          <line id="Línea_2685" data-name="Línea 2685" x2="14.332" transform="translate(0 14.39)" fill="none" stroke="#000" stroke-linecap="round" stroke-linejoin="round" stroke-miterlimit="10" stroke-width="3"/>
        </g>
        <g id="Grupo_1226025" data-name="Grupo 1226025" transform="translate(50.922 111.41)">
          <g id="Grupo_1226024" data-name="Grupo 1226024" transform="translate(0 3.827)">
            <path id="Trazado_1054342" data-name="Trazado 1054342" d="M185.006,391.876l-7.653,6.378,7.653,6.378" transform="translate(-177.353 -391.876)" fill="none" stroke="#000" stroke-linecap="round" stroke-linejoin="round" stroke-miterlimit="10" stroke-width="3"/>
            <path id="Trazado_1054343" data-name="Trazado 1054343" d="M270.009,391.876l7.653,6.378-7.653,6.378" transform="translate(-242.231 -391.876)" fill="none" stroke="#000" stroke-linecap="round" stroke-linejoin="round" stroke-miterlimit="10" stroke-width="3"/>
          </g>
          <line id="Línea_2686" data-name="Línea 2686" y1="20.409" x2="8.504" transform="translate(13.464)" fill="none" stroke="#000" stroke-linecap="round" stroke-linejoin="round" stroke-miterlimit="10" stroke-width="3"/>
        </g>
        <path id="Trazado_1054344" data-name="Trazado 1054344" d="M35.9,268.7H9.082A1.582,1.582,0,0,1,7.5,267.114v-47.8a1.582,1.582,0,0,1,1.582-1.582H35.9a1.582,1.582,0,0,1,1.582,1.582v47.8A1.582,1.582,0,0,1,35.9,268.7Z" transform="translate(-7.5 -154.703)" fill="none" stroke="#000" stroke-linecap="round" stroke-linejoin="round" stroke-miterlimit="10" stroke-width="3"/>
        <g id="Grupo_1226026" data-name="Grupo 1226026" transform="translate(8.498 72.921)">
          <line id="Línea_2687" data-name="Línea 2687" x2="7.395" fill="none" stroke="#000" stroke-linecap="round" stroke-linejoin="round" stroke-miterlimit="10" stroke-width="3"/>
          <line id="Línea_2688" data-name="Línea 2688" x2="7.395" transform="translate(0 29.181)" fill="none" stroke="#000" stroke-linecap="round" stroke-linejoin="round" stroke-miterlimit="10" stroke-width="3"/>
          <line id="Línea_2689" data-name="Línea 2689" x2="12.488" transform="translate(0 7.295)" fill="none" stroke="#000" stroke-linecap="round" stroke-linejoin="round" stroke-miterlimit="10" stroke-width="3"/>
          <line id="Línea_2690" data-name="Línea 2690" x2="12.488" transform="translate(0 14.59)" fill="none" stroke="#000" stroke-linecap="round" stroke-linejoin="round" stroke-miterlimit="10" stroke-width="3"/>
        </g>
      </g>
    </g>
  </g>
</svg>
